<?xml version="1.0" encoding="utf-8"?>
<!-- Generator: Adobe Illustrator 16.0.0, SVG Export Plug-In . SVG Version: 6.00 Build 0)  -->
<!DOCTYPE svg PUBLIC "-//W3C//DTD SVG 1.1//EN" "http://www.w3.org/Graphics/SVG/1.1/DTD/svg11.dtd">
<svg version="1.1" id="Layer_1" xmlns="http://www.w3.org/2000/svg" xmlns:xlink="http://www.w3.org/1999/xlink" x="0px" y="0px"
	 width="100.5px" height="100.438px" viewBox="0 0 100.5 100.438" enable-background="new 0 0 100.5 100.438" xml:space="preserve">
<circle fill="none" cx="50.542" cy="50.125" r="50.125"/>
<path fill="#FFFFFF" d="M54.215,57.334C36.036,66.74,19.6,71.093,17.504,67.057c-2.096-4.036,10.943-14.937,29.123-24.342
	c18.18-9.407,34.612-13.761,36.709-9.723C85.432,37.03,72.394,47.928,54.215,57.334z M95.022,26.946
	c-2.279-4.392-24.096,2.381-48.729,15.126C21.66,54.818,3.539,68.711,5.819,73.103c2.28,4.393,24.097-2.38,48.729-15.126
	C79.182,45.231,97.302,31.338,95.022,26.946z"/>
<path fill="#FFFFFF" d="M54.027,42.621c18.39,8.988,31.683,19.588,29.691,23.677s-18.516,0.119-36.905-8.869
	C28.423,48.44,15.131,37.844,17.123,33.752C19.115,29.663,35.637,33.633,54.027,42.621z M5.302,27.975
	c-2.167,4.448,16.277,17.926,41.195,30.104c24.918,12.179,46.875,18.444,49.042,13.996c2.168-4.449-16.276-17.928-41.195-30.105
	C29.425,29.791,7.468,23.526,5.302,27.975z"/>
<path fill="#FFFFFF" d="M42.185,50.085c-0.122-20.468,3.467-37.088,8.015-37.121c4.548-0.034,8.336,16.534,8.456,37.002
	c0.122,20.469-3.463,37.085-8.014,37.12C46.093,87.118,42.307,70.553,42.185,50.085z M50.72,100.242
	c4.948-0.035,8.824-22.548,8.659-50.282S55.07-0.229,50.122-0.192c-4.949,0.036-8.826,22.548-8.66,50.282
	C41.626,77.825,45.772,100.279,50.72,100.242z"/>
<circle fill="#FFFFFF" cx="50.388" cy="49.66" r="6.45"/>
<g>
</g>
<g>
</g>
<g>
</g>
<g>
</g>
<g>
</g>
<g>
</g>
<g>
</g>
<g>
</g>
<g>
</g>
<g>
</g>
<g>
</g>
<g>
</g>
<g>
</g>
<g>
</g>
<g>
</g>
</svg>
