<svg xmlns="http://www.w3.org/2000/svg" width="800" height="879" viewBox="0 0 800 879"><radialGradient id="a" cx="459.091" cy="362" r="295.978" gradientUnits="userSpaceOnUse"><stop offset=".005" stop-color="#fff"/><stop offset="1" stop-color="#fff" stop-opacity="0"/></radialGradient><path fill="url(#a)" d="M184.591 46h549v632h-549z"/><defs><filter id="b" filterUnits="userSpaceOnUse" x="51.123" y="415.933" width="698.627" height="463.891"><feColorMatrix values="1 0 0 0 0 0 1 0 0 0 0 0 1 0 0 0 0 0 1 0"/></filter></defs><mask maskUnits="userSpaceOnUse" x="51.123" y="415.933" width="698.627" height="463.891" id="d"><g filter="url(#b)"><linearGradient id="c" gradientUnits="userSpaceOnUse" x1="401" y1="411.433" x2="401" y2="914"><stop offset="0" stop-color="#d9d9d9"/><stop offset=".059" stop-color="#bfbfbf"/><stop offset=".189" stop-color="#8d8d8d"/><stop offset=".321" stop-color="#626262"/><stop offset=".454" stop-color="#3e3e3e"/><stop offset=".588" stop-color="#232323"/><stop offset=".723" stop-color="#101010"/><stop offset=".859" stop-color="#040404"/><stop offset="1"/></linearGradient><path fill="url(#c)" d="M32 411.433h738V914H32z"/></g></mask><g mask="url(#d)"><linearGradient id="e" gradientUnits="userSpaceOnUse" x1="164.703" y1="847.734" x2="164.703" y2="386.338" gradientTransform="matrix(1 -.0022 -.0022 -1 1.34 1264.848)"><stop offset="0" stop-color="#b05f27"/><stop offset=".257" stop-color="#c36a28"/><stop offset=".731" stop-color="#e37d28"/><stop offset="1" stop-color="#f58628"/></linearGradient><path fill="url(#e)" stroke="#F0D2BD" d="M277.25 496.666L52 417l-.377 233.48 226.666 227.427z"/><path opacity=".4" d="M212.265 748.577l22.786 21.421.283 9.623-128.722-122.474-.101-7.972 22.985 21.605-1.876-119.9c6.253-2.542 8.291-11.911 8.115-22.357-.358-21.396-11.825-48.462-29.728-60.638-2.93-1.996-9.376-5.271-9.318-.267.049 4.177 1.177 6.354 4.529 9.521 10.956 10.474 19.983 26.008 20.23 42.602.257 17.256-11.116 18.591-23.826 8.717-15.046-11.685-22.769-32.305-22.917-49.684-.302-35.048 31.583-24.106 56.202-7.849 22.797 15.06 39.053 33.129 46.004 43.635 32.226 48.231 31.269 78.917 32.33 119.194l3.024 114.823z"/><path fill="#F0D2BD" d="M208.817 750.121l22.846 21.438.283 9.634-129.069-122.558-.1-7.984 23.047 21.625-1.887-120.061c6.271-2.55 8.313-11.932 8.138-22.393-.361-21.423-11.858-48.521-29.812-60.704-2.938-1.997-9.402-5.274-9.345-.265.05 4.185 1.182 6.362 4.543 9.536 10.985 10.481 20.039 26.031 20.286 42.647.259 17.278-11.145 18.621-23.89 8.74-15.087-11.693-22.833-32.339-22.981-49.74-.305-35.097 31.669-24.153 56.355-7.886 22.858 15.069 39.159 33.154 46.13 43.673 32.312 48.278 31.354 79.004 32.419 119.332l3.037 114.966z"/><linearGradient id="f" gradientUnits="userSpaceOnUse" x1="353.394" y1="840.573" x2="353.394" y2="379.178" gradientTransform="matrix(1 0 0 -1 0 1257.332)"><stop offset="0" stop-color="#b05f27"/><stop offset=".257" stop-color="#c36a28"/><stop offset=".731" stop-color="#e37d28"/><stop offset="1" stop-color="#f58628"/></linearGradient><path fill="url(#f)" stroke="#F0D2BD" d="M277.25 496.666l152.539-79.907v229.576L277 878.154z"/><path d="M374.741 481.027l-.014 5.499-6.127 4.104.315 90.678 15.178-16.365-.216-84.55-5.579 3.834.062-5.477 41.007-25.878v4.001l-6.101 4.031-.036 161.611 6.39-8.722v4.759l-40.733 55.737.015-4.477 5.662-7.592-.461-92.271-15.171 16.819-.026 96.52 6.399-8.654.029 4.491-82.856 113.245-.036-10.062 20.023-27.473-2.436-224.904-16.791 11.072-.088-8.506 81.591-51.47z" opacity=".4"/><path fill="#F0D2BD" d="M371.679 485.995l-.014 5.491-6.111 4.086.314 90.559 15.139-16.313-.216-84.439-5.564 3.818.062-5.472 40.899-25.756v3.997l-6.085 4.013-.034 161.396 6.372-8.696v4.751l-40.626 55.583.015-4.47 5.646-7.572-.46-92.149-15.131 16.766-.026 96.393 6.383-8.63.029 4.485-82.642 112.934-.037-10.048 19.973-27.398-2.43-224.624-16.748 11.021-.089-8.492 81.381-51.234z"/><linearGradient id="g" gradientUnits="userSpaceOnUse" x1="615.25" y1="642.457" x2="615.25" y2="414.284" gradientTransform="matrix(1 0 0 -1 0 1061.957)"><stop offset="0" stop-color="#b05f27"/><stop offset=".257" stop-color="#c36a28"/><stop offset=".731" stop-color="#e37d28"/><stop offset="1" stop-color="#f58628"/></linearGradient><path fill="url(#g)" stroke="#F0D2BD" d="M481.253 419.5H749.25v228.173H481.253z"/><path opacity=".4" d="M717.78 608.404h18.812v6.586h-87.59l-29.986-80.314-29.268 80.314h-86.163v-6.586h17.604v-135.3c0-7.774-1.662-20.2-14.757-20.2h-4.515v-6.568h49.037v6.568h-4.531c-15.938 0-16.419 11.449-16.419 20.689v117.293h.481l54.019-144.551h9.761l53.073 142.854h.473V452.903h-18.56v-6.568h107.341v6.568H717.78v155.501z"/><path fill="#F0D2BD" d="M715.78 610.211h18.812v6.586h-87.59l-29.986-80.313-29.268 80.313h-86.163v-6.586h17.604v-135.3c0-7.774-1.662-20.2-14.757-20.2h-4.515v-6.569h49.037v6.569h-4.531c-15.938 0-16.419 11.449-16.419 20.688v117.294h.481l54.019-144.552h9.761l53.073 142.854h.473V454.711h-18.56v-6.569h107.341v6.569H715.78v155.5z"/></g><g><linearGradient id="h" gradientUnits="userSpaceOnUse" x1="615.253" y1="419.31" x2="615.253" y2="195.975"><stop offset="0" stop-color="#b05f27"/><stop offset=".257" stop-color="#c36a28"/><stop offset=".731" stop-color="#e37d28"/><stop offset="1" stop-color="#f58628"/></linearGradient><path fill="url(#h)" stroke="#F0D2BD" d="M481.253 195.975h268v223.336h-268z"/><path opacity=".4" d="M716.779 386.457h18.812v6.424H628.25v-6.424h18.56V253.171h-.473L593.264 392.88h-9.761l-54.019-141.37h-.481v114.711c0 9.037.481 20.234 16.419 20.234h4.531v6.424h-49.037v-6.424h4.515c13.095 0 14.757-12.152 14.757-19.756v-132.32h-17.604v-6.441h86.163l29.268 78.546 29.986-78.546h87.59v6.441h-18.812v152.078z"/><path fill="#F0D2BD" d="M714.779 384.689h18.812v6.425H626.25v-6.425h18.56V251.404h-.473l-53.073 139.71h-9.761l-54.019-141.37h-.481v114.712c0 9.036.481 20.233 16.419 20.233h4.531v6.425h-49.037v-6.425h4.515c13.095 0 14.757-12.152 14.757-19.756V232.612h-17.604v-6.441h86.163l29.268 78.546 29.986-78.546h87.59v6.441h-18.812v152.077z"/><linearGradient id="i" gradientUnits="userSpaceOnUse" x1="164.894" y1="497" x2="164.894" y2="105.001"><stop offset="0" stop-color="#b05f27"/><stop offset=".257" stop-color="#c36a28"/><stop offset=".731" stop-color="#e37d28"/><stop offset="1" stop-color="#f58628"/></linearGradient><path fill="url(#i)" stroke="#F0D2BD" d="M277.789 497L52 417V197l225.789-92z"/><path opacity=".4" d="M223.062 301.955c-1.021 40.805.117 73.047-34.275 100.426-7.305 5.92-24.259 13.092-47.721 12.738-24.889-.381-56.498-10.752-56.358-44.84.068-16.914 7.583-32.213 22.477-34.139 12.712-1.648 24.231 7 24.04 24.021-.183 16.363-9.26 25.85-20.226 28.998-3.338.924-4.454 2.328-4.485 6.416-.036 4.895 6.396 5.93 9.326 5.9 18.052-.164 29.664-19.551 29.948-40.73.139-10.348-1.99-21.055-8.401-27.639l1.438-118.782-23.24 7.754.067-7.86 135.616-47.181-.284 9.878-24.998 8.341-2.924 116.699z"/><path fill="#F0D2BD" d="M219.303 298.256c-1.021 40.805.117 73.047-34.275 100.426-7.305 5.921-24.259 13.092-47.721 12.738-24.889-.38-56.498-10.752-56.358-44.839.068-16.915 7.583-32.214 22.477-34.14 12.712-1.648 24.231 7 24.04 24.022-.183 16.362-9.26 25.849-20.226 28.997-3.338.925-4.454 2.329-4.485 6.417-.036 4.895 6.396 5.93 9.326 5.9 18.052-.165 29.664-19.552 29.948-40.73.139-10.349-1.99-21.056-8.401-27.64l1.438-118.782-23.24 7.754.067-7.86 135.616-47.181-.284 9.878-24.998 8.341-2.924 116.699z"/><linearGradient id="j" gradientUnits="userSpaceOnUse" x1="353.395" y1="497" x2="353.395" y2="105.001"><stop offset="0" stop-color="#b05f27"/><stop offset=".257" stop-color="#c36a28"/><stop offset=".731" stop-color="#e37d28"/><stop offset="1" stop-color="#f58628"/></linearGradient><path fill="url(#j)" stroke="#F0D2BD" d="M277 497l152.789-80V197L277 105z"/><path d="M294.129 427.928l.094-8.744 17.546-5.689 2.524-229.378-20.909-9.771.038-10.274 84.199 39.281-.028 4.437-6.291-2.833.025 95.015 14.857 2.458.449-90.677-5.52-2.422-.015-4.376 39.131 18.319v4.585l-6.05-2.797.033 156.138 5.776-1.867v3.857l-39.407 14.002-.061-5.312 5.442-1.615.211-82.924-14.864-1.973-.311 89.592 6.025-1.893.014 5.389-82.908 29.472z" opacity=".4"/><path fill="#F0D2BD" d="M291.121 426.014l.094-8.744 17.546-5.689 2.524-229.378-20.909-9.771.038-10.274 84.199 39.281-.028 4.437-6.291-2.833.025 95.015 14.857 2.458.449-90.677-5.52-2.422-.015-4.376 39.131 18.319v4.585l-6.05-2.797.033 156.138 5.776-1.867v3.857l-39.407 14.002-.061-5.313 5.442-1.614.211-82.924-14.864-1.973-.311 89.591 6.025-1.893.014 5.389-82.908 29.473z"/></g></svg>