<?xml version="1.0" encoding="utf-8"?>
<!-- Generator: Adobe Illustrator 16.0.0, SVG Export Plug-In . SVG Version: 6.00 Build 0)  -->
<!DOCTYPE svg PUBLIC "-//W3C//DTD SVG 1.1//EN" "http://www.w3.org/Graphics/SVG/1.1/DTD/svg11.dtd">
<svg version="1.1" xmlns="http://www.w3.org/2000/svg" xmlns:xlink="http://www.w3.org/1999/xlink" x="0px" y="0px" width="800px"
	 height="879px" viewBox="0 0 800 879" enable-background="new 0 0 800 879" xml:space="preserve">
<g id="radial">
	<radialGradient id="SVGID_1_" cx="459.0908" cy="362" r="295.9782" gradientUnits="userSpaceOnUse">
		<stop  offset="0.0051" style="stop-color:#FFFFFF"/>
		<stop  offset="1" style="stop-color:#FFFFFF;stop-opacity:0"/>
	</radialGradient>
	<rect x="184.591" y="46" fill="url(#SVGID_1_)" width="549" height="632"/>
</g>
<g id="refection">
	<defs>
		<filter id="Adobe_OpacityMaskFilter" filterUnits="userSpaceOnUse" x="51.123" y="415.933" width="698.627" height="463.891">
			<feColorMatrix  type="matrix" values="1 0 0 0 0  0 1 0 0 0  0 0 1 0 0  0 0 0 1 0"/>
		</filter>
	</defs>
	<mask maskUnits="userSpaceOnUse" x="51.123" y="415.933" width="698.627" height="463.891" id="SVGID_2_">
		<g filter="url(#Adobe_OpacityMaskFilter)">
			<linearGradient id="SVGID_3_" gradientUnits="userSpaceOnUse" x1="400.9995" y1="411.4326" x2="400.9995" y2="914">
				<stop  offset="0" style="stop-color:#D9D9D9"/>
				<stop  offset="0.0594" style="stop-color:#BFBFBF"/>
				<stop  offset="0.189" style="stop-color:#8D8D8D"/>
				<stop  offset="0.3214" style="stop-color:#626262"/>
				<stop  offset="0.4543" style="stop-color:#3E3E3E"/>
				<stop  offset="0.588" style="stop-color:#232323"/>
				<stop  offset="0.7228" style="stop-color:#101010"/>
				<stop  offset="0.8592" style="stop-color:#040404"/>
				<stop  offset="1" style="stop-color:#000000"/>
			</linearGradient>
			<rect x="32" y="411.433" fill="url(#SVGID_3_)" width="738" height="502.567"/>
		</g>
	</mask>
	<g mask="url(#SVGID_2_)">
		
			<linearGradient id="SVGID_4_" gradientUnits="userSpaceOnUse" x1="164.7026" y1="847.7344" x2="164.7026" y2="386.3379" gradientTransform="matrix(1 -0.0022 -0.0022 -1 1.3398 1264.8477)">
			<stop  offset="0" style="stop-color:#B05F27"/>
			<stop  offset="0.2571" style="stop-color:#C36A28"/>
			<stop  offset="0.7311" style="stop-color:#E37D28"/>
			<stop  offset="1" style="stop-color:#F58628"/>
		</linearGradient>
		<polygon fill="url(#SVGID_4_)" stroke="#F0D2BD" points="277.25,496.666 52,417 51.623,650.48 278.289,877.907 		"/>
		<path opacity="0.4" d="M212.265,748.577l22.786,21.421l0.283,9.623L106.612,657.147l-0.101-7.972l22.985,21.605l-1.876-119.9
			c6.253-2.542,8.291-11.911,8.115-22.357c-0.358-21.396-11.825-48.462-29.728-60.638c-2.93-1.996-9.376-5.271-9.318-0.267
			c0.049,4.177,1.177,6.354,4.529,9.521c10.956,10.474,19.983,26.008,20.23,42.602c0.257,17.256-11.116,18.591-23.826,8.717
			c-15.046-11.685-22.769-32.305-22.917-49.684c-0.302-35.048,31.583-24.106,56.202-7.849c22.797,15.06,39.053,33.129,46.004,43.635
			c32.226,48.231,31.269,78.917,32.33,119.194L212.265,748.577z"/>
		<path fill="#F0D2BD" d="M208.817,750.121l22.846,21.438l0.283,9.634L102.877,658.635l-0.1-7.984l23.047,21.625l-1.887-120.061
			c6.271-2.55,8.313-11.932,8.138-22.393c-0.361-21.423-11.858-48.521-29.812-60.704c-2.938-1.997-9.402-5.274-9.345-0.265
			c0.05,4.185,1.182,6.362,4.543,9.536c10.985,10.481,20.039,26.031,20.286,42.647c0.259,17.278-11.145,18.621-23.89,8.74
			c-15.087-11.693-22.833-32.339-22.981-49.74c-0.305-35.097,31.669-24.153,56.355-7.886c22.858,15.069,39.159,33.154,46.13,43.673
			c32.312,48.278,31.354,79.004,32.419,119.332L208.817,750.121z"/>
		
			<linearGradient id="SVGID_5_" gradientUnits="userSpaceOnUse" x1="353.394" y1="840.5732" x2="353.394" y2="379.1777" gradientTransform="matrix(1 0 0 -1 0 1257.332)">
			<stop  offset="0" style="stop-color:#B05F27"/>
			<stop  offset="0.2571" style="stop-color:#C36A28"/>
			<stop  offset="0.7311" style="stop-color:#E37D28"/>
			<stop  offset="1" style="stop-color:#F58628"/>
		</linearGradient>
		<polygon fill="url(#SVGID_5_)" stroke="#F0D2BD" points="277.25,496.666 429.789,416.759 429.789,646.335 277,878.154 		"/>
		<g opacity="0.4">
			<path d="M374.741,481.027l-0.014,5.499l-6.127,4.104l0.315,90.678l15.178-16.365l-0.216-84.55l-5.579,3.834l0.062-5.477
				l41.007-25.878v4.001l-6.101,4.031l-0.036,161.611l6.39-8.722v4.759l-40.733,55.737l0.015-4.477l5.662-7.592l-0.461-92.271
				l-15.171,16.819l-0.026,96.52l6.399-8.654l0.029,4.491L292.478,792.37l-0.036-10.062l20.023-27.473l-2.436-224.904
				l-16.791,11.072l-0.088-8.506L374.741,481.027z"/>
		</g>
		<g>
			<path fill="#F0D2BD" d="M371.679,485.995l-0.014,5.491l-6.111,4.086l0.314,90.559l15.139-16.313l-0.216-84.439l-5.564,3.818
				l0.062-5.472l40.899-25.756v3.997l-6.085,4.013l-0.034,161.396l6.372-8.696v4.751l-40.626,55.583l0.015-4.47l5.646-7.572
				l-0.46-92.149l-15.131,16.766l-0.026,96.393l6.383-8.63l0.029,4.485l-82.642,112.934l-0.037-10.048l19.973-27.398l-2.43-224.624
				l-16.748,11.021l-0.089-8.492L371.679,485.995z"/>
		</g>
		
			<linearGradient id="SVGID_6_" gradientUnits="userSpaceOnUse" x1="615.25" y1="642.457" x2="615.25" y2="414.2842" gradientTransform="matrix(1 0 0 -1 0 1061.957)">
			<stop  offset="0" style="stop-color:#B05F27"/>
			<stop  offset="0.2571" style="stop-color:#C36A28"/>
			<stop  offset="0.7311" style="stop-color:#E37D28"/>
			<stop  offset="1" style="stop-color:#F58628"/>
		</linearGradient>
		<rect x="481.253" y="419.5" fill="url(#SVGID_6_)" stroke="#F0D2BD" width="267.997" height="228.173"/>
		<path opacity="0.4" d="M717.78,608.404h18.812v6.586h-87.59l-29.986-80.314l-29.268,80.314h-86.163v-6.586h17.604V473.104
			c0-7.774-1.662-20.2-14.757-20.2h-4.515v-6.568h49.037v6.568h-4.531c-15.938,0-16.419,11.449-16.419,20.689v117.293h0.481
			l54.019-144.551h9.761l53.073,142.854h0.473V452.903h-18.56v-6.568h107.341v6.568H717.78V608.404z"/>
		<path fill="#F0D2BD" d="M715.78,610.211h18.812v6.586h-87.59l-29.986-80.313l-29.268,80.313h-86.163v-6.586h17.604v-135.3
			c0-7.774-1.662-20.2-14.757-20.2h-4.515v-6.569h49.037v6.569h-4.531c-15.938,0-16.419,11.449-16.419,20.688v117.294h0.481
			l54.019-144.552h9.761l53.073,142.854h0.473V454.711h-18.56v-6.569h107.341v6.569H715.78V610.211z"/>
	</g>
</g>
<g id="Layer_1">
	<linearGradient id="SVGID_7_" gradientUnits="userSpaceOnUse" x1="615.2529" y1="419.3105" x2="615.2529" y2="195.9751">
		<stop  offset="0" style="stop-color:#B05F27"/>
		<stop  offset="0.2571" style="stop-color:#C36A28"/>
		<stop  offset="0.7311" style="stop-color:#E37D28"/>
		<stop  offset="1" style="stop-color:#F58628"/>
	</linearGradient>
	<rect x="481.253" y="195.975" fill="url(#SVGID_7_)" stroke="#F0D2BD" width="268" height="223.336"/>
	<path opacity="0.4" d="M716.779,386.457h18.812v6.424H628.25v-6.424h18.56V253.171h-0.473l-53.073,139.709h-9.761l-54.019-141.37
		h-0.481v114.711c0,9.037,0.481,20.234,16.419,20.234h4.531v6.424h-49.037v-6.424h4.515c13.095,0,14.757-12.152,14.757-19.756
		V234.379h-17.604v-6.441h86.163l29.268,78.546l29.986-78.546h87.59v6.441h-18.812V386.457z"/>
	<path fill="#F0D2BD" d="M714.779,384.689h18.812v6.425H626.25v-6.425h18.56V251.404h-0.473l-53.073,139.71h-9.761l-54.019-141.37
		h-0.481v114.712c0,9.036,0.481,20.233,16.419,20.233h4.531v6.425h-49.037v-6.425h4.515c13.095,0,14.757-12.152,14.757-19.756
		V232.612h-17.604v-6.441h86.163l29.268,78.546l29.986-78.546h87.59v6.441h-18.812V384.689z"/>
	<g>
		<linearGradient id="SVGID_8_" gradientUnits="userSpaceOnUse" x1="164.8945" y1="497" x2="164.8945" y2="105.0005">
			<stop  offset="0" style="stop-color:#B05F27"/>
			<stop  offset="0.2571" style="stop-color:#C36A28"/>
			<stop  offset="0.7311" style="stop-color:#E37D28"/>
			<stop  offset="1" style="stop-color:#F58628"/>
		</linearGradient>
		<polygon fill="url(#SVGID_8_)" stroke="#F0D2BD" points="277.789,497 52,417 52,197 277.789,105 		"/>
		<path opacity="0.4" d="M223.062,301.955c-1.021,40.805,0.117,73.047-34.275,100.426c-7.305,5.92-24.259,13.092-47.721,12.738
			c-24.889-0.381-56.498-10.752-56.358-44.84c0.068-16.914,7.583-32.213,22.477-34.139c12.712-1.648,24.231,7,24.04,24.021
			c-0.183,16.363-9.26,25.85-20.226,28.998c-3.338,0.924-4.454,2.328-4.485,6.416c-0.036,4.895,6.396,5.93,9.326,5.9
			c18.052-0.164,29.664-19.551,29.948-40.73c0.139-10.348-1.99-21.055-8.401-27.639l1.438-118.782l-23.24,7.754l0.067-7.86
			l135.616-47.181l-0.284,9.878l-24.998,8.341L223.062,301.955z"/>
		<path fill="#F0D2BD" d="M219.303,298.256c-1.021,40.805,0.117,73.047-34.275,100.426c-7.305,5.921-24.259,13.092-47.721,12.738
			c-24.889-0.38-56.498-10.752-56.358-44.839c0.068-16.915,7.583-32.214,22.477-34.14c12.712-1.648,24.231,7,24.04,24.022
			c-0.183,16.362-9.26,25.849-20.226,28.997c-3.338,0.925-4.454,2.329-4.485,6.417c-0.036,4.895,6.396,5.93,9.326,5.9
			c18.052-0.165,29.664-19.552,29.948-40.73c0.139-10.349-1.99-21.056-8.401-27.64l1.438-118.782l-23.24,7.754l0.067-7.86
			l135.616-47.181l-0.284,9.878l-24.998,8.341L219.303,298.256z"/>
	</g>
	<g>
		<linearGradient id="SVGID_9_" gradientUnits="userSpaceOnUse" x1="353.395" y1="497" x2="353.395" y2="105.0005">
			<stop  offset="0" style="stop-color:#B05F27"/>
			<stop  offset="0.2571" style="stop-color:#C36A28"/>
			<stop  offset="0.7311" style="stop-color:#E37D28"/>
			<stop  offset="1" style="stop-color:#F58628"/>
		</linearGradient>
		<polygon fill="url(#SVGID_9_)" stroke="#F0D2BD" points="277,497 429.789,417 429.789,197 277,105 		"/>
		<g opacity="0.4">
			<path d="M294.129,427.928l0.094-8.744l17.546-5.689l2.524-229.378l-20.909-9.771l0.038-10.274l84.199,39.281l-0.028,4.437
				l-6.291-2.833l0.025,95.015l14.857,2.458l0.449-90.677l-5.52-2.422l-0.015-4.376l39.131,18.319v4.585l-6.05-2.797l0.033,156.138
				l5.776-1.867v3.857l-39.407,14.002l-0.061-5.312l5.442-1.615l0.211-82.924l-14.864-1.973l-0.311,89.592l6.025-1.893l0.014,5.389
				L294.129,427.928z"/>
		</g>
		<g>
			<path fill="#F0D2BD" d="M291.121,426.014l0.094-8.744l17.546-5.689l2.524-229.378l-20.909-9.771l0.038-10.274l84.199,39.281
				l-0.028,4.437l-6.291-2.833l0.025,95.015l14.857,2.458l0.449-90.677l-5.52-2.422l-0.015-4.376l39.131,18.319v4.585l-6.05-2.797
				l0.033,156.138l5.776-1.867v3.857l-39.407,14.002l-0.061-5.313l5.442-1.614l0.211-82.924l-14.864-1.973l-0.311,89.591
				l6.025-1.893l0.014,5.389L291.121,426.014z"/>
		</g>
	</g>
	<g>
	</g>
	<g>
	</g>
	<g>
	</g>
	<g>
	</g>
	<g>
	</g>
	<g>
	</g>
	<g>
	</g>
	<g>
	</g>
	<g>
	</g>
	<g>
	</g>
	<g>
	</g>
	<g>
	</g>
</g>
</svg>
