<svg xmlns="http://www.w3.org/2000/svg" width="100%" viewBox="0 0 94.194 92.704">
    <g fill="#C26437">
        <path fill-rule="evenodd" clip-rule="evenodd" d="M47.098 0C21.09 0 0 21.086 0 47.096c0 20.81 13.494 38.464 32.208 44.691 2.354.436 3.219-1.021 3.219-2.267 0-1.122-.044-4.833-.063-8.768-13.103 2.849-15.868-5.557-15.868-5.557-2.141-5.444-5.229-6.892-5.229-6.892-4.273-2.923.323-2.864.323-2.864 4.728.333 7.219 4.855 7.219 4.855 4.201 7.199 11.018 5.118 13.706 3.913.422-3.042 1.642-5.121 2.99-6.298-10.462-1.188-21.458-5.229-21.458-23.275 0-5.141 1.84-9.342 4.854-12.641-.489-1.187-2.103-5.976.455-12.463 0 0 3.956-1.267 12.955 4.827 3.757-1.044 7.786-1.566 11.789-1.585 4.002.019 8.034.541 11.797 1.585 8.99-6.094 12.939-4.827 12.939-4.827 2.562 6.487.951 11.276.463 12.463 3.019 3.299 4.846 7.5 4.846 12.641 0 18.091-11.018 22.072-21.505 23.24 1.69 1.46 3.194 4.326 3.194 8.72 0 6.302-.055 11.374-.055 12.925 0 1.254.849 2.723 3.235 2.261 18.702-6.233 32.181-23.883 32.181-44.686C94.194 21.086 73.108 0 47.098 0z"/>
        <path d="M17.839 67.621c-.104.234-.472.305-.808.143-.342-.153-.533-.472-.423-.707.102-.24.471-.307.812-.146.341.151.537.476.419.71zM19.746 69.749c-.224.207-.665.111-.961-.218-.31-.33-.365-.768-.139-.979.231-.207.658-.109.966.218.309.332.368.767.134.979zm1.857 2.711c-.288.201-.76.014-1.053-.403-.288-.421-.288-.923.007-1.124.292-.201.758-.021 1.053.394.289.427.289.929-.007 1.133zm2.544 2.621c-.258.286-.808.208-1.21-.18-.413-.38-.527-.919-.269-1.205.262-.284.815-.203 1.22.183.409.378.535.921.259 1.202zm3.509 1.523c-.114.369-.643.535-1.176.378-.533-.16-.881-.593-.774-.965.11-.37.643-.547 1.179-.379.533.161.883.589.771.966zm3.856.282c.012.389-.44.71-.999.716-.563.014-1.02-.3-1.025-.683 0-.394.441-.712 1.005-.721.559-.01 1.019.302 1.019.688zm3.585-.613c.067.381-.321.77-.877.873-.547.1-1.052-.135-1.122-.51-.069-.389.327-.778.874-.879.556-.095 1.056.132 1.125.516zm0 0"/>
    </g>
</svg>
