<?xml version="1.0" encoding="utf-8"?>
<!-- Generator: Adobe Illustrator 16.0.0, SVG Export Plug-In . SVG Version: 6.00 Build 0)  -->
<!DOCTYPE svg PUBLIC "-//W3C//DTD SVG 1.1//EN" "http://www.w3.org/Graphics/SVG/1.1/DTD/svg11.dtd">
<svg version="1.1" id="Layer_1" xmlns="http://www.w3.org/2000/svg" xmlns:xlink="http://www.w3.org/1999/xlink" x="0px" y="0px"
	 width="173.719px" height="162.387px" viewBox="0 0 173.719 162.387" enable-background="new 0 0 173.719 162.387"
	 xml:space="preserve">
<polygon fill="#FFFFFF" stroke="#231F20" points="87.223,78.834 87.242,91.746 54.741,95.729 -0.281,87.688 71.908,75.714 "/>
<polygon fill="#FFFFFF" stroke="#231F20" points="87.223,78.834 87.184,56.969 125.56,56.803 125.56,20.229 72.301,0.032 
	0.854,21.376 0.854,87.784 71.908,75.714 "/>
<g>
	<path fill="#C26437" d="M87.223,56.834l-0.125,11.75l-10.299-2.407l0.006-1.842l4.666,1.119l0.286-51.294l-5.653-2.34l-0.01-2.224
		l27.054,10.631l-0.007,1.197l-2.479-0.969l0.118,25.056l5.976,2.305l0.113-24.964l-2.301-0.881l-0.012-1.194l18.178,7.161v1.415
		l-3.118-1.247l0.025,28.529l-12.891,0.341l0.005-7.816l-5.979-2.235l-0.006,10.047L87.223,56.834z"/>
</g>
<path fill="#C26437" d="M54.643,41.728c0,10.197,0.508,18.218-8.76,27.871c-2.109,2.226-7.248,5.774-14.917,8.046
	c-8.847,2.621-21.317,3.113-21.317-7.841c0-5.393,3.035-10.841,8.848-12.564c4.717-1.398,8.848,0.33,8.848,5.3
	c0,4.803-3.201,8.45-7.246,10.488c-1.264,0.628-1.688,1.176-1.688,2.44c0,1.513,2.445,1.129,3.539,0.804
	c6.49-1.925,10.365-8.632,10.365-14.699c0-2.95-0.758-5.844-2.951-7.303V20.736l-8.086,2.396v-2.271L60.71,9.174v2.276l-6.067,1.798
	V41.728z"/>
<line fill="none" stroke="#231F20" x1="71.908" y1="75.714" x2="71.896" y2="0"/>
<rect x="87.184" y="56.969" fill="#FFFFFF" stroke="#231F20" width="86.254" height="71.88"/>
<path fill="#C26437" d="M162.184,118.012h6.055v2.068h-34.547v-2.068h5.973V75.114h-0.152l-17.081,44.966h-3.142l-17.385-45.5
	h-0.153v36.919c0,2.909,0.153,6.513,5.283,6.513h1.457v2.068H92.709v-2.068h1.455c4.213,0,4.748-3.91,4.748-6.359V69.065h-5.666
	v-2.071h27.732l9.418,25.279l9.65-25.279h28.191v2.071h-6.055V118.012z"/>
<g>
	<path fill="#231F20" d="M44.255,149.656v5.08h-0.546l-1.016-1.189c-1.115,0.966-2.775,1.412-4.238,1.412
		c-4.361,0-7.656-4.437-7.656-8.55c0-3.221,1.709-6.27,4.484-7.93c0.992-0.57,2.23-0.818,3.371-0.818c1.387,0,2.75,0.396,3.84,1.289
		l0.992-1.041h0.545v4.783h-0.719c-0.371-2.701-2.255-4.411-4.684-4.411c-1.586,0-2.404,0.347-3.271,1.686
		c-1.164,1.784-0.916,4.658-0.916,6.666c0,1.412-0.051,3.345,0.421,4.956c0.472,1.586,1.636,2.651,3.519,2.751
		c3.049,0.148,4.461-2.008,5.18-4.684H44.255z"/>
	<path fill="#231F20" d="M52.229,144.625c2.801,0,5.204,2.454,5.204,5.229s-2.403,5.104-5.204,5.104c-2.8,0-5.203-2.329-5.203-5.104
		S49.429,144.625,52.229,144.625z M52.229,145.121c-2.428,0-2.255,1.933-2.255,4.733c0,3.222,0.05,4.609,2.255,4.609
		c2.206,0,2.256-1.388,2.256-4.609C54.484,147.054,54.657,145.121,52.229,145.121z"/>
	<path fill="#231F20" d="M63.303,147.004h0.049c0.793-1.536,1.909-2.379,3.692-2.379c3.296,0,3.023,2.305,3.023,4.758v4.585h1.562
		v0.619h-5.75v-0.619h1.562v-4.46c0-2.306,0.248-3.99-1.411-3.99c-1.066,0-2.033,1.14-2.404,2.057
		c-0.322,0.817-0.322,1.958-0.322,3.123v3.271h1.562v0.619H58.99v-0.619h1.686v-8.574H58.99v-0.619
		c1.264,0.049,2.775-0.05,4.312-0.1V147.004z"/>
	<path fill="#231F20" d="M73.855,154.587h-0.396v-3.543h0.668c0.248,1.759,1.265,3.42,3.147,3.42c1.091,0,2.255-0.744,2.255-1.982
		c0-1.239-1.139-1.363-2.428-1.537c-2.553-0.347-3.52-1.388-3.52-3.296c0-1.884,1.289-3.023,3.123-3.023
		c0.867,0,1.734,0.272,2.428,0.793l0.396-0.644h0.422v2.924h-0.645c-0.148-1.338-1.215-2.577-2.602-2.577
		c-0.967,0-2.008,0.57-2.008,1.71c0,0.743,0.125,1.016,2.355,1.388c2.254,0.371,3.543,0.768,3.543,3.32
		c0,2.379-1.314,3.42-3.543,3.42c-0.818,0-1.885-0.471-2.479-1.041L73.855,154.587z"/>
	<path fill="#231F20" d="M90.703,152.604h-0.074c-0.693,1.388-2.031,2.354-3.643,2.354c-2.379,0-2.999-1.239-2.999-2.404v-7.161
		h-1.61v-0.619c1.238,0.049,2.75-0.05,4.238-0.1v7.707c0,1.016-0.075,1.784,1.189,1.784c0.916,0,2.898-1.017,2.898-3.99v-4.782
		H88.82v-0.619c1.512,0.049,3.023-0.05,4.51-0.1v9.293h1.734v0.619c-1.461,0-2.924-0.074-4.361,0.198V152.604z"/>
	<path fill="#231F20" d="M95.879,154.587v-0.619h1.858v-15.315h-1.784v-0.618c1.512,0.049,2.998-0.1,4.461-0.373v16.307h1.809v0.619
		H95.879z"/>
	<path fill="#231F20" d="M104.725,142.196c0.891,0,1.783-0.099,2.676-0.148v3.023h2.354v0.743H107.4v6.815
		c0,0.793,0.024,1.362,0.966,1.362c0.793,0,1.265-0.619,1.513-1.312l0.494,0.247c-0.52,1.388-1.586,2.032-3.023,2.032
		c-2.254,0-2.625-0.769-2.625-2.131v-7.014h-1.587v-0.743h1.587V142.196z"/>
	<path fill="#231F20" d="M111.039,154.587v-0.619h1.81v-8.574h-1.81v-0.619c1.463,0.049,2.975-0.05,4.486-0.1v9.293h1.834v0.619
		H111.039z M113.989,141.603c-0.769,0-1.339-0.77-1.339-1.487c0-0.67,0.67-1.338,1.339-1.338c0.718,0,1.462,0.595,1.462,1.338
		C115.451,140.958,114.832,141.603,113.989,141.603z"/>
	<path fill="#231F20" d="M122.512,147.004h0.049c0.793-1.536,1.909-2.379,3.693-2.379c3.296,0,3.023,2.305,3.023,4.758v4.585h1.561
		v0.619h-5.749v-0.619h1.562v-4.46c0-2.306,0.248-3.99-1.412-3.99c-1.066,0-2.033,1.14-2.404,2.057
		c-0.322,0.817-0.322,1.958-0.322,3.123v3.271h1.562v0.619h-5.874v-0.619h1.686v-8.574h-1.686v-0.619
		c1.265,0.049,2.775-0.05,4.312-0.1V147.004z"/>
	<path fill="#231F20" d="M138.74,153.149c1.164,0,2.031-0.173,2.725,0.794c0.373,0.521,0.473,1.164,0.473,1.784
		c0,3.196-2.678,4.659-5.553,4.659c-1.685,0-4.063-0.793-4.063-2.851c0-0.966,0.743-1.759,1.586-2.081
		c-0.991-0.372-1.61-1.141-1.61-2.256c0-1.487,0.916-2.155,2.23-2.527c-0.941-0.595-1.66-1.412-1.66-2.577
		c0-2.181,1.734-3.47,3.766-3.47c1.141,0,1.982,0.372,2.826,1.115c0.494-0.595,0.941-1.214,1.809-1.214
		c0.594,0,1.09,0.396,1.09,1.016c0,0.595-0.297,0.893-0.893,0.893c-0.594,0-0.816-0.843-1.016-0.843
		c-0.271,0-0.496,0.347-0.668,0.521c0.42,0.495,0.594,1.14,0.594,1.834c0,1.115-0.594,2.305-1.586,2.874
		c-1.016,0.57-2.279,0.396-3.32,0.396c-0.719,0-2.379,0.05-2.379,1.115c0,0.619,0.445,0.817,0.991,0.817H138.74z M134.898,155.479
		c-0.867,0-0.991,1.189-0.991,1.858c0,1.562,1.091,2.429,2.577,2.429c2.008,0,3.867-0.595,4.51-2.751
		c0.422-1.412-0.594-1.536-1.883-1.536H134.898z M135.271,149.581c0,0.893,0.372,1.239,1.313,1.239c1.066,0,1.412-0.223,1.412-1.239
		v-3.444c0-0.817-0.471-1.016-1.312-1.016c-1.041,0-1.413,0.495-1.413,1.016V149.581z"/>
</g>
</svg>
