<?xml version="1.0" encoding="utf-8"?>
<!-- Generator: Adobe Illustrator 16.0.0, SVG Export Plug-In . SVG Version: 6.00 Build 0)  -->
<!DOCTYPE svg PUBLIC "-//W3C//DTD SVG 1.1//EN" "http://www.w3.org/Graphics/SVG/1.1/DTD/svg11.dtd">
<svg version="1.1" id="Layer_1" xmlns="http://www.w3.org/2000/svg" xmlns:xlink="http://www.w3.org/1999/xlink" x="0px" y="0px"
	 width="100.5px" height="102.25px" viewBox="0 0 100.5 102.25" enable-background="new 0 0 100.5 102.25" xml:space="preserve">
<g>
	<g>
		<path fill="#FFFFFF" d="M61.316,35.611c2.938-5.695,3.207-15.978-0.237-34.03c7.123,19.401,7.645,31.194,5.282,39.145
			c5.012-3.694,9.469-12.52,14.165-24.524c-2.24,14.744-6.237,25.207-11.524,31.193c6.046-1.388,13.381-7.252,22.474-17.398
			c-7.533,11.917-15.306,20.655-22.522,24.261c6.347,0.633,15.578-2.574,31.411-13.391C85.655,54.157,74.66,59.678,66.333,60.611
			c5.695,2.938,15.978,3.208,34.03-0.236c-19.401,7.123-31.194,7.645-39.146,5.281c3.693,5.012,12.52,9.469,24.525,14.165
			c-14.745-2.24-25.208-6.237-31.194-11.523c1.388,6.045,7.253,13.381,17.399,22.473c-11.918-7.533-20.655-15.306-24.261-22.522
			c-0.634,6.347,2.574,15.577,13.391,31.411C47.787,84.95,42.267,73.955,41.333,65.629c-2.938,5.695-3.208,15.978,0.237,34.03
			c-7.124-19.401-7.645-31.194-5.281-39.146c-5.012,3.693-9.47,12.52-14.166,24.525c2.241-14.744,6.237-25.207,11.524-31.193
			c-6.045,1.389-13.381,7.252-22.473,17.398c7.533-11.917,15.306-20.654,22.522-24.26c-6.347-0.633-15.578,2.574-31.411,13.391
			c14.708-13.292,25.704-18.812,34.031-19.746c-5.696-2.938-15.978-3.208-34.031,0.237c19.401-7.124,31.194-7.645,39.146-5.282
			c-3.694-5.012-12.521-9.469-24.526-14.166c14.745,2.241,25.207,6.237,31.194,11.524c-1.389-6.045-7.253-13.381-17.398-22.472
			c11.917,7.533,20.654,15.305,24.26,22.522c0.633-6.347-2.574-15.578-13.391-31.411C54.861,16.29,60.381,27.285,61.316,35.611z
			 M57.47,44.958c-3.187-3.302-8.457-3.419-11.795-0.221c-3.325,3.186-3.443,8.493-0.222,11.83
			c3.208,3.325,8.516,3.408,11.831,0.187C60.585,53.545,60.669,48.275,57.47,44.958z"/>
	</g>
	<circle fill="none" cx="51.542" cy="51.125" r="51.125"/>
</g>
<g>
</g>
<g>
</g>
<g>
</g>
<g>
</g>
<g>
</g>
<g>
</g>
<g>
</g>
<g>
</g>
<g>
</g>
<g>
</g>
<g>
</g>
<g>
</g>
<g>
</g>
<g>
</g>
<g>
</g>
</svg>
