<svg xmlns="http://www.w3.org/2000/svg" width="577" height="389.5" viewBox="0 0 577 389.5">
    <ellipse opacity=".2" fill="#EC0000" cx="285.677" cy="214.798" rx="131.873" ry="154"/>
    <ellipse transform="rotate(26.24 130.555 106.038)" opacity=".2" fill="#24C5FF" cx="130.545" cy="106.028" rx="126.98" ry="96.613"/>
    <ellipse transform="rotate(-25.061 452.104 222.295)" opacity=".2" fill="#3EB100" cx="452.121" cy="222.304" rx="107.318" ry="145.824"/>
    <ellipse transform="rotate(-23.897 128.545 266.928)" opacity=".2" fill="#F0F100" cx="128.521" cy="266.9" rx="127.889" ry="99.403"/>
    <path fill="#076400" d="M575.84 188.134L533 163.402V175H44v-11.598L1.161 188.137 44 212.869V203h489v9.869z"/>
    <g fill="#999">
        <path d="M50.089 339.094c-.464.192-1.457.384-2.241.384-1.232 0-2.161-.352-2.881-1.072-.928-.896-1.424-2.497-1.392-4.354.048-3.922 2.289-5.555 4.578-5.555.816 0 1.425.16 1.761.32l-.368 1.809c-.304-.16-.704-.24-1.232-.24-1.425 0-2.561.977-2.561 3.794 0 2.593 1.008 3.521 1.985 3.521.192 0 .336-.016.416-.048v-2.609h-.96v-1.713h2.897v5.763zM51.447 333.907c0-.784-.032-1.632-.064-2.353h1.825l.112 1.137h.048c.352-.833.977-1.265 1.553-1.265.208 0 .32 0 .448.032v2.08c-.128-.031-.272-.031-.448-.031-.448 0-1.041.304-1.281 1.12-.048.176-.08.448-.08.784v3.97h-2.113v-5.474zM59.672 339.382l-.112-.769h-.032a2.045 2.045 0 0 1-1.729.896c-1.185 0-2.065-.992-2.065-2.385 0-2.049 1.809-2.897 3.585-2.913v-.176c0-.608-.368-1.057-1.104-1.057a2.93 2.93 0 0 0-1.601.448l-.384-1.409c.432-.256 1.345-.592 2.433-.592 2.385 0 2.769 1.664 2.769 3.249v2.913c0 .624.032 1.265.128 1.793h-1.888zm-.288-3.81c-.704.016-1.665.24-1.665 1.328 0 .785.432 1.073.752 1.073.336 0 .721-.208.865-.673.032-.112.048-.24.048-.368v-1.36zM62.902 334.036c0-.945-.032-1.745-.064-2.481h1.825l.112.896h.032c.32-.641.913-1.024 1.633-1.024 1.729 0 2.433 1.856 2.433 4.033 0 2.785-1.233 4.05-2.545 4.05-.64 0-1.072-.4-1.296-.769H65v3.714h-2.097v-8.419zM65 336.517c0 .272.032.513.112.672.16.48.432.608.672.608.736 0 .992-1.088.992-2.32 0-1.489-.352-2.289-.976-2.289-.32 0-.625.304-.705.672-.08.16-.096.368-.096.561v2.096zM70.07 328.306h2.097v4.065h.032c.176-.272.416-.496.672-.672a2.106 2.106 0 0 1 1.056-.272c1.441 0 2.001 1.217 2.001 3.201v4.754h-2.097v-4.754c0-.769-.144-1.44-.769-1.44-.352 0-.656.208-.816.736-.032.128-.08.416-.08.592v4.866H70.07v-11.076zM79.495 329.474c.016.673-.464 1.137-1.104 1.137-.576 0-1.056-.464-1.04-1.137-.016-.704.496-1.137 1.072-1.137.608 0 1.072.433 1.072 1.137zm-2.097 9.908v-7.827h2.097v7.827h-2.097zM85.304 339.254c-.208.096-.736.224-1.329.224-1.985 0-3.281-1.376-3.281-3.938 0-2.417 1.424-4.098 3.585-4.098.496 0 .944.112 1.152.208l-.271 1.65a2.2 2.2 0 0 0-.785-.145c-1.008 0-1.601.96-1.601 2.321 0 1.424.592 2.289 1.569 2.289.304 0 .56-.049.784-.16l.177 1.649zM88.87 328.754c.528-.129 1.297-.208 2.129-.208 1.361 0 2.305.319 2.993.96.929.832 1.409 2.257 1.409 4.354 0 2.177-.56 3.729-1.504 4.562-.721.704-1.793 1.04-3.297 1.04-.656 0-1.312-.064-1.729-.112v-10.596zm2.097 8.963c.096.032.256.032.368.032 1.008 0 1.889-.992 1.889-3.97 0-2.209-.576-3.553-1.841-3.553-.144 0-.288 0-.416.048v7.443zM98.278 336.213c.032 1.216.736 1.664 1.665 1.664.592 0 1.121-.128 1.489-.256l.288 1.505c-.544.208-1.36.352-2.161.352-2.129 0-3.297-1.408-3.297-3.857 0-2.625 1.36-4.193 3.137-4.193 1.681 0 2.657 1.328 2.657 3.697 0 .561-.016.864-.064 1.089h-3.714zm1.873-1.473c0-1.009-.256-1.793-.88-1.793-.688 0-.96 1.009-.977 1.793h1.857zM103.174 337.493c.304.192.88.416 1.409.416.544 0 .848-.24.848-.704 0-.4-.224-.656-.913-1.057-1.28-.72-1.584-1.536-1.584-2.257 0-1.408 1.008-2.465 2.577-2.465.656 0 1.168.16 1.584.352l-.368 1.537c-.304-.176-.672-.32-1.088-.32-.528 0-.784.32-.784.673 0 .352.176.544.912.976 1.153.656 1.585 1.473 1.585 2.369 0 1.601-1.153 2.465-2.769 2.465-.656 0-1.425-.176-1.793-.448l.384-1.537zM110.518 329.474c.016.673-.464 1.137-1.104 1.137-.576 0-1.056-.464-1.04-1.137-.016-.704.496-1.137 1.072-1.137.608 0 1.072.433 1.072 1.137zm-2.097 9.908v-7.827h2.097v7.827h-2.097zM117.768 331.555c-.032.704-.08 1.536-.08 2.481v4.466c0 1.681-.304 2.608-.944 3.217-.576.544-1.393.864-2.545.864-.72 0-1.393-.128-1.953-.368l.384-1.616c.4.176.896.336 1.505.336 1.056 0 1.473-.704 1.473-1.905v-.479h-.032c-.272.496-.816.784-1.409.784-1.761 0-2.449-1.921-2.449-3.794 0-2.608 1.184-4.113 2.641-4.113.624 0 1.136.32 1.44.912h.032l.112-.784h1.825zm-2.161 2.849c0-.209-.032-.417-.08-.577-.096-.336-.32-.64-.672-.64-.752 0-1.057 1.024-1.057 2.305 0 1.457.417 2.193 1.008 2.193.272 0 .544-.145.705-.561.064-.176.096-.416.096-.624v-2.096zM119.141 333.907c0-.864-.048-1.616-.064-2.353h1.809l.096.896h.032a2.248 2.248 0 0 1 1.905-1.024c1.489 0 2.081 1.185 2.081 2.929v5.026h-2.097v-4.898c0-.672-.16-1.296-.769-1.296-.352 0-.64.24-.784.704-.064.16-.112.416-.112.721v4.77h-2.097v-5.475zM128.214 336.213c.032 1.216.736 1.664 1.665 1.664.592 0 1.121-.128 1.489-.256l.288 1.505c-.544.208-1.36.352-2.161.352-2.129 0-3.297-1.408-3.297-3.857 0-2.625 1.36-4.193 3.137-4.193 1.681 0 2.657 1.328 2.657 3.697 0 .561-.016.864-.064 1.089h-3.714zm1.872-1.473c0-1.009-.256-1.793-.88-1.793-.688 0-.96 1.009-.977 1.793h1.857zM133.157 333.907c0-.784-.032-1.632-.064-2.353h1.825l.112 1.137h.048c.352-.833.977-1.265 1.553-1.265.208 0 .32 0 .448.032v2.08c-.128-.031-.272-.031-.448-.031-.448 0-1.041.304-1.281 1.12-.048.176-.08.448-.08.784v3.97h-2.113v-5.474z"/>
    </g>
    <g fill="#7F0E00">
        <path d="M219.495 344.473v14.015c0 3.168.96 4.128 2.048 4.128 1.216 0 2.08-.864 2.08-4.128v-14.015h4.191v13.279c0 5.535-2.08 8.543-6.239 8.543-4.512 0-6.271-3.104-6.271-8.512v-13.311h4.191zM235.623 344.473v21.566h-4.191v-21.566h4.191zM244.455 344.793c1.056-.257 2.592-.416 4.255-.416 2.72 0 4.608.64 5.984 1.92 1.856 1.663 2.816 4.512 2.816 8.703 0 4.352-1.12 7.455-3.008 9.119-1.44 1.408-3.584 2.08-6.592 2.08-1.312 0-2.624-.128-3.456-.225v-21.181zm4.191 17.918c.192.064.512.064.736.064 2.016 0 3.775-1.984 3.775-7.936 0-4.416-1.152-7.104-3.68-7.104-.288 0-.576 0-.832.096v14.88zM263.271 359.703c.064 2.433 1.472 3.328 3.328 3.328 1.184 0 2.24-.256 2.976-.512l.576 3.008c-1.088.416-2.72.704-4.32.704-4.256 0-6.592-2.816-6.592-7.712 0-5.247 2.72-8.384 6.272-8.384 3.359 0 5.312 2.656 5.312 7.392 0 1.12-.032 1.729-.128 2.176h-7.424zm3.744-2.943c0-2.016-.512-3.584-1.76-3.584-1.376 0-1.92 2.016-1.952 3.584h3.712zM276.103 350.393l1.184 6.976c.224 1.407.448 2.815.672 4.383h.064c.192-1.6.384-2.911.608-4.383l1.216-6.976h4.127l-4.191 15.646h-3.872l-4.255-15.646h4.447zM288.646 359.703c.064 2.433 1.472 3.328 3.328 3.328 1.184 0 2.24-.256 2.976-.512l.576 3.008c-1.088.416-2.72.704-4.32.704-4.256 0-6.592-2.816-6.592-7.712 0-5.247 2.72-8.384 6.272-8.384 3.359 0 5.312 2.656 5.312 7.392 0 1.12-.032 1.729-.128 2.176h-7.424zm3.745-2.943c0-2.016-.512-3.584-1.76-3.584-1.376 0-1.92 2.016-1.952 3.584h3.712zM298.566 343.896h4.192v22.143h-4.192v-22.143zM317.189 358.168c0 6.527-3.616 8.127-5.983 8.127-3.744 0-5.984-2.943-5.984-8.031 0-5.632 2.944-8.128 6.048-8.128 3.68 0 5.919 3.104 5.919 8.032zm-7.807 0c0 2.688.416 4.928 1.92 4.928 1.344 0 1.696-2.624 1.696-4.928 0-2.145-.352-4.864-1.76-4.864-1.536 0-1.856 2.719-1.856 4.864zM319.526 355.352c0-1.888-.064-3.487-.128-4.959h3.647l.224 1.791h.064c.641-1.279 1.824-2.048 3.264-2.048 3.456 0 4.863 3.712 4.863 8.063 0 5.568-2.463 8.096-5.087 8.096-1.28 0-2.144-.8-2.592-1.536h-.064v7.424h-4.191v-16.831zm4.192 4.96c0 .544.064 1.023.224 1.344.32.96.865 1.216 1.345 1.216 1.472 0 1.983-2.176 1.983-4.64 0-2.976-.703-4.575-1.951-4.575-.641 0-1.248.607-1.408 1.344-.16.32-.192.735-.192 1.12v4.191zM337.35 359.703c.064 2.433 1.473 3.328 3.328 3.328 1.184 0 2.24-.256 2.976-.512l.576 3.008c-1.088.416-2.72.704-4.319.704-4.256 0-6.592-2.816-6.592-7.712 0-5.247 2.72-8.384 6.271-8.384 3.359 0 5.312 2.656 5.312 7.392 0 1.12-.032 1.729-.128 2.176h-7.424zm3.744-2.943c0-2.016-.512-3.584-1.76-3.584-1.377 0-1.92 2.016-1.952 3.584h3.712zM347.238 355.096c0-1.567-.064-3.264-.129-4.703h3.648l.224 2.271h.097c.703-1.664 1.951-2.528 3.104-2.528.416 0 .64 0 .896.064v4.16c-.256-.064-.544-.064-.896-.064-.896 0-2.08.608-2.561 2.24-.096.352-.16.896-.16 1.567v7.936h-4.223v-10.943z"/>
    </g>
    <g fill="#999">
        <path d="M419.163 328.214l-.48 2.465h-2.032l2.336-10.788h2.514l2.097 10.788h-2.032l-.465-2.465h-1.938zm1.745-1.633l-.353-2.257a81.714 81.714 0 0 1-.353-2.449h-.048c-.112.721-.272 1.841-.384 2.465l-.4 2.241h1.538zM424.57 325.333c0-.945-.032-1.745-.064-2.481h1.824l.113.896h.031c.32-.641.912-1.024 1.633-1.024 1.729 0 2.434 1.856 2.434 4.033 0 2.785-1.233 4.05-2.546 4.05-.64 0-1.072-.4-1.296-.769h-.032v3.714h-2.097v-8.419zm2.097 2.48c0 .272.032.513.112.672.16.48.432.608.672.608.736 0 .992-1.088.992-2.32 0-1.489-.352-2.289-.977-2.289-.32 0-.624.304-.704.672-.08.16-.096.368-.096.561v2.096zM431.722 325.333c0-.945-.032-1.745-.063-2.481h1.824l.112.896h.032c.32-.641.912-1.024 1.633-1.024 1.729 0 2.433 1.856 2.433 4.033 0 2.785-1.233 4.05-2.546 4.05-.64 0-1.072-.4-1.296-.769h-.032v3.714h-2.097v-8.419zm2.096 2.48c0 .272.032.513.112.672.16.48.433.608.673.608.736 0 .992-1.088.992-2.32 0-1.489-.353-2.289-.977-2.289-.32 0-.625.304-.705.672-.08.16-.096.368-.096.561v2.096zM438.89 319.603h2.097v11.076h-2.097v-11.076zM444.586 320.771c.016.673-.464 1.137-1.104 1.137-.576 0-1.056-.464-1.04-1.137-.016-.704.496-1.137 1.072-1.137.608 0 1.072.432 1.072 1.137zm-2.097 9.908v-7.827h2.097v7.827h-2.097zM450.395 330.551c-.208.096-.736.224-1.328.224-1.984 0-3.281-1.376-3.281-3.938 0-2.417 1.424-4.098 3.586-4.098.496 0 .943.112 1.152.208l-.272 1.649a2.209 2.209 0 0 0-.784-.145c-1.009 0-1.602.96-1.602 2.321 0 1.424.593 2.289 1.569 2.289.304 0 .56-.049.784-.16l.176 1.65zM454.971 330.679l-.112-.769h-.032a2.045 2.045 0 0 1-1.729.896c-1.185 0-2.064-.992-2.064-2.385 0-2.049 1.809-2.897 3.585-2.913v-.176c0-.608-.368-1.057-1.104-1.057a2.93 2.93 0 0 0-1.601.448l-.384-1.409c.432-.256 1.344-.592 2.433-.592 2.385 0 2.769 1.664 2.769 3.249v2.913c0 .624.033 1.265.129 1.793h-1.89zm-.289-3.81c-.703.016-1.664.24-1.664 1.328 0 .785.432 1.073.752 1.073.336 0 .721-.208.865-.673.031-.112.047-.24.047-.368v-1.36zM460.521 320.738v2.113h1.537v1.488h-1.537v3.569c0 .913.385 1.137.801 1.137.208 0 .368-.016.545-.048l.016 1.633c-.288.08-.721.144-1.281.144-.607 0-1.136-.144-1.504-.496-.432-.416-.672-1.008-.672-2.24v-3.698h-.929v-1.488h.929v-1.616l2.095-.498zM465.13 320.771c.017.673-.464 1.137-1.104 1.137-.576 0-1.057-.464-1.04-1.137-.017-.704.496-1.137 1.072-1.137.608 0 1.072.432 1.072 1.137zm-2.097 9.908v-7.827h2.097v7.827h-2.097zM472.315 326.741c0 3.266-1.809 4.065-2.993 4.065-1.873 0-2.993-1.473-2.993-4.018 0-2.817 1.473-4.065 3.024-4.065 1.842.001 2.962 1.553 2.962 4.018zm-3.905 0c0 1.345.207 2.465.96 2.465.673 0 .849-1.312.849-2.465 0-1.072-.176-2.433-.881-2.433-.768.001-.928 1.361-.928 2.433zM473.497 325.204c0-.864-.048-1.616-.063-2.353h1.809l.096.896h.031a2.249 2.249 0 0 1 1.905-1.024c1.489 0 2.081 1.185 2.081 2.929v5.026h-2.097v-4.898c0-.672-.16-1.296-.769-1.296-.352 0-.641.24-.784.704-.063.16-.112.416-.112.721v4.77h-2.097v-5.475zM483.561 320.051c.529-.129 1.297-.208 2.129-.208 1.361 0 2.306.319 2.994.96.928.832 1.408 2.257 1.408 4.354 0 2.177-.561 3.729-1.504 4.562-.721.704-1.793 1.04-3.298 1.04-.656 0-1.312-.064-1.729-.112v-10.596zm2.097 8.963c.096.032.256.032.368.032 1.009 0 1.889-.992 1.889-3.97 0-2.209-.576-3.553-1.841-3.553-.145 0-.288 0-.416.048v7.443zM492.97 327.51c.032 1.216.736 1.664 1.665 1.664.592 0 1.12-.128 1.488-.256l.288 1.505c-.544.208-1.36.352-2.161.352-2.129 0-3.297-1.408-3.297-3.857 0-2.625 1.36-4.193 3.137-4.193 1.682 0 2.657 1.328 2.657 3.697 0 .561-.016.864-.063 1.089h-3.714zm1.873-1.473c0-1.009-.257-1.793-.88-1.793-.689 0-.961 1.009-.977 1.793h1.857zM499.386 322.852l.592 3.489c.112.704.224 1.409.337 2.193h.031c.096-.801.192-1.457.305-2.193l.607-3.489h2.065l-2.097 7.827h-1.938l-2.129-7.827h2.227zM505.658 327.51c.031 1.216.736 1.664 1.664 1.664a4.61 4.61 0 0 0 1.488-.256l.289 1.505c-.545.208-1.361.352-2.161.352-2.129 0-3.298-1.408-3.298-3.857 0-2.625 1.361-4.193 3.138-4.193 1.681 0 2.657 1.328 2.657 3.697 0 .561-.016.864-.064 1.089h-3.713zm1.872-1.473c0-1.009-.256-1.793-.88-1.793-.688 0-.961 1.009-.977 1.793h1.857zM510.616 319.603h2.097v11.076h-2.097v-11.076zM519.93 326.741c0 3.266-1.809 4.065-2.992 4.065-1.873 0-2.994-1.473-2.994-4.018 0-2.817 1.473-4.065 3.025-4.065 1.841.001 2.961 1.553 2.961 4.018zm-3.906 0c0 1.345.208 2.465.96 2.465.673 0 .849-1.312.849-2.465 0-1.072-.176-2.433-.88-2.433-.768.001-.929 1.361-.929 2.433zM521.096 325.333c0-.945-.031-1.745-.063-2.481h1.825l.111.896h.032c.32-.641.913-1.024 1.633-1.024 1.729 0 2.433 1.856 2.433 4.033 0 2.785-1.232 4.05-2.545 4.05-.641 0-1.072-.4-1.297-.769h-.031v3.714h-2.098v-8.419zm2.097 2.48c0 .272.031.513.111.672.16.48.433.608.673.608.736 0 .992-1.088.992-2.32 0-1.489-.353-2.289-.976-2.289-.32 0-.625.304-.705.672-.08.16-.096.368-.096.561v2.096zM530.008 327.51c.033 1.216.736 1.664 1.665 1.664.593 0 1.12-.128 1.489-.256l.287 1.505c-.544.208-1.359.352-2.16.352-2.129 0-3.297-1.408-3.297-3.857 0-2.625 1.359-4.193 3.137-4.193 1.681 0 2.656 1.328 2.656 3.697 0 .561-.016.864-.063 1.089h-3.714zm1.873-1.473c0-1.009-.256-1.793-.88-1.793-.688 0-.96 1.009-.977 1.793h1.857zM534.951 325.204c0-.784-.031-1.632-.063-2.353h1.825l.111 1.137h.049c.352-.833.977-1.265 1.553-1.265.207 0 .319 0 .447.032v2.08c-.128-.031-.271-.031-.447-.031-.449 0-1.041.304-1.281 1.12-.048.176-.08.448-.08.784v3.97h-2.113v-5.474z"/>
    </g>
    <g fill="#999">
        <path d="M62.933 34.258v7.011c0 1.584.48 2.064 1.024 2.064.608 0 1.04-.432 1.04-2.064v-7.011h2.097V40.9c0 2.769-1.041 4.273-3.122 4.273-2.257 0-3.137-1.553-3.137-4.258v-6.658h2.098zM72.39 45.046l-.688-1.984a40.105 40.105 0 0 1-.576-1.921h-.032c-.176.688-.352 1.344-.512 1.952l-.576 1.953h-2.081l2.017-5.522-1.937-5.266h2.193l.624 2.001c.176.56.32 1.12.496 1.729h.032c.176-.656.304-1.169.448-1.761l.544-1.969h2.097l-2.017 5.362 2.129 5.426H72.39zM77.956 34.418c.528-.129 1.297-.208 2.129-.208 1.361 0 2.305.319 2.993.96.929.832 1.409 2.257 1.409 4.354 0 2.177-.56 3.729-1.504 4.562-.721.704-1.793 1.04-3.297 1.04-.656 0-1.312-.064-1.729-.112V34.418zm2.097 8.963c.096.032.256.032.368.032 1.008 0 1.889-.992 1.889-3.97 0-2.209-.576-3.553-1.841-3.553-.144 0-.288 0-.416.048v7.443zM87.365 41.877c.032 1.216.736 1.664 1.665 1.664.592 0 1.121-.128 1.489-.256l.288 1.505c-.544.208-1.36.352-2.161.352-2.129 0-3.297-1.408-3.297-3.857 0-2.625 1.36-4.193 3.137-4.193 1.681 0 2.657 1.328 2.657 3.697 0 .561-.016.864-.064 1.089h-3.714zm1.873-1.473c0-1.009-.256-1.793-.88-1.793-.688 0-.96 1.009-.977 1.793h1.857zM92.26 43.157c.304.192.88.416 1.409.416.544 0 .848-.24.848-.704 0-.4-.224-.656-.913-1.057-1.28-.72-1.584-1.536-1.584-2.257 0-1.408 1.008-2.465 2.577-2.465.656 0 1.168.16 1.584.352l-.368 1.537c-.304-.176-.672-.32-1.088-.32-.528 0-.784.32-.784.673 0 .352.176.544.912.976 1.153.656 1.585 1.473 1.585 2.369 0 1.601-1.153 2.465-2.769 2.465-.656 0-1.425-.176-1.793-.448l.384-1.537zM99.604 35.138c.016.673-.464 1.137-1.104 1.137-.576 0-1.056-.464-1.04-1.137-.016-.704.496-1.137 1.072-1.137.608 0 1.072.433 1.072 1.137zm-2.097 9.908v-7.827h2.097v7.827h-2.097zM106.854 37.219c-.032.704-.08 1.536-.08 2.481v4.466c0 1.681-.304 2.608-.944 3.217-.576.544-1.393.864-2.545.864-.72 0-1.393-.128-1.953-.368l.384-1.616c.4.176.896.336 1.505.336 1.056 0 1.473-.704 1.473-1.905v-.479h-.032c-.272.496-.816.784-1.409.784-1.761 0-2.449-1.921-2.449-3.794 0-2.608 1.184-4.113 2.641-4.113.624 0 1.136.32 1.44.912h.032l.112-.784h1.825zm-2.161 2.849c0-.209-.032-.417-.08-.577-.096-.336-.32-.64-.672-.64-.752 0-1.057 1.024-1.057 2.305 0 1.457.417 2.193 1.008 2.193.272 0 .544-.145.705-.561.064-.176.096-.416.096-.624v-2.096zM108.227 39.571c0-.864-.048-1.616-.064-2.353h1.809l.096.896h.032a2.248 2.248 0 0 1 1.905-1.024c1.489 0 2.081 1.185 2.081 2.929v5.026h-2.097v-4.898c0-.672-.16-1.296-.769-1.296-.352 0-.64.24-.784.704-.064.16-.112.416-.112.721v4.77h-2.097v-5.475zM117.3 41.877c.032 1.216.736 1.664 1.665 1.664.592 0 1.121-.128 1.489-.256l.288 1.505c-.544.208-1.36.352-2.161.352-2.129 0-3.297-1.408-3.297-3.857 0-2.625 1.36-4.193 3.137-4.193 1.681 0 2.657 1.328 2.657 3.697 0 .561-.016.864-.064 1.089H117.3zm1.872-1.473c0-1.009-.256-1.793-.88-1.793-.688 0-.96 1.009-.977 1.793h1.857zM122.243 39.571c0-.784-.032-1.632-.064-2.353h1.825l.112 1.137h.048c.352-.833.977-1.265 1.553-1.265.208 0 .32 0 .448.032v2.08c-.128-.031-.272-.031-.448-.031-.448 0-1.041.304-1.281 1.12-.048.176-.08.448-.08.784v3.97h-2.113v-5.474z"/>
    </g>
    <circle fill="#076400" cx="106.058" cy="188.582" r="38.247"/>
    <g fill="#FFF">
        <path d="M82.73 176.928c.587-.096 1.463-.168 2.435-.168 1.199 0 2.038.18 2.614.636.479.384.743.947.743 1.691 0 1.032-.731 1.739-1.427 1.991v.036c.563.228.875.768 1.079 1.511.252.912.504 1.967.66 2.279h-1.871c-.132-.228-.324-.888-.563-1.883-.216-1.008-.564-1.284-1.308-1.295h-.552v3.178h-1.81v-7.976zm1.811 3.478h.72c.911 0 1.451-.456 1.451-1.163 0-.744-.504-1.116-1.344-1.127a4.56 4.56 0 0 0-.827.06v2.23zM91.189 182.553c.06.755.804 1.115 1.655 1.115.624 0 1.127-.084 1.619-.24l.239 1.235c-.6.24-1.331.36-2.122.36-1.991 0-3.131-1.151-3.131-2.986 0-1.487.924-3.13 2.963-3.13 1.895 0 2.614 1.475 2.614 2.926 0 .312-.036.588-.06.72h-3.777zm2.147-1.248c0-.444-.191-1.187-1.031-1.187-.768 0-1.079.695-1.127 1.187h2.158zM96.11 183.308c.336.204 1.031.444 1.571.444.552 0 .779-.192.779-.492s-.18-.444-.863-.672c-1.212-.408-1.68-1.067-1.667-1.763 0-1.091.936-1.919 2.387-1.919.684 0 1.295.156 1.654.336l-.323 1.259c-.264-.144-.768-.336-1.271-.336-.443 0-.695.18-.695.479 0 .276.228.42.947.672 1.115.384 1.583.947 1.595 1.811 0 1.091-.863 1.895-2.542 1.895-.768 0-1.451-.168-1.896-.408l.324-1.306zM102.733 182.553c.06.755.804 1.115 1.655 1.115.623 0 1.127-.084 1.619-.24l.239 1.235c-.6.24-1.331.36-2.122.36-1.991 0-3.131-1.151-3.131-2.986 0-1.487.924-3.13 2.963-3.13 1.895 0 2.614 1.475 2.614 2.926 0 .312-.036.588-.06.72h-3.777zm2.147-1.248c0-.444-.191-1.187-1.031-1.187-.768 0-1.079.695-1.127 1.187h2.158zM111 184.903l-.107-.588h-.036c-.384.468-.983.72-1.679.72-1.188 0-1.896-.863-1.896-1.799 0-1.523 1.367-2.255 3.442-2.243v-.084c0-.312-.168-.756-1.067-.756-.6 0-1.235.204-1.619.444l-.336-1.175c.408-.228 1.211-.516 2.278-.516 1.955 0 2.579 1.151 2.579 2.53v2.039c0 .563.023 1.104.084 1.427H111zm-.216-2.77c-.959-.012-1.703.216-1.703.923 0 .468.312.696.72.696.456 0 .828-.3.947-.671.024-.096.036-.204.036-.312v-.636zM114.002 180.969c0-.863-.023-1.427-.048-1.931h1.571l.06 1.08h.048c.3-.852 1.02-1.211 1.584-1.211.167 0 .251 0 .384.024v1.715a2.624 2.624 0 0 0-.492-.048c-.672 0-1.127.36-1.247.923a2.15 2.15 0 0 0-.036.408v2.974h-1.823v-3.934zM122.867 184.759c-.323.144-.936.264-1.631.264-1.895 0-3.106-1.151-3.106-2.999 0-1.715 1.176-3.118 3.358-3.118.479 0 1.008.084 1.392.228l-.288 1.355c-.216-.096-.54-.18-1.02-.18-.959 0-1.583.684-1.571 1.643 0 1.079.72 1.643 1.607 1.643.432 0 .768-.072 1.043-.18l.216 1.344zM123.878 176.388h1.823v3.346h.023a2.2 2.2 0 0 1 .72-.6c.265-.144.612-.228.948-.228 1.163 0 2.051.803 2.051 2.566v3.43h-1.823v-3.226c0-.768-.264-1.295-.947-1.295-.48 0-.78.312-.912.636a1.16 1.16 0 0 0-.06.408v3.478h-1.823v-8.515zM78.144 190.257c.38-.08.979-.14 1.589-.14.869 0 1.43.15 1.849.49.351.26.561.66.561 1.189 0 .65-.431 1.22-1.14 1.479v.02c.64.16 1.389.689 1.389 1.689 0 .58-.229 1.02-.569 1.349-.47.43-1.229.63-2.329.63-.6 0-1.059-.04-1.349-.08v-6.626zm.869 2.759h.79c.919 0 1.459-.48 1.459-1.129 0-.79-.6-1.1-1.479-1.1-.399 0-.63.03-.77.06v2.169zm0 3.228c.17.03.42.04.729.04.899 0 1.729-.33 1.729-1.309 0-.92-.79-1.299-1.739-1.299h-.72v2.568zM87.581 195.584c0 .5.01.939.04 1.319h-.779l-.05-.79h-.021c-.229.39-.739.899-1.599.899-.76 0-1.67-.42-1.67-2.119v-2.829h.88v2.679c0 .919.28 1.539 1.079 1.539.59 0 1-.41 1.16-.8.05-.13.079-.29.079-.45v-2.968h.88v3.52zM88.923 196.004c.26.17.72.35 1.159.35.64 0 .94-.32.94-.72 0-.419-.25-.649-.9-.889-.869-.31-1.279-.79-1.279-1.369 0-.78.63-1.419 1.67-1.419.489 0 .919.14 1.188.3l-.22.64a1.877 1.877 0 0 0-.989-.28c-.52 0-.81.3-.81.66 0 .4.29.58.92.819.839.32 1.269.74 1.269 1.459 0 .85-.659 1.449-1.809 1.449-.529 0-1.02-.13-1.359-.33l.22-.67zM93.982 190.707c.01.3-.21.54-.56.54a.522.522 0 0 1-.529-.54c0-.31.229-.549.549-.549.33-.001.54.239.54.549zm-.979 6.196v-4.837h.88v4.837h-.88zM95.343 193.375c0-.5-.01-.91-.04-1.31h.779l.051.8h.02c.24-.46.8-.91 1.6-.91.669 0 1.709.4 1.709 2.059v2.888h-.88v-2.789c0-.779-.29-1.429-1.119-1.429-.58 0-1.029.41-1.18.899-.04.11-.06.26-.06.41v2.908h-.88v-3.526zM101.383 194.645c.02 1.189.779 1.679 1.658 1.679.63 0 1.01-.11 1.34-.25l.149.63c-.31.14-.839.3-1.608.3-1.489 0-2.379-.979-2.379-2.439 0-1.459.859-2.608 2.269-2.608 1.579 0 1.999 1.389 1.999 2.279 0 .18-.02.32-.03.41h-3.398zm2.578-.63c.01-.56-.229-1.43-1.22-1.43-.889 0-1.279.82-1.349 1.43h2.569zM105.782 196.004c.26.17.72.35 1.159.35.64 0 .94-.32.94-.72 0-.419-.25-.649-.9-.889-.869-.31-1.279-.79-1.279-1.369 0-.78.63-1.419 1.67-1.419.489 0 .919.14 1.188.3l-.22.64a1.877 1.877 0 0 0-.989-.28c-.52 0-.81.3-.81.66 0 .4.29.58.92.819.839.32 1.269.74 1.269 1.459 0 .85-.659 1.449-1.809 1.449-.529 0-1.02-.13-1.359-.33l.22-.67zM109.742 196.004c.26.17.72.35 1.159.35.64 0 .94-.32.94-.72 0-.419-.25-.649-.9-.889-.869-.31-1.279-.79-1.279-1.369 0-.78.63-1.419 1.67-1.419.489 0 .919.14 1.188.3l-.22.64a1.877 1.877 0 0 0-.989-.28c-.52 0-.81.3-.81.66 0 .4.29.58.92.819.839.32 1.269.74 1.269 1.459 0 .85-.659 1.449-1.809 1.449-.529 0-1.02-.13-1.359-.33l.22-.67zM120.68 196.684c-.319.16-.959.32-1.779.32-1.898 0-3.328-1.2-3.328-3.408 0-2.109 1.43-3.538 3.519-3.538.84 0 1.369.18 1.599.3l-.209.709c-.33-.16-.8-.28-1.359-.28-1.579 0-2.629 1.009-2.629 2.778 0 1.649.949 2.708 2.589 2.708.529 0 1.069-.11 1.419-.28l.178.691zM124.351 196.903l-.07-.61h-.029c-.271.38-.79.72-1.479.72-.979 0-1.479-.689-1.479-1.389 0-1.169 1.04-1.809 2.908-1.799v-.1c0-.4-.109-1.12-1.099-1.12-.45 0-.92.14-1.26.36l-.2-.58c.4-.26.979-.43 1.59-.43 1.479 0 1.839 1.009 1.839 1.979v1.809c0 .419.02.83.08 1.159h-.801zm-.13-2.468c-.96-.02-2.049.15-2.049 1.089 0 .57.38.84.829.84.63 0 1.029-.4 1.17-.81a.95.95 0 0 0 .05-.28v-.839zM126.372 196.004c.26.17.72.35 1.159.35.64 0 .94-.32.94-.72 0-.419-.25-.649-.9-.889-.869-.31-1.279-.79-1.279-1.369 0-.78.63-1.419 1.67-1.419.489 0 .919.14 1.188.3l-.22.64a1.877 1.877 0 0 0-.989-.28c-.52 0-.81.3-.81.66 0 .4.29.58.92.819.839.32 1.269.74 1.269 1.459 0 .85-.659 1.449-1.809 1.449-.529 0-1.02-.13-1.359-.33l.22-.67zM130.942 194.645c.02 1.189.779 1.679 1.659 1.679.629 0 1.009-.11 1.339-.25l.149.63c-.31.14-.839.3-1.608.3-1.489 0-2.379-.979-2.379-2.439 0-1.459.859-2.608 2.269-2.608 1.579 0 1.999 1.389 1.999 2.279 0 .18-.02.32-.03.41h-3.398zm2.579-.63c.01-.56-.229-1.43-1.22-1.43-.889 0-1.279.82-1.349 1.43h2.569z"/>
    </g>
    <circle fill="#076400" cx="286.059" cy="188.582" r="38.247"/>
    <g fill="#FFF">
        <path d="M253.333 176.693v4.653c0 1.391.528 2.099 1.464 2.099.959 0 1.486-.672 1.486-2.099v-4.653h1.823v4.533c0 2.495-1.259 3.682-3.37 3.682-2.039 0-3.238-1.127-3.238-3.706v-4.509h1.835zM259.166 183.181c.336.204 1.031.444 1.571.444.552 0 .779-.192.779-.492s-.18-.444-.863-.672c-1.212-.408-1.68-1.067-1.667-1.763 0-1.091.936-1.919 2.387-1.919.684 0 1.295.156 1.654.336l-.323 1.259c-.264-.144-.768-.336-1.271-.336-.443 0-.695.18-.695.479 0 .276.228.42.947.672 1.115.384 1.583.947 1.595 1.811 0 1.091-.863 1.895-2.542 1.895-.768 0-1.451-.168-1.896-.408l.324-1.306zM265.489 182.426c.06.755.804 1.115 1.655 1.115.623 0 1.127-.084 1.619-.24l.239 1.235c-.6.24-1.331.36-2.122.36-1.991 0-3.131-1.151-3.131-2.986 0-1.487.924-3.13 2.963-3.13 1.895 0 2.614 1.475 2.614 2.926 0 .312-.036.588-.06.72h-3.777zm2.146-1.248c0-.444-.191-1.187-1.031-1.187-.768 0-1.079.695-1.127 1.187h2.158zM270.121 180.842c0-.863-.023-1.427-.048-1.931h1.571l.06 1.08h.048c.3-.852 1.02-1.211 1.584-1.211.167 0 .251 0 .384.024v1.715a2.624 2.624 0 0 0-.492-.048c-.672 0-1.127.36-1.247.923a2.15 2.15 0 0 0-.036.408v2.974h-1.823v-3.934zM278.4 176.693v8.083h-1.835v-8.083h1.835zM279.661 180.783c0-.732-.023-1.355-.048-1.871h1.583l.084.804h.036c.24-.372.84-.936 1.811-.936 1.2 0 2.1.792 2.1 2.519v3.478h-1.823v-3.25c0-.756-.264-1.271-.924-1.271-.504 0-.804.348-.923.684a1.232 1.232 0 0 0-.072.456v3.382h-1.823v-3.995zM288.36 177.232v1.679h1.308v1.343h-1.308v2.123c0 .708.168 1.032.72 1.032.228 0 .407-.024.539-.048l.013 1.379c-.24.096-.672.156-1.188.156-.588 0-1.079-.204-1.367-.504-.336-.348-.504-.912-.504-1.739v-2.398h-.779v-1.343h.779v-1.271l1.787-.409zM291.768 182.426c.06.755.804 1.115 1.655 1.115.623 0 1.127-.084 1.619-.24l.239 1.235c-.6.24-1.331.36-2.122.36-1.991 0-3.131-1.151-3.131-2.986 0-1.487.924-3.13 2.963-3.13 1.895 0 2.614 1.475 2.614 2.926 0 .312-.036.588-.06.72h-3.777zm2.147-1.248c0-.444-.191-1.187-1.031-1.187-.768 0-1.079.695-1.127 1.187h2.158zM296.401 180.842c0-.863-.023-1.427-.048-1.931h1.571l.06 1.08h.048c.3-.852 1.02-1.211 1.584-1.211.167 0 .251 0 .384.024v1.715a2.624 2.624 0 0 0-.492-.048c-.672 0-1.127.36-1.247.923a2.15 2.15 0 0 0-.036.408v2.974h-1.823v-3.934zM301.189 184.776v-4.521h-.768v-1.343h.768v-.228c0-.708.216-1.487.743-1.967.456-.432 1.092-.588 1.619-.588.408 0 .72.048.972.12l-.072 1.403a1.966 1.966 0 0 0-.587-.084c-.6 0-.852.468-.852 1.043v.3h1.175v1.343h-1.163v4.521h-1.835zM308.111 184.776l-.107-.588h-.036c-.384.468-.983.72-1.679.72-1.188 0-1.896-.863-1.896-1.799 0-1.523 1.367-2.255 3.442-2.243v-.084c0-.312-.168-.756-1.067-.756-.6 0-1.235.204-1.619.444l-.336-1.175c.408-.228 1.211-.516 2.278-.516 1.955 0 2.579 1.151 2.579 2.53v2.039c0 .563.023 1.104.084 1.427h-1.643zm-.216-2.77c-.959-.012-1.703.216-1.703.923 0 .468.312.696.72.696.456 0 .828-.3.947-.671.024-.096.036-.204.036-.312v-.636zM315.214 184.632c-.323.144-.936.264-1.631.264-1.895 0-3.106-1.151-3.106-2.999 0-1.715 1.176-3.118 3.358-3.118.479 0 1.008.084 1.392.228l-.288 1.355c-.216-.096-.54-.18-1.02-.18-.959 0-1.583.684-1.571 1.643 0 1.079.72 1.643 1.607 1.643.432 0 .768-.072 1.043-.18l.216 1.344zM317.196 182.426c.06.755.804 1.115 1.655 1.115.623 0 1.127-.084 1.619-.24l.239 1.235c-.6.24-1.331.36-2.122.36-1.991 0-3.131-1.151-3.131-2.986 0-1.487.924-3.13 2.963-3.13 1.895 0 2.614 1.475 2.614 2.926 0 .312-.036.588-.059.72h-3.778zm2.146-1.248c0-.444-.191-1.187-1.031-1.187-.768 0-1.079.695-1.127 1.187h2.158zM259.988 190.04v2.818h3.259v-2.818h.879v6.736h-.879v-3.158h-3.259v3.158h-.869v-6.736h.869zM266.917 190.78h-2.049v-.74h4.987v.74h-2.06v5.997h-.879v-5.997zM276.285 193.818c-.05-.939-.11-2.069-.1-2.908h-.03c-.229.79-.51 1.629-.85 2.559l-1.189 3.268h-.659l-1.09-3.208c-.319-.95-.59-1.819-.779-2.619h-.021c-.02.839-.069 1.969-.13 2.979l-.18 2.888h-.829l.47-6.736h1.109l1.149 3.258c.279.83.51 1.569.68 2.269h.029c.17-.68.41-1.419.71-2.269l1.199-3.258h1.109l.42 6.736h-.85l-.168-2.959zM278.648 190.04h.869v6.007h2.879v.729h-3.748v-6.736zM282.598 197.176l2.788-7.246h.68l-2.799 7.246h-.669zM291.504 196.557c-.319.16-.959.32-1.779.32-1.898 0-3.328-1.2-3.328-3.408 0-2.109 1.43-3.538 3.519-3.538.84 0 1.369.18 1.599.3l-.209.709c-.33-.16-.8-.28-1.359-.28-1.579 0-2.629 1.009-2.629 2.778 0 1.649.949 2.708 2.589 2.708.529 0 1.069-.11 1.419-.28l.178.691zM292.477 195.717c.39.24.96.44 1.56.44.889 0 1.409-.47 1.409-1.149 0-.63-.36-.989-1.27-1.339-1.1-.39-1.779-.959-1.779-1.909 0-1.05.87-1.829 2.179-1.829.689 0 1.189.16 1.489.33l-.239.71c-.221-.12-.67-.32-1.279-.32-.92 0-1.27.549-1.27 1.009 0 .63.409.939 1.339 1.299 1.14.44 1.719.989 1.719 1.979 0 1.04-.77 1.939-2.358 1.939-.649 0-1.359-.19-1.719-.43l.219-.73zM297.407 195.717c.39.24.96.44 1.56.44.889 0 1.409-.47 1.409-1.149 0-.63-.36-.989-1.27-1.339-1.1-.39-1.779-.959-1.779-1.909 0-1.05.87-1.829 2.179-1.829.689 0 1.189.16 1.489.33l-.239.71c-.221-.12-.67-.32-1.279-.32-.92 0-1.27.549-1.27 1.009 0 .63.409.939 1.339 1.299 1.14.44 1.719.989 1.719 1.979 0 1.04-.77 1.939-2.358 1.939-.649 0-1.359-.19-1.719-.43l.219-.73zM301.687 197.176l2.788-7.246h.68l-2.799 7.246h-.669zM307.265 190.04h.87v4.507c0 1.789-.88 2.339-2.039 2.339-.32 0-.71-.07-.93-.16l.13-.71c.18.07.439.13.729.13.779 0 1.239-.35 1.239-1.669v-4.437zM309.466 195.717c.39.24.959.44 1.56.44.889 0 1.409-.47 1.409-1.149 0-.63-.36-.989-1.27-1.339-1.1-.39-1.779-.959-1.779-1.909 0-1.05.87-1.829 2.179-1.829.689 0 1.189.16 1.489.33l-.239.71c-.221-.12-.67-.32-1.279-.32-.92 0-1.27.549-1.27 1.009 0 .63.409.939 1.339 1.299 1.14.44 1.719.989 1.719 1.979 0 1.04-.77 1.939-2.358 1.939-.649 0-1.359-.19-1.719-.43l.219-.73z"/>
    </g>
    <circle fill="#076400" cx="374.559" cy="188.582" r="38.247"/>
    <g fill="#FFF">
        <path d="M350.625 176.256h4.939v1.499h-3.105v1.847h2.902v1.487h-2.902v3.25h-1.834v-8.083zM356.348 180.406c0-.863-.023-1.427-.047-1.931h1.57l.061 1.08h.047c.301-.852 1.02-1.211 1.584-1.211.168 0 .252 0 .385.024v1.715a2.633 2.633 0 0 0-.492-.048c-.672 0-1.127.36-1.248.923a2.24 2.24 0 0 0-.035.408v2.974h-1.824v-3.934zM366.305 181.341c0 2.147-1.523 3.13-3.094 3.13-1.715 0-3.035-1.127-3.035-3.022 0-1.895 1.248-3.106 3.131-3.106 1.798 0 2.998 1.236 2.998 2.998zm-4.246.06c0 1.007.42 1.763 1.201 1.763.707 0 1.162-.708 1.162-1.763 0-.875-.336-1.763-1.162-1.763-.877 0-1.201.9-1.201 1.763zM367.135 180.346c0-.732-.023-1.355-.047-1.871h1.582l.084.804h.037c.24-.372.84-.936 1.811-.936 1.199 0 2.1.792 2.1 2.519v3.478h-1.824v-3.25c0-.756-.264-1.271-.924-1.271-.504 0-.803.348-.922.684a1.232 1.232 0 0 0-.072.456v3.382h-1.824v-3.995zM375.834 176.796v1.679h1.309v1.343h-1.309v2.123c0 .708.168 1.032.721 1.032.227 0 .406-.024.539-.048l.012 1.379c-.24.096-.672.156-1.188.156-.588 0-1.078-.204-1.367-.504-.336-.348-.504-.912-.504-1.739v-2.398h-.779v-1.343h.779v-1.271l1.787-.409zM384.893 180.922h-2.973v1.919h3.322v1.499h-5.158v-8.083h4.99v1.499h-3.154v1.679h2.973v1.487zM386.133 180.346c0-.732-.023-1.355-.049-1.871h1.584l.084.804h.035c.24-.372.84-.936 1.811-.936 1.201 0 2.1.792 2.1 2.519v3.478h-1.822v-3.25c0-.756-.264-1.271-.924-1.271-.504 0-.805.348-.924.684a1.232 1.232 0 0 0-.072.456v3.382h-1.822v-3.995zM398.549 175.825v6.764c0 .66.023 1.355.049 1.751h-1.619l-.084-.864h-.025c-.371.66-1.078.996-1.834.996-1.393 0-2.508-1.187-2.508-3.01-.012-1.979 1.225-3.118 2.627-3.118.721 0 1.283.252 1.547.66h.025v-3.178h1.822zm-1.822 5.133c0-.096-.014-.228-.025-.324-.107-.492-.504-.899-1.066-.899-.828 0-1.26.744-1.26 1.667 0 .996.492 1.619 1.248 1.619.527 0 .947-.36 1.055-.875.035-.132.049-.264.049-.42v-.768zM348.398 189.693c.529-.08 1.158-.14 1.848-.14 1.25 0 2.139.29 2.729.839.6.55.949 1.329.949 2.419 0 1.099-.34 1.999-.969 2.618-.629.63-1.668.97-2.979.97-.619 0-1.139-.03-1.578-.08v-6.626zm.87 5.957c.219.04.539.05.879.05 1.859 0 2.869-1.04 2.869-2.858.01-1.589-.891-2.599-2.729-2.599-.449 0-.789.04-1.02.09v5.317zM357.707 196.34l-.07-.61h-.029c-.271.38-.791.72-1.48.72-.979 0-1.479-.689-1.479-1.389 0-1.169 1.039-1.809 2.908-1.799v-.1c0-.4-.109-1.12-1.1-1.12-.449 0-.92.14-1.26.36l-.199-.58c.4-.26.979-.43 1.59-.43 1.479 0 1.838 1.009 1.838 1.979v1.809c0 .419.02.83.08 1.159h-.799zm-.131-2.469c-.959-.02-2.049.15-2.049 1.089 0 .57.381.84.83.84.629 0 1.029-.4 1.17-.81a.948.948 0 0 0 .049-.28v-.839zM360.867 190.113v1.389h1.26v.67h-1.26v2.608c0 .6.17.939.66.939.23 0 .4-.03.51-.06l.039.66c-.17.07-.439.12-.779.12-.41 0-.738-.13-.949-.37-.25-.26-.34-.689-.34-1.259v-2.638h-.75v-.67h.75v-1.159l.859-.23zM365.797 196.34l-.07-.61h-.029c-.271.38-.791.72-1.48.72-.979 0-1.479-.689-1.479-1.389 0-1.169 1.039-1.809 2.908-1.799v-.1c0-.4-.109-1.12-1.1-1.12-.449 0-.92.14-1.26.36l-.199-.58c.4-.26.979-.43 1.59-.43 1.479 0 1.838 1.009 1.838 1.979v1.809c0 .419.02.83.08 1.159h-.799zm-.131-2.469c-.959-.02-2.049.15-2.049 1.089 0 .57.381.84.83.84.629 0 1.029-.4 1.17-.81a.948.948 0 0 0 .049-.28v-.839zM375.766 193.381c-.051-.939-.111-2.069-.1-2.908h-.031c-.229.79-.51 1.629-.85 2.559l-1.189 3.268h-.658l-1.09-3.208c-.32-.95-.59-1.819-.779-2.619h-.021a88.14 88.14 0 0 1-.129 2.979l-.18 2.888h-.83l.471-6.736h1.109l1.148 3.258c.279.83.51 1.569.68 2.269h.029c.17-.68.41-1.419.711-2.269l1.199-3.258h1.109l.42 6.736h-.85l-.169-2.959zM382.535 193.881c0 1.789-1.238 2.568-2.408 2.568-1.309 0-2.318-.959-2.318-2.489 0-1.619 1.059-2.568 2.398-2.568 1.389.001 2.328 1.01 2.328 2.489zm-3.838.05c0 1.06.609 1.859 1.469 1.859.84 0 1.471-.79 1.471-1.879 0-.819-.41-1.859-1.449-1.859-1.042 0-1.491.96-1.491 1.879zM387.826 189.244v5.847c0 .43.01.92.039 1.25h-.789l-.039-.839h-.021c-.27.54-.859.949-1.648.949-1.17 0-2.068-.989-2.068-2.458-.01-1.609.988-2.599 2.168-2.599.74 0 1.24.35 1.459.74h.02v-2.889h.879zm-.881 4.227c0-.11-.01-.26-.039-.37-.131-.56-.609-1.02-1.27-1.02-.91 0-1.449.8-1.449 1.869 0 .979.48 1.789 1.43 1.789.59 0 1.129-.39 1.289-1.049.029-.12.039-.24.039-.38v-.839zM389.777 194.081c.02 1.189.779 1.679 1.66 1.679.629 0 1.008-.11 1.338-.25l.15.63c-.311.14-.84.3-1.609.3-1.488 0-2.379-.979-2.379-2.439 0-1.459.859-2.608 2.27-2.608 1.578 0 1.998 1.389 1.998 2.279 0 .18-.02.32-.029.41h-3.399zm2.578-.629c.01-.56-.229-1.43-1.219-1.43-.889 0-1.279.82-1.35 1.43h2.569zM394.297 189.244h.881v7.096h-.881v-7.096zM398.039 196.74l2.787-7.246h.68l-2.799 7.246h-.668zM350.656 204.221l-.699 2.119h-.898l2.289-6.736h1.049l2.299 6.736h-.93l-.721-2.119h-2.389zm2.209-.679l-.658-1.939c-.15-.44-.25-.84-.352-1.229h-.02c-.1.4-.209.81-.34 1.219l-.658 1.949h2.028zM355.627 203.012c0-.57-.01-1.06-.039-1.509h.77l.029.95h.041c.219-.65.748-1.06 1.338-1.06.102 0 .17.01.25.03v.83c-.09-.02-.18-.03-.299-.03-.619 0-1.061.47-1.18 1.129-.02.12-.039.26-.039.41v2.579h-.871v-3.329zM362.246 206.16c-.23.12-.74.28-1.391.28-1.459 0-2.408-.99-2.408-2.469 0-1.489 1.02-2.569 2.6-2.569.52 0 .979.13 1.219.25l-.199.68c-.211-.12-.541-.23-1.02-.23-1.109 0-1.709.82-1.709 1.829 0 1.12.719 1.809 1.678 1.809.5 0 .83-.13 1.08-.24l.15.66zM363.277 199.244h.879v3.019h.02c.141-.25.361-.47.631-.62.26-.15.568-.25.898-.25.65 0 1.689.4 1.689 2.069v2.878h-.879v-2.778c0-.78-.291-1.439-1.119-1.439-.57 0-1.02.4-1.18.879-.051.12-.061.25-.061.42v2.918h-.879v-7.096zM369.807 200.143c.01.3-.211.54-.561.54a.523.523 0 0 1-.529-.54c0-.31.23-.549.549-.549.33 0 .541.239.541.549zm-.981 6.197v-4.837h.881v4.837h-.881zM372.227 200.113v1.389h1.258v.67h-1.258v2.608c0 .6.17.939.658.939.23 0 .4-.03.51-.06l.041.66c-.17.07-.439.12-.779.12-.41 0-.74-.13-.949-.37-.25-.26-.34-.689-.34-1.259v-2.638h-.75v-.67h.75v-1.159l.859-.23zM374.906 204.081c.02 1.189.779 1.679 1.66 1.679.629 0 1.008-.11 1.338-.25l.15.63c-.311.14-.84.3-1.609.3-1.488 0-2.379-.979-2.379-2.439 0-1.459.859-2.608 2.27-2.608 1.578 0 1.998 1.389 1.998 2.279 0 .18-.02.32-.029.41h-3.399zm2.578-.629c.01-.56-.229-1.43-1.219-1.43-.889 0-1.279.82-1.35 1.43h2.569zM382.875 206.16c-.23.12-.74.28-1.391.28-1.459 0-2.408-.99-2.408-2.469 0-1.489 1.02-2.569 2.6-2.569.52 0 .979.13 1.219.25l-.199.68c-.211-.12-.541-.23-1.02-.23-1.109 0-1.709.82-1.709 1.829 0 1.12.719 1.809 1.678 1.809.5 0 .83-.13 1.08-.24l.15.66zM385.096 200.113v1.389h1.26v.67h-1.26v2.608c0 .6.17.939.66.939.23 0 .4-.03.51-.06l.039.66c-.17.07-.439.12-.779.12-.41 0-.738-.13-.949-.37-.25-.26-.34-.689-.34-1.259v-2.638h-.75v-.67h.75v-1.159l.859-.23zM391.395 205.021c0 .5.01.939.039 1.319h-.779l-.049-.79h-.021c-.229.39-.738.899-1.598.899-.76 0-1.67-.42-1.67-2.119v-2.829h.879v2.679c0 .919.281 1.539 1.08 1.539.59 0 1-.41 1.16-.8.049-.13.078-.29.078-.45v-2.968h.881v3.52zM392.855 203.012c0-.57-.01-1.06-.039-1.509h.77l.029.95h.041c.219-.65.748-1.06 1.338-1.06.102 0 .17.01.25.03v.83c-.09-.02-.18-.03-.299-.03-.619 0-1.061.47-1.18 1.129-.02.12-.039.26-.039.41v2.579h-.871v-3.329zM396.516 204.081c.02 1.189.779 1.679 1.658 1.679.629 0 1.01-.11 1.34-.25l.148.63c-.309.14-.838.3-1.607.3-1.49 0-2.379-.979-2.379-2.439 0-1.459.859-2.608 2.268-2.608 1.58 0 2 1.389 2 2.279 0 .18-.02.32-.031.41h-3.397zm2.578-.629c.01-.56-.23-1.43-1.221-1.43-.889 0-1.279.82-1.348 1.43h2.569z"/>
    </g>
    <circle fill="#076400" cx="471.059" cy="188.264" r="38.247"/>
    <g fill="#FFF">
        <path d="M448.625 176.928c.479-.096 1.451-.168 2.361-.168 1.115 0 1.799.108 2.387.456.564.3.973.852.973 1.583 0 .719-.42 1.391-1.332 1.727v.024c.924.252 1.607.947 1.607 1.991 0 .731-.336 1.308-.84 1.715-.588.468-1.57.731-3.178.731-.9 0-1.572-.06-1.979-.12v-7.939zm1.811 3.094h.6c.959 0 1.475-.396 1.475-.996 0-.611-.467-.935-1.295-.935-.396 0-.623.024-.779.048v1.883zm0 3.586c.18.024.395.024.707.024.828 0 1.559-.312 1.559-1.163 0-.815-.73-1.14-1.643-1.14h-.623v2.279zM458.883 184.903l-.107-.588h-.037c-.383.468-.982.72-1.678.72-1.188 0-1.896-.863-1.896-1.799 0-1.523 1.367-2.255 3.443-2.243v-.084c0-.312-.168-.756-1.068-.756-.6 0-1.234.204-1.619.444l-.336-1.175c.408-.228 1.211-.516 2.279-.516 1.955 0 2.578 1.151 2.578 2.53v2.039c0 .563.023 1.104.084 1.427h-1.643zm-.217-2.77c-.959-.012-1.703.216-1.703.923 0 .468.312.696.721.696.455 0 .828-.3.947-.671.023-.096.035-.204.035-.312v-.636zM465.986 184.759c-.324.144-.936.264-1.631.264-1.895 0-3.107-1.151-3.107-2.999 0-1.715 1.176-3.118 3.359-3.118.479 0 1.008.084 1.391.228l-.287 1.355c-.217-.096-.541-.18-1.02-.18-.959 0-1.584.684-1.572 1.643 0 1.079.721 1.643 1.607 1.643.432 0 .768-.072 1.043-.18l.217 1.344zM468.52 181.509h.023c.133-.24.275-.48.42-.708l1.188-1.763h2.195l-2.1 2.375 2.398 3.49h-2.242l-1.416-2.411-.467.576v1.835h-1.824v-8.515h1.824v5.121zM479.893 181.485h-2.973v1.919h3.322v1.499h-5.158v-8.083h4.99v1.499h-3.154v1.679h2.973v1.487zM481.133 180.91c0-.732-.023-1.355-.049-1.871h1.584l.084.804h.035c.24-.372.84-.936 1.811-.936 1.201 0 2.1.792 2.1 2.519v3.478h-1.822v-3.25c0-.756-.264-1.271-.924-1.271-.504 0-.805.348-.924.684a1.232 1.232 0 0 0-.072.456v3.382h-1.822v-3.995zM493.549 176.388v6.764c0 .66.025 1.355.049 1.751h-1.619l-.084-.864h-.023c-.373.66-1.08.996-1.836.996-1.391 0-2.506-1.187-2.506-3.01-.012-1.979 1.223-3.118 2.627-3.118.719 0 1.283.252 1.547.66h.023v-3.178h1.822zm-1.822 5.133c0-.096-.012-.228-.023-.324-.107-.492-.504-.899-1.068-.899-.826 0-1.258.744-1.258 1.667 0 .996.49 1.619 1.246 1.619.527 0 .947-.36 1.057-.875.035-.132.047-.264.047-.42v-.768zM445.146 194.785l-.699 2.119h-.898l2.289-6.736h1.049l2.299 6.736h-.93l-.721-2.119h-2.389zm2.209-.68l-.658-1.939c-.15-.44-.25-.84-.352-1.229h-.02c-.1.4-.209.81-.34 1.219l-.658 1.949h2.028zM450.178 190.247c.42-.07.971-.13 1.67-.13.859 0 1.488.2 1.889.56.369.32.59.81.59 1.409 0 .61-.18 1.089-.52 1.439-.461.49-1.209.739-2.059.739-.26 0-.5-.01-.701-.06v2.699h-.869v-6.656zm.869 3.248c.191.05.43.07.721.07 1.049 0 1.689-.509 1.689-1.439 0-.89-.631-1.319-1.59-1.319-.379 0-.67.03-.82.07v2.618zM456.367 190.167v6.736h-.869v-6.736h.869zM459.238 197.303l2.789-7.246h.68l-2.799 7.246h-.67zM465.438 195.844c.391.24.961.44 1.561.44.889 0 1.408-.47 1.408-1.149 0-.63-.359-.989-1.27-1.339-1.1-.39-1.779-.959-1.779-1.909 0-1.05.871-1.829 2.18-1.829.689 0 1.189.16 1.488.33l-.238.71c-.221-.12-.67-.32-1.279-.32-.92 0-1.27.549-1.27 1.009 0 .63.408.939 1.338 1.299 1.141.44 1.719.989 1.719 1.979 0 1.04-.77 1.939-2.357 1.939-.65 0-1.359-.19-1.719-.43l.218-.73zM470.697 192.066l1.059 2.858c.111.32.23.7.311.99h.02c.09-.29.191-.66.311-1.01l.959-2.838h.93l-1.318 3.448c-.631 1.659-1.061 2.509-1.66 3.028-.43.38-.859.53-1.078.57l-.221-.74c.221-.07.51-.21.77-.43.24-.19.539-.53.74-.979.039-.09.068-.16.068-.21s-.02-.12-.059-.23l-1.789-4.458h.957zM474.908 196.004c.26.17.719.35 1.158.35.641 0 .941-.32.941-.72 0-.419-.25-.649-.9-.889-.869-.31-1.279-.79-1.279-1.369 0-.78.629-1.419 1.67-1.419.488 0 .918.14 1.188.3l-.219.64a1.878 1.878 0 0 0-.99-.28c-.52 0-.809.3-.809.66 0 .4.289.58.92.819.838.32 1.268.74 1.268 1.459 0 .85-.658 1.449-1.809 1.449-.529 0-1.02-.13-1.359-.33l.22-.67zM480.047 190.677v1.389h1.26v.67h-1.26v2.608c0 .6.17.939.66.939.23 0 .4-.03.51-.06l.039.66c-.17.07-.439.12-.779.12-.41 0-.738-.13-.949-.37-.25-.26-.34-.689-.34-1.259v-2.638h-.75v-.67h.75v-1.159l.859-.23zM482.727 194.645c.02 1.189.779 1.679 1.66 1.679.629 0 1.008-.11 1.338-.25l.15.63c-.311.14-.84.3-1.609.3-1.488 0-2.379-.979-2.379-2.439 0-1.459.859-2.608 2.27-2.608 1.578 0 1.998 1.389 1.998 2.279 0 .18-.02.32-.029.41h-3.399zm2.578-.63c.01-.56-.229-1.43-1.219-1.43-.889 0-1.279.82-1.35 1.43h2.569zM487.246 193.375c0-.5-.01-.91-.039-1.31h.77l.039.78h.031c.27-.46.719-.89 1.518-.89.66 0 1.16.4 1.371.969h.02a2 2 0 0 1 .539-.629c.291-.22.609-.34 1.07-.34.639 0 1.588.42 1.588 2.099v2.849h-.859v-2.738c0-.93-.34-1.489-1.049-1.489-.5 0-.891.37-1.039.799-.041.12-.07.28-.07.44v2.988h-.859v-2.898c0-.77-.34-1.329-1.01-1.329-.549 0-.949.439-1.09.879-.049.13-.07.28-.07.43v2.918h-.859v-3.528zM495.467 196.004c.26.17.719.35 1.158.35.641 0 .941-.32.941-.72 0-.419-.25-.649-.9-.889-.869-.31-1.279-.79-1.279-1.369 0-.78.629-1.419 1.67-1.419.488 0 .918.14 1.188.3l-.219.64a1.878 1.878 0 0 0-.99-.28c-.52 0-.809.3-.809.66 0 .4.289.58.92.819.838.32 1.268.74 1.268 1.459 0 .85-.658 1.449-1.809 1.449-.529 0-1.02-.13-1.359-.33l.22-.67z"/>
    </g>
    <circle fill="#076400" cx="198.059" cy="87.582" r="38.247"/>
    <g fill="#FFF">
        <path d="M168.61 75.82v8.083h-1.835V75.82h1.835zM170.17 79.91c0-.732-.023-1.355-.048-1.871h1.583l.084.804h.036c.24-.372.84-.936 1.811-.936 1.2 0 2.1.792 2.1 2.519v3.478h-1.823v-3.25c0-.756-.264-1.271-.924-1.271-.504 0-.804.348-.923.684a1.232 1.232 0 0 0-.072.456v3.382h-1.823V79.91zM177.407 83.903v-4.521h-.768v-1.343h.768v-.228c0-.708.216-1.487.743-1.967.456-.432 1.092-.588 1.619-.588.408 0 .72.048.972.12l-.072 1.403a1.966 1.966 0 0 0-.587-.084c-.6 0-.852.468-.852 1.043v.3h1.175v1.343h-1.163v4.521h-1.835zM186.967 80.905c0 2.147-1.523 3.13-3.095 3.13-1.715 0-3.034-1.127-3.034-3.022 0-1.895 1.248-3.106 3.131-3.106 1.799 0 2.998 1.235 2.998 2.998zm-4.246.06c0 1.007.42 1.763 1.2 1.763.707 0 1.163-.708 1.163-1.763 0-.875-.336-1.763-1.163-1.763-.876 0-1.2.9-1.2 1.763zM188.098 79.969c0-.863-.023-1.427-.048-1.931h1.571l.06 1.08h.048c.3-.852 1.02-1.211 1.584-1.211.167 0 .251 0 .384.024v1.715a2.624 2.624 0 0 0-.492-.048c-.672 0-1.127.36-1.247.923a2.15 2.15 0 0 0-.036.408v2.974h-1.823v-3.934zM192.658 79.91c0-.732-.023-1.355-.048-1.871h1.535l.084.792h.036c.252-.372.768-.923 1.774-.923.756 0 1.355.384 1.607.995h.024c.216-.3.479-.54.755-.708a2.117 2.117 0 0 1 1.116-.288c1.127 0 1.979.792 1.979 2.542v3.454h-1.775v-3.19c0-.852-.275-1.343-.863-1.343-.42 0-.72.288-.84.636a1.525 1.525 0 0 0-.071.468v3.43h-1.775v-3.286c0-.744-.264-1.248-.84-1.248-.468 0-.743.36-.852.66-.06.144-.071.312-.071.456v3.418h-1.775V79.91zM206.311 83.903l-.107-.588h-.036c-.384.468-.983.72-1.679.72-1.188 0-1.896-.863-1.896-1.799 0-1.523 1.367-2.255 3.442-2.243v-.083c0-.312-.168-.756-1.067-.756-.6 0-1.235.204-1.619.444l-.336-1.175c.408-.228 1.211-.516 2.278-.516 1.955 0 2.579 1.151 2.579 2.53v2.039c0 .563.023 1.104.084 1.427h-1.643zm-.216-2.77c-.959-.012-1.703.216-1.703.923 0 .468.312.696.72.696.456 0 .828-.3.947-.671.024-.096.036-.204.036-.312v-.636zM211.256 76.359v1.679h1.308v1.343h-1.308v2.123c0 .708.168 1.032.72 1.032.228 0 .407-.024.539-.048l.013 1.379c-.24.096-.672.156-1.188.156-.588 0-1.079-.204-1.367-.504-.336-.348-.504-.912-.504-1.739v-2.398h-.779v-1.343h.779v-1.271l1.787-.409zM215.504 76.407c0 .504-.384.912-.983.912-.575 0-.959-.408-.947-.912-.012-.527.372-.923.96-.923.587 0 .959.396.97.923zm-1.882 7.496v-5.865h1.823v5.865h-1.823zM222.703 80.905c0 2.147-1.523 3.13-3.095 3.13-1.715 0-3.034-1.127-3.034-3.022 0-1.895 1.248-3.106 3.131-3.106 1.798 0 2.998 1.235 2.998 2.998zm-4.246.06c0 1.007.42 1.763 1.2 1.763.707 0 1.163-.708 1.163-1.763 0-.875-.336-1.763-1.163-1.763-.876 0-1.2.9-1.2 1.763zM223.833 79.91c0-.732-.023-1.355-.048-1.871h1.583l.084.804h.036c.24-.372.84-.936 1.811-.936 1.2 0 2.1.792 2.1 2.519v3.478h-1.823v-3.25c0-.756-.264-1.271-.924-1.271-.504 0-.804.348-.923.684a1.232 1.232 0 0 0-.072.456v3.382h-1.823V79.91zM180.232 90.328c.671-.108 1.547-.168 2.471-.168 1.535 0 2.53.276 3.31.864.84.624 1.367 1.619 1.367 3.046 0 1.547-.563 2.615-1.343 3.274-.852.708-2.147 1.043-3.73 1.043-.947 0-1.619-.06-2.074-.12v-7.939zm1.835 6.596c.155.036.407.036.636.036 1.654.012 2.734-.899 2.734-2.831.012-1.679-.972-2.566-2.543-2.566-.408 0-.672.036-.827.072v5.289zM189.926 95.953c.06.755.804 1.115 1.655 1.115.623 0 1.127-.084 1.619-.24l.239 1.235c-.6.24-1.331.36-2.122.36-1.991 0-3.131-1.151-3.131-2.986 0-1.487.924-3.13 2.963-3.13 1.895 0 2.614 1.475 2.614 2.926 0 .312-.036.588-.06.72h-3.777zm2.147-1.248c0-.444-.191-1.187-1.031-1.187-.768 0-1.079.695-1.127 1.187h2.158zM194.847 96.708c.336.204 1.031.444 1.571.444.552 0 .779-.192.779-.492s-.18-.444-.863-.672c-1.212-.408-1.68-1.067-1.667-1.763 0-1.091.936-1.919 2.387-1.919.684 0 1.295.156 1.654.335l-.323 1.26c-.264-.144-.768-.336-1.271-.336-.443 0-.695.18-.695.479 0 .276.228.42.947.672 1.115.384 1.583.947 1.595 1.811 0 1.091-.863 1.895-2.542 1.895-.768 0-1.451-.168-1.896-.408l.324-1.306zM201.95 90.807c0 .504-.384.912-.983.912-.575 0-.959-.408-.947-.912-.012-.527.372-.923.96-.923.586 0 .958.396.97.923zm-1.883 7.496v-5.865h1.823v5.865h-1.823zM208.957 92.438c-.024.372-.049.863-.049 1.739v3.274c0 1.127-.228 2.051-.887 2.639-.648.552-1.523.72-2.387.72-.768 0-1.584-.156-2.111-.456l.36-1.379a3.6 3.6 0 0 0 1.702.443c.864 0 1.523-.468 1.523-1.547v-.384h-.023c-.349.492-.912.768-1.584.768-1.451 0-2.482-1.175-2.482-2.867 0-1.883 1.224-3.082 2.663-3.082.804 0 1.307.348 1.606.828h.024l.06-.696h1.585zm-1.872 2.387c0-.12-.013-.24-.036-.336-.132-.479-.479-.804-.983-.804-.66 0-1.199.6-1.199 1.667 0 .875.432 1.559 1.199 1.559a.99.99 0 0 0 .959-.744 1.55 1.55 0 0 0 .061-.48v-.862zM210.375 94.31c0-.732-.023-1.355-.048-1.871h1.583l.084.804h.036c.24-.372.84-.936 1.811-.936 1.2 0 2.1.792 2.1 2.519v3.478h-1.823v-3.25c0-.756-.264-1.271-.924-1.271-.504 0-.804.348-.923.684a1.232 1.232 0 0 0-.072.456v3.382h-1.823V94.31z"/>
    </g>
    <circle fill="#076400" cx="198.059" cy="222.247" r="38.247"/>
    <g fill="#FFF">
        <path d="M171.129 210.486v8.083h-1.835v-8.083h1.835zM172.69 214.576c0-.732-.023-1.355-.048-1.871h1.583l.084.804h.036c.24-.372.84-.936 1.811-.936 1.2 0 2.1.792 2.1 2.519v3.478h-1.823v-3.25c0-.756-.264-1.271-.924-1.271-.504 0-.804.348-.923.684a1.232 1.232 0 0 0-.072.456v3.382h-1.823v-3.995zM181.689 211.026v1.679h1.308v1.343h-1.308v2.123c0 .708.168 1.032.72 1.032.228 0 .407-.024.54-.048l.012 1.379c-.24.096-.672.156-1.188.156-.588 0-1.079-.204-1.367-.504-.336-.348-.504-.912-.504-1.739v-2.398h-.779v-1.343h.779v-1.271l1.787-.409zM185.398 216.219c.06.755.804 1.115 1.655 1.115.624 0 1.127-.084 1.619-.24l.239 1.235c-.6.24-1.331.36-2.122.36-1.991 0-3.131-1.151-3.131-2.986 0-1.487.924-3.13 2.963-3.13 1.895 0 2.614 1.475 2.614 2.926 0 .312-.036.588-.06.72h-3.777zm2.146-1.247c0-.444-.191-1.187-1.031-1.187-.768 0-1.079.695-1.127 1.187h2.158zM190.331 214.636c0-.863-.023-1.427-.048-1.931h1.571l.06 1.08h.048c.3-.852 1.02-1.211 1.584-1.211.167 0 .251 0 .384.024v1.715a2.624 2.624 0 0 0-.492-.048c-.672 0-1.127.36-1.247.923a2.15 2.15 0 0 0-.036.408v2.974h-1.823v-3.934zM198.092 218.57l-.107-.588h-.036c-.384.468-.983.72-1.679.72-1.188 0-1.896-.863-1.896-1.799 0-1.523 1.367-2.255 3.442-2.243v-.084c0-.312-.168-.756-1.067-.756-.6 0-1.235.204-1.619.444l-.336-1.175c.408-.228 1.211-.516 2.278-.516 1.955 0 2.579 1.151 2.579 2.53v2.039c0 .563.023 1.104.084 1.427h-1.643zm-.216-2.771c-.959-.012-1.703.216-1.703.923 0 .468.312.696.72.696.456 0 .828-.3.947-.671.024-.096.036-.204.036-.312v-.636zM205.496 218.426c-.323.144-.936.264-1.631.264-1.895 0-3.106-1.151-3.106-2.999 0-1.715 1.176-3.118 3.358-3.118.479 0 1.008.084 1.392.228l-.288 1.355c-.216-.096-.54-.18-1.02-.18-.959 0-1.583.684-1.571 1.643 0 1.079.72 1.643 1.607 1.643.432 0 .768-.072 1.043-.18l.216 1.344zM208.737 211.026v1.679h1.308v1.343h-1.308v2.123c0 .708.168 1.032.72 1.032.228 0 .407-.024.539-.048l.013 1.379c-.24.096-.672.156-1.188.156-.588 0-1.079-.204-1.367-.504-.336-.348-.504-.912-.504-1.739v-2.398h-.779v-1.343h.779v-1.271l1.787-.409zM212.985 211.074c0 .504-.384.912-.983.912-.575 0-.959-.408-.947-.912-.012-.527.372-.923.96-.923.586-.001.958.395.97.923zm-1.883 7.496v-5.865h1.823v5.865h-1.823zM220.183 215.571c0 2.147-1.523 3.13-3.095 3.13-1.715 0-3.034-1.127-3.034-3.022 0-1.895 1.248-3.106 3.131-3.106 1.799 0 2.998 1.236 2.998 2.998zm-4.246.06c0 1.007.42 1.763 1.2 1.763.707 0 1.163-.708 1.163-1.763 0-.875-.336-1.763-1.163-1.763-.876 0-1.2.9-1.2 1.763zM221.314 214.576c0-.732-.023-1.355-.048-1.871h1.583l.084.804h.036c.24-.372.84-.936 1.811-.936 1.2 0 2.1.792 2.1 2.519v3.478h-1.823v-3.25c0-.756-.264-1.271-.924-1.271-.504 0-.804.348-.923.684a1.232 1.232 0 0 0-.072.456v3.382h-1.823v-3.995zM180.232 224.994c.671-.108 1.547-.168 2.471-.168 1.535 0 2.53.276 3.31.864.84.624 1.367 1.619 1.367 3.046 0 1.547-.563 2.615-1.343 3.274-.852.708-2.147 1.043-3.73 1.043-.947 0-1.619-.06-2.074-.12v-7.939zm1.835 6.596c.155.036.407.036.636.036 1.654.012 2.734-.899 2.734-2.831.012-1.679-.972-2.566-2.543-2.566-.408 0-.672.036-.827.072v5.289zM189.926 230.619c.06.755.804 1.115 1.655 1.115.623 0 1.127-.084 1.619-.24l.239 1.235c-.6.24-1.331.36-2.122.36-1.991 0-3.131-1.151-3.131-2.986 0-1.487.924-3.13 2.963-3.13 1.895 0 2.614 1.475 2.614 2.926 0 .312-.036.588-.06.72h-3.777zm2.147-1.247c0-.444-.191-1.187-1.031-1.187-.768 0-1.079.695-1.127 1.187h2.158zM194.847 231.375c.336.204 1.031.444 1.571.444.552 0 .779-.192.779-.492s-.18-.444-.863-.672c-1.212-.408-1.68-1.067-1.667-1.763 0-1.091.936-1.919 2.387-1.919.684 0 1.295.156 1.654.335l-.323 1.26c-.264-.144-.768-.336-1.271-.336-.443 0-.695.18-.695.479 0 .276.228.42.947.672 1.115.384 1.583.947 1.595 1.811 0 1.091-.863 1.895-2.542 1.895-.768 0-1.451-.168-1.896-.408l.324-1.306zM201.95 225.474c0 .504-.384.912-.983.912-.575 0-.959-.408-.947-.912-.012-.527.372-.923.96-.923.586-.001.958.395.97.923zm-1.883 7.496v-5.865h1.823v5.865h-1.823zM208.957 227.105c-.024.372-.049.863-.049 1.739v3.274c0 1.127-.228 2.051-.887 2.639-.648.552-1.523.72-2.387.72-.768 0-1.584-.156-2.111-.456l.36-1.379a3.6 3.6 0 0 0 1.702.443c.864 0 1.523-.468 1.523-1.547v-.384h-.023c-.349.492-.912.768-1.584.768-1.451 0-2.482-1.175-2.482-2.867 0-1.883 1.224-3.082 2.663-3.082.804 0 1.307.348 1.606.828h.024l.06-.696h1.585zm-1.872 2.387c0-.12-.013-.24-.036-.336-.132-.479-.479-.804-.983-.804-.66 0-1.199.6-1.199 1.667 0 .875.432 1.559 1.199 1.559a.99.99 0 0 0 .959-.744 1.55 1.55 0 0 0 .061-.48v-.862zM210.375 228.976c0-.732-.023-1.355-.048-1.871h1.583l.084.804h.036c.24-.372.84-.936 1.811-.936 1.2 0 2.1.792 2.1 2.519v3.478h-1.823v-3.25c0-.756-.264-1.271-.924-1.271-.504 0-.804.348-.923.684a1.232 1.232 0 0 0-.072.456v3.382h-1.823v-3.995z"/>
    </g>
    <circle fill="#076400" cx="198.059" cy="289.581" r="38.247"/>
    <g fill="#FFF">
        <path d="M184.539 285.903l-2.59-8.083h2.002l.984 3.418c.275.959.527 1.883.719 2.891h.036c.204-.973.456-1.932.731-2.855l1.032-3.453h1.942l-2.723 8.083h-2.133zM191.762 278.407c0 .504-.384.911-.983.911-.575 0-.959-.407-.947-.911-.012-.527.372-.923.96-.923.586 0 .958.396.97.923zm-1.883 7.496v-5.864h1.823v5.864h-1.823zM193.156 284.309c.336.203 1.031.443 1.571.443.552 0 .779-.191.779-.492 0-.299-.18-.443-.863-.672-1.212-.407-1.68-1.066-1.667-1.762 0-1.092.936-1.92 2.387-1.92.684 0 1.295.156 1.654.336l-.323 1.26c-.264-.145-.768-.336-1.271-.336-.443 0-.695.18-.695.479 0 .276.228.42.947.672 1.115.384 1.583.947 1.595 1.812 0 1.091-.863 1.895-2.542 1.895-.768 0-1.451-.168-1.896-.408l.324-1.307zM203.905 284.021c0 .768.023 1.392.048 1.883h-1.583l-.084-.827h-.036c-.228.359-.779.959-1.835.959-1.188 0-2.062-.744-2.062-2.555v-3.441h1.835v3.154c0 .852.275 1.367.911 1.367.504 0 .792-.348.911-.637a.995.995 0 0 0 .061-.395v-3.49h1.835v3.982zM208.706 285.903l-.107-.588h-.036c-.384.468-.983.72-1.679.72-1.188 0-1.896-.863-1.896-1.799 0-1.523 1.367-2.255 3.442-2.242v-.084c0-.312-.168-.756-1.067-.756-.6 0-1.235.203-1.619.443l-.336-1.176c.408-.228 1.211-.516 2.278-.516 1.955 0 2.579 1.152 2.579 2.531v2.039c0 .562.023 1.104.084 1.427h-1.643zm-.216-2.77c-.959-.012-1.703.216-1.703.924 0 .467.312.695.72.695.456 0 .828-.3.947-.672.024-.096.036-.203.036-.312v-.635zM211.708 277.389h1.823v8.515h-1.823v-8.515zM180.232 292.328c.671-.108 1.547-.168 2.471-.168 1.535 0 2.53.275 3.31.863.84.623 1.367 1.619 1.367 3.046 0 1.548-.563 2.614-1.343 3.274-.852.707-2.147 1.043-3.73 1.043-.947 0-1.619-.06-2.074-.119v-7.939zm1.835 6.596c.155.036.407.036.636.036 1.654.013 2.734-.899 2.734-2.831.012-1.678-.972-2.566-2.543-2.566a3.85 3.85 0 0 0-.827.072v5.289zM189.926 297.953c.06.755.804 1.115 1.655 1.115.623 0 1.127-.084 1.619-.24l.239 1.235c-.6.239-1.331.36-2.122.36-1.991 0-3.131-1.152-3.131-2.986 0-1.488.924-3.131 2.963-3.131 1.895 0 2.614 1.475 2.614 2.926 0 .312-.036.588-.06.721h-3.777zm2.147-1.248c0-.443-.191-1.188-1.031-1.188-.768 0-1.079.695-1.127 1.188h2.158zM194.847 298.708c.336.204 1.031.444 1.571.444.552 0 .779-.192.779-.492s-.18-.443-.863-.672c-1.212-.408-1.68-1.067-1.667-1.763 0-1.091.936-1.919 2.387-1.919.684 0 1.295.156 1.654.336l-.323 1.26c-.264-.145-.768-.336-1.271-.336-.443 0-.695.18-.695.479 0 .276.228.42.947.672 1.115.385 1.583.947 1.595 1.812 0 1.091-.863 1.896-2.542 1.896-.768 0-1.451-.168-1.896-.408l.324-1.309zM201.95 292.807c0 .504-.384.912-.983.912-.575 0-.959-.408-.947-.912-.012-.527.372-.923.96-.923.586 0 .958.395.97.923zm-1.883 7.496v-5.864h1.823v5.864h-1.823zM208.957 294.438c-.024.372-.049.863-.049 1.739v3.273c0 1.128-.228 2.051-.887 2.639-.648.553-1.523.721-2.387.721-.768 0-1.584-.156-2.111-.457l.36-1.379a3.588 3.588 0 0 0 1.702.443c.864 0 1.523-.467 1.523-1.547v-.383h-.023c-.349.491-.912.768-1.584.768-1.451 0-2.482-1.176-2.482-2.867 0-1.883 1.224-3.082 2.663-3.082.804 0 1.307.348 1.606.828h.024l.06-.696h1.585zm-1.872 2.387c0-.12-.013-.239-.036-.336-.132-.479-.479-.804-.983-.804-.66 0-1.199.6-1.199 1.668 0 .875.432 1.559 1.199 1.559a.99.99 0 0 0 .959-.744c.048-.131.061-.323.061-.479v-.864zM210.375 296.31a38 38 0 0 0-.048-1.871h1.583l.084.804h.036c.24-.372.84-.936 1.811-.936 1.2 0 2.1.791 2.1 2.519v3.478h-1.823v-3.25c0-.756-.264-1.271-.924-1.271-.504 0-.804.348-.923.684a1.236 1.236 0 0 0-.072.456v3.382h-1.823v-3.995z"/>
    </g>
    <circle fill="#076400" cx="198.059" cy="154.582" r="38.247"/>
    <g fill="#FFF">
        <path d="M188.606 143.153v4.653c0 1.391.528 2.099 1.464 2.099.959 0 1.486-.672 1.486-2.099v-4.653h1.823v4.533c0 2.495-1.259 3.682-3.37 3.682-2.039 0-3.238-1.127-3.238-3.706v-4.509h1.835zM194.739 149.642c.336.204 1.031.444 1.571.444.552 0 .779-.192.779-.492s-.18-.444-.863-.672c-1.212-.408-1.68-1.067-1.667-1.763 0-1.091.936-1.919 2.387-1.919.684 0 1.295.156 1.654.336l-.323 1.259c-.264-.144-.768-.336-1.271-.336-.443 0-.695.18-.695.479 0 .276.228.42.947.672 1.115.384 1.583.947 1.595 1.811 0 1.091-.863 1.895-2.542 1.895-.768 0-1.451-.168-1.896-.408l.324-1.306zM201.362 148.886c.06.755.804 1.115 1.655 1.115.623 0 1.127-.084 1.619-.24l.239 1.235c-.6.24-1.331.36-2.122.36-1.991 0-3.131-1.151-3.131-2.986 0-1.487.924-3.13 2.963-3.13 1.895 0 2.614 1.475 2.614 2.926 0 .312-.036.588-.06.72h-3.777zm2.146-1.247c0-.444-.191-1.187-1.031-1.187-.768 0-1.079.695-1.127 1.187h2.158zM206.294 147.303c0-.863-.023-1.427-.048-1.931h1.571l.06 1.08h.048c.3-.852 1.02-1.211 1.584-1.211.167 0 .251 0 .384.024v1.715a2.624 2.624 0 0 0-.492-.048c-.672 0-1.127.36-1.247.923a2.15 2.15 0 0 0-.036.408v2.974h-1.823v-3.934zM186.167 157.553h4.94v1.499h-3.105v1.847h2.902v1.487h-2.902v3.25h-1.835v-8.083zM192.25 157.122h1.823v8.515h-1.823v-8.515zM201.343 162.638c0 2.147-1.523 3.13-3.095 3.13-1.715 0-3.034-1.127-3.034-3.022 0-1.895 1.248-3.106 3.131-3.106 1.799 0 2.998 1.235 2.998 2.998zm-4.246.06c0 1.007.42 1.763 1.2 1.763.707 0 1.163-.708 1.163-1.763 0-.875-.336-1.763-1.163-1.763-.876.001-1.2.9-1.2 1.763zM203.625 159.772l.468 2.398c.119.612.239 1.259.336 1.931h.023c.12-.672.288-1.343.432-1.919l.624-2.411h1.439l.587 2.339c.156.66.312 1.319.432 1.991h.024c.084-.672.204-1.331.336-2.003l.504-2.327h1.787l-1.8 5.865h-1.715l-.552-2.063a21.624 21.624 0 0 1-.371-1.823h-.024a13.592 13.592 0 0 1-.384 1.823l-.588 2.063h-1.715l-1.703-5.865h1.86z"/>
    </g>
    <linearGradient id="a" gradientUnits="userSpaceOnUse" x1="710.75" y1="279" x2="710.75" y2="278">
        <stop offset="0" stop-color="#fff"/>
        <stop offset="1"/>
    </linearGradient>
    <path fill="url(#a)" d="M710.5 278h.5v1h-.5z"/>
    <g fill="#FFF">
        <path d="M174.459 184.264v3.988c0 1.509.67 2.149 1.569 2.149 1 0 1.639-.66 1.639-2.149v-3.988h.879v3.928c0 2.069-1.089 2.918-2.548 2.918-1.379 0-2.419-.79-2.419-2.878v-3.968h.88zM183.748 191l-.86-1.489c-.35-.57-.569-.939-.779-1.329h-.02c-.19.39-.38.75-.729 1.339l-.81 1.479h-1l2.059-3.408-1.979-3.328h1.01l.89 1.579c.25.44.439.78.62 1.14h.03c.19-.4.36-.71.61-1.14l.919-1.579h1l-2.049 3.278 2.099 3.458h-1.011zM187.77 189.94c.39.24.959.44 1.559.44.89 0 1.409-.47 1.409-1.149 0-.629-.36-.989-1.269-1.339-1.1-.39-1.779-.959-1.779-1.909 0-1.05.87-1.829 2.179-1.829.69 0 1.189.16 1.489.33l-.24.71a2.68 2.68 0 0 0-1.279-.32c-.919 0-1.27.549-1.27 1.009 0 .63.41.939 1.339 1.299 1.14.44 1.719.989 1.719 1.979 0 1.039-.77 1.939-2.359 1.939-.649 0-1.359-.19-1.719-.43l.221-.73zM197.228 188.542c0 1.789-1.24 2.568-2.409 2.568-1.31 0-2.319-.959-2.319-2.489 0-1.619 1.059-2.568 2.398-2.568 1.39 0 2.33 1.009 2.33 2.489zm-3.838.049c0 1.06.609 1.859 1.469 1.859.84 0 1.469-.79 1.469-1.879 0-.819-.41-1.859-1.449-1.859-1.039 0-1.489.96-1.489 1.879zM198.34 183.904h.879V191h-.879v-7.096zM204.748 189.681c0 .5.01.939.039 1.319h-.779l-.05-.79h-.02c-.23.39-.74.899-1.6.899-.76 0-1.669-.42-1.669-2.119v-2.829h.879v2.679c0 .919.28 1.539 1.08 1.539.59 0 .999-.41 1.159-.8.05-.13.08-.29.08-.45v-2.968h.88v3.52zM207.269 184.773v1.389h1.259v.67h-1.259v2.608c0 .6.17.939.659.939.23 0 .4-.03.51-.06l.04.66c-.17.07-.439.12-.779.12-.41 0-.739-.13-.949-.37-.25-.26-.34-.689-.34-1.259v-2.638h-.75v-.67h.75v-1.159l.859-.23zM210.498 184.803c.01.3-.21.54-.56.54a.522.522 0 0 1-.529-.54c0-.31.229-.549.549-.549.33 0 .54.24.54.549zm-.979 6.197v-4.837h.88V191h-.88zM216.236 188.542c0 1.789-1.239 2.568-2.409 2.568-1.309 0-2.318-.959-2.318-2.489 0-1.619 1.06-2.568 2.398-2.568 1.39 0 2.329 1.009 2.329 2.489zm-3.838.049c0 1.06.609 1.859 1.469 1.859.84 0 1.47-.79 1.47-1.879 0-.819-.41-1.859-1.449-1.859-1.04 0-1.49.96-1.49 1.879zM217.349 187.472c0-.5-.01-.91-.04-1.31h.779l.051.8h.02c.24-.46.8-.91 1.6-.91.669 0 1.709.4 1.709 2.059V191h-.88v-2.789c0-.779-.29-1.429-1.119-1.429-.58 0-1.029.41-1.18.899-.04.11-.06.26-.06.41V191h-.88v-3.528z"/>
    </g>
</svg>
