<?xml version="1.0" standalone="no"?>
<!DOCTYPE svg PUBLIC "-//W3C//DTD SVG 1.1//EN" "http://www.w3.org/Graphics/SVG/1.1/DTD/svg11.dtd" >
<svg xmlns="http://www.w3.org/2000/svg">
<metadata></metadata>
<defs>
<font id="struktur_proregular" horiz-adv-x="500" >
<font-face units-per-em="1000" ascent="750" descent="-250" />
<missing-glyph horiz-adv-x="282" />
<glyph unicode="&#xfb01;" horiz-adv-x="537" d="M103 0l2 424h-92v56h92v27q0 105 51 162t144 57q77 0 119 -31l-18 -56q-46 32 -101 32q-57 0 -86.5 -38.5t-29.5 -108.5v-44h282l-2 -480h-83l3 424h-200l-2 -424h-79z" />
<glyph unicode="&#xfb02;" horiz-adv-x="533" d="M103 0l2 424h-92v56h92v27q0 105 51 162t144 57q113 0 163 -62l-3 -664h-78l2 424h-200l-2 -424h-79zM184 480h200v167q-22 16 -38 20t-46 4q-57 0 -86.5 -38.5t-29.5 -108.5v-44z" />
<glyph unicode="&#xfb03;" horiz-adv-x="816" d="M103 0l2 424h-92v56h93v27q0 105 51 162t144 57t140 -39q51 39 129 39t128 -31l-18 -56q-49 32 -101 32q-116 0 -116 -147v-44h282l-2 -480h-83l3 424h-200l-2 -424h-79l2 424h-200l-2 -424h-79zM184 480h200v39q0 69 18 113q-23 22 -44 30.5t-57 8.5q-113 0 -116 -147z " />
<glyph unicode="&#xfb04;" horiz-adv-x="812" d="M103 0l2 424h-92v56h93v27q0 105 51 162t144 57t140 -39q27 21 56 30t82 9q113 0 163 -62l-3 -664h-78l2 424h-200l-2 -424h-79l2 424h-200l-2 -424h-79zM463 480h200v167q-30 24 -84 24q-116 0 -116 -147v-44zM184 480h200v39q0 69 18 113q-23 22 -44 30.5t-57 8.5 q-113 0 -116 -147z" />
<glyph horiz-adv-x="1000" />
<glyph horiz-adv-x="1000" />
<glyph unicode="&#xd;" horiz-adv-x="1000" />
<glyph unicode=" "  horiz-adv-x="282" />
<glyph unicode="&#x09;" horiz-adv-x="282" />
<glyph unicode="&#xa0;" horiz-adv-x="282" />
<glyph unicode="!" horiz-adv-x="272" d="M96 162l2 508h81l-2 -508h-81zM93 0v89h85v-89h-85z" />
<glyph unicode="&#x22;" horiz-adv-x="344" d="M218 400l-15 267h95l-14 -267h-66zM60 400l-14 267h95l-15 -267h-66z" />
<glyph unicode="#" horiz-adv-x="611" d="M158 34l28 195h-122l6 44h122l15 110h-121l6 45h122l25 179h46l-25 -179h115l25 179h46l-25 -179h125l-6 -45h-126l-15 -110h126l-7 -44h-125l-28 -195h-46l28 195h-115l-28 -195h-46zM238 273h115l16 110h-116z" />
<glyph unicode="$" horiz-adv-x="560" d="M84 66l37 55q69 -55 139 -58l1 244l-31 12q-136 53 -136 166q0 70 45.5 116t123.5 56v64h43l-1 -64q84 -4 165 -58l-35 -51q-29 23 -66 37.5t-64 13.5l-1 -230l22 -8q81 -30 116 -71.5t35 -104.5q0 -73 -47 -121t-127 -58l-1 -84h-43l1 84q-46 0 -83.5 12.5t-92.5 47.5z M239 393l22 -7l1 211q-35 -7 -55 -24q-38 -33 -38 -81q0 -32 20 -60.5t50 -38.5zM303 66q44 9 70 38.5t26 71.5q0 36 -21.5 66.5t-55.5 41.5l-18 6z" />
<glyph unicode="%" horiz-adv-x="778" d="M155 -5l429 696l38 -21l-430 -697zM185 371q-70 0 -113 42t-43 109t44 110t113 43q68 0 111 -43.5t43 -112.5q0 -64 -43.5 -106t-111.5 -42zM184 425q38 0 61 26.5t23 70.5q0 45 -22 71t-61 26q-40 0 -62 -25t-22 -71t22.5 -72t60.5 -26zM441 138q0 67 44 110t113 43 q68 0 111 -43.5t43 -112.5q0 -64 -43.5 -106t-111.5 -42q-70 0 -113 42t-43 109zM513 138q0 -45 22.5 -71t60.5 -26t61 26.5t23 70.5q0 45 -22 71t-61 26q-40 0 -62 -25.5t-22 -71.5z" />
<glyph unicode="&#x26;" horiz-adv-x="648" d="M590 -9l-87 95q-53 -53 -100.5 -74t-115.5 -21q-111 0 -173 62q-60 58 -60 142q0 66 36 116t118 98q-36 38 -51 69t-15 68q0 55 39.5 92t97.5 37q55 0 92 -33.5t37 -82.5q0 -43 -23 -74.5t-89 -78.5l194 -201q14 53 14 172h69v-43q0 -54 -7 -90t-27 -90l109 -115z M264 448l40 34q39 34 39 72q0 28 -18 46.5t-46 18.5q-29 0 -48 -18.5t-19 -46.5q0 -33 19 -60zM456 135l-212 232q-59 -53 -72 -69q-34 -42 -34 -98q0 -61 44 -102.5t108 -41.5q96 0 166 79z" />
<glyph unicode="'" horiz-adv-x="189" d="M61 400l-15 267h97l-14 -267h-68z" />
<glyph unicode="(" horiz-adv-x="339" d="M272 -145l-49 -44q-59 70 -95 141q-73 149 -73 327q0 127 43.5 235.5t139.5 218.5l44 -41q-80 -100 -116 -198t-36 -214q0 -252 142 -425z" />
<glyph unicode=")" horiz-adv-x="339" d="M59 -147q80 100 116 197.5t36 213.5q0 251 -142 426l49 43q61 -71 95 -141q73 -149 73 -327q0 -127 -43.5 -235t-139.5 -219z" />
<glyph unicode="*" horiz-adv-x="417" d="M136 372l-41 29l77 104l-123 40l15 47l123 -40v128h49v-128l121 40l16 -47l-122 -40l76 -104l-40 -29l-75 104z" />
<glyph unicode="+" d="M226 126v194h-205v46h205v194h48v-194h205v-46h-205v-194h-48z" />
<glyph unicode="," horiz-adv-x="266" d="M87 93h100l-69 -234h-32z" />
<glyph unicode="-" horiz-adv-x="222" d="M1 217v72h222v-72h-222z" />
<glyph unicode="." horiz-adv-x="266" d="M89 0v93h89v-93h-89z" />
<glyph unicode="/" horiz-adv-x="464" d="M19 -133l358 824l50 -21l-357 -828z" />
<glyph unicode="0" horiz-adv-x="560" d="M125 57q-84 91 -84 274q0 157 66 251t178 94q114 0 175.5 -92.5t61.5 -252.5q0 -150 -64.5 -245t-176.5 -95q-95 0 -156 66zM283 53q72 0 113 75t41 208q0 131 -38.5 204t-115.5 73q-75 0 -116.5 -73.5t-41.5 -206.5q0 -134 41 -207t117 -73z" />
<glyph unicode="1" horiz-adv-x="560" d="M300 0l3 502q0 30 4 71q-38 -40 -42 -43l-115 -103l-44 49l213 191h65l-3 -667h-81z" />
<glyph unicode="2" horiz-adv-x="560" d="M61 0l-17 51q123 100 205 184q69 71 99.5 126.5t30.5 110.5q0 58 -39 94.5t-100 36.5q-38 0 -69.5 -14t-75.5 -49l-40 53q58 45 101 61.5t99 16.5q94 0 151.5 -52.5t57.5 -137.5q0 -66 -31 -125t-106 -138q-95 -101 -176 -159q50 9 81 9h242v-68h-413z" />
<glyph unicode="3" horiz-adv-x="560" d="M59 45l33 60q88 -48 151 -48q67 0 110 36.5t43 94.5q0 60 -46.5 92.5t-132.5 32.5q-29 0 -67 -3l1 67q18 -1 42 -1q195 0 195 121q0 50 -38.5 82t-97.5 32q-68 0 -146 -46l-34 54q55 32 97 44.5t94 12.5q94 0 151 -46.5t57 -123.5q0 -82 -65 -128q-20 -15 -64 -30 q57 -9 86 -36q52 -47 52 -124q0 -86 -66.5 -141.5t-168.5 -55.5q-47 0 -85 11t-101 43z" />
<glyph unicode="4" horiz-adv-x="560" d="M55 173l-18 55l311 439h84l-2 -432h100v-62h-100l-1 -173h-77l1 173h-298zM116 231q26 2 28 2l32 2h177l1 266q0 40 7 93q-31 -56 -50 -84l-145 -209q-8 -12 -26 -36z" />
<glyph unicode="5" horiz-adv-x="560" d="M65 26l23 64q70 -27 126 -27q86 0 144 53.5t58 132.5q0 61 -41.5 101.5t-104.5 40.5q-62 0 -109 -39q-25 -21 -34 -55l-66 16l74 354h336v-67h-277l-36 -151q-6 -25 -16 -52q62 61 149 61q92 0 152.5 -58t60.5 -146q0 -108 -82.5 -183t-200.5 -75q-73 0 -156 30z" />
<glyph unicode="6" horiz-adv-x="560" d="M498 673l-6 -65q-36 2 -42 2q-169 0 -254 -118q-30 -42 -45 -87t-23 -118q66 116 188 116q87 0 144.5 -56.5t57.5 -141.5q0 -92 -63.5 -154.5t-158.5 -62.5q-109 0 -177 80t-68 209q0 91 35 172.5t97 136.5q99 88 271 88q28 0 44 -1zM146 173q19 -55 59.5 -87t91.5 -32 q58 0 98.5 41.5t40.5 101.5q0 57 -38.5 97t-94.5 40q-80 0 -133 -69q-16 -20 -34 -63q8 -24 10 -29z" />
<glyph unicode="7" horiz-adv-x="560" d="M116 30l304 568h-366v69h432l32 -46l-333 -627z" />
<glyph unicode="8" horiz-adv-x="560" d="M54 169q0 92 76 142q27 17 76 32q-54 18 -83 43q-53 47 -53 117q0 75 61.5 124t155.5 49q92 0 149 -46t57 -119q0 -81 -69 -132q-22 -16 -67 -32q81 -29 116 -69.5t35 -102.5q0 -82 -64 -133t-167 -51q-101 0 -162 49t-61 129zM279 374l14 5q118 42 118 126 q0 47 -35.5 78t-90.5 31q-57 0 -95 -31.5t-38 -80.5q0 -43 29 -72t98 -56zM137 174q0 -54 40 -87.5t104 -33.5q62 0 102 33.5t40 86.5q0 49 -36 82q-35 30 -107 58q-10 -4 -20 -7.5t-14 -5.5q-109 -43 -109 -126z" />
<glyph unicode="9" horiz-adv-x="560" d="M53 -1l5 62l56 -2q170 0 254 125q27 41 40.5 83t21.5 106q-72 -111 -185 -111q-86 0 -144.5 58.5t-58.5 145.5q0 90 63 150t158 60q109 0 177.5 -80.5t68.5 -209.5q0 -172 -108.5 -281t-280.5 -109q-16 0 -67 3zM260 333q70 0 124 62q19 23 37 60q-9 57 -33 90 q-46 65 -124 65q-59 0 -99.5 -41t-40.5 -101q0 -57 39 -96t97 -39z" />
<glyph unicode=":" horiz-adv-x="266" d="M89 376v93h89l-1 -93h-88zM89 0v93h89l-1 -93h-88z" />
<glyph unicode=";" horiz-adv-x="266" d="M88 376l1 93h88v-93h-89zM87 93h100l-69 -234h-32z" />
<glyph unicode="&#x3c;" d="M33 297v76l433 208v-88l-339 -158l339 -158v-88z" />
<glyph unicode="=" d="M21 392v45h458v-45h-458zM21 250v45h458v-45h-458z" />
<glyph unicode="&#x3e;" d="M34 89v89l339 158l-339 157v88l433 -208v-76z" />
<glyph unicode="?" horiz-adv-x="470" d="M164 164v15q0 65 11 91q9 23 22.5 36.5t85.5 74.5q61 51 61 113q0 52 -39 87t-97 35q-70 0 -144 -63l-41 45q48 45 91 63.5t100 18.5q92 0 152 -52.5t60 -134.5q0 -64 -45 -118q-11 -12 -89 -74q-34 -28 -40.5 -47t-6.5 -90h-81zM163 0l1 90h87l-1 -90h-87z" />
<glyph unicode="@" horiz-adv-x="1058" d="M716 -91l29 -49q-47 -26 -114 -43.5t-117 -17.5q-198 0 -312.5 119t-114.5 326q0 186 137.5 310.5t347.5 124.5q166 0 282.5 -99.5t116.5 -274.5q0 -141 -81.5 -233t-191.5 -92q-43 0 -61.5 16.5t-18.5 59.5q0 2 0.5 5.5t0.5 4.5q-62 -77 -140 -77q-64 0 -100.5 37.5 t-36.5 102.5q0 28 10.5 51.5t24 39t41 28.5t44.5 19.5t53 13.5t49.5 9t49.5 6v7l1 54q0 71 -66 71q-65 0 -137 -61l-33 48q93 76 196 76q58 0 89 -31.5t30 -88.5l-5 -257q-2 -73 40 -73q65 0 115.5 79.5t50.5 179.5q0 153 -97 236.5t-238 83.5q-175 0 -285 -104t-110 -266 q0 -183 95 -288t268 -105q43 0 97.5 15t90.5 37zM612 116l2 128q-24 -2 -36.5 -3.5t-36 -5t-37 -8.5t-31 -13.5t-27 -19.5t-16.5 -27.5t-7 -36.5q0 -40 20.5 -62t59.5 -22q55 0 109 70z" />
<glyph unicode="A" horiz-adv-x="635" d="M7 12l280 655h76l266 -655l-81 -25l-92 235h-274l-100 -235zM210 292h218l-58 150q-39 102 -49 155q-13 -59 -51 -155z" />
<glyph unicode="B" horiz-adv-x="537" d="M83 0l3 667q91 4 140 4q93 0 147 -22q44 -17 69.5 -57t25.5 -91q0 -64 -43 -109q-29 -31 -80 -42q33 -7 52.5 -16t38.5 -28q49 -48 49 -121q0 -50 -22 -91t-62 -63q-34 -20 -68.5 -25.5t-126.5 -5.5h-123zM167 378h39q75 0 110 12q32 11 50.5 39t18.5 66q0 34 -15.5 60 t-41.5 38q-35 17 -117 17h-43zM165 63h43q73 0 91.5 2.5t42.5 15.5q59 32 59 107q0 69 -53 103q-24 16 -52 21.5t-88 5.5h-42z" />
<glyph unicode="C" horiz-adv-x="636" d="M581 104l32 -58q-69 -36 -116 -49t-109 -13q-144 0 -239.5 98t-95.5 246q0 156 99.5 255t255.5 99q57 0 102 -11.5t106 -42.5l-33 -63q-95 49 -173 49q-119 0 -194 -78.5t-75 -203.5q0 -122 72.5 -201.5t184.5 -79.5q82 0 183 53z" />
<glyph unicode="D" horiz-adv-x="696" d="M83 0l3 669l150 2l17 1q124 7 230 -45q74 -38 118.5 -116.5t44.5 -172.5q0 -84 -34.5 -154.5t-98.5 -115.5q-56 -39 -114.5 -53.5t-163.5 -14.5h-152zM167 63h67q129 0 208 46q56 34 87 93.5t31 135.5q0 148 -106 217q-77 52 -211 52h-73z" />
<glyph unicode="E" horiz-adv-x="486" d="M83 0l3 667h347v-70h-266l-1 -223h259v-68h-259l-1 -237h275v-69h-357z" />
<glyph unicode="F" horiz-adv-x="477" d="M83 0l3 667h357l-1 -68h-272l-1 -226h265v-68h-266l-1 -305h-84z" />
<glyph unicode="G" horiz-adv-x="689" d="M625 362l-2 -325q-112 -51 -222 -51q-166 0 -260 103q-88 97 -88 242q0 154 101.5 252t260.5 98q88 0 193 -46l-30 -63q-91 43 -163 43q-119 0 -196.5 -81t-77.5 -206q0 -121 75 -198.5t192 -77.5q52 0 134 25l1 285h82z" />
<glyph unicode="H" horiz-adv-x="698" d="M83 0l3 667h86l-1 -288h361l1 288h85l-3 -667h-85l1 310h-361l-1 -310h-86z" />
<glyph unicode="I" horiz-adv-x="253" d="M83 0l3 667h86l-3 -667h-86z" />
<glyph unicode="J" horiz-adv-x="336" d="M13 -13v65h13q62 0 99 31q26 23 34.5 63t9.5 143l2 378h84l-1 -383q0 -110 -11 -152q-16 -58 -48 -89.5t-86 -43.5q-68 -15 -94 -12h-2z" />
<glyph unicode="K" horiz-adv-x="584" d="M83 0l3 667h84l-2 -325l331 337l60 -52l-286 -282l289 -310l-66 -53l-328 358l-1 -340h-84z" />
<glyph unicode="L" horiz-adv-x="474" d="M83 0l3 667h85l-3 -598h288v-69h-373z" />
<glyph unicode="M" horiz-adv-x="909" d="M43 7l117 660h87l125 -337q22 -61 48 -137q14 -38 34 -113q26 107 83 250l134 337h87l107 -660l-80 -14l-48 291q-29 178 -33 299q-19 -75 -60 -183l-151 -400h-80l-147 400q-34 91 -57 183q-8 -122 -38 -299l-48 -291z" />
<glyph unicode="N" horiz-adv-x="697" d="M83 0l3 649l70 29l277 -391q52 -74 69.5 -101.5t41.5 -75.5q-11 119 -11 221l1 336h82l-3 -650l-70 -29l-276 390q-74 104 -111 180q10 -82 10 -196l-2 -362h-81z" />
<glyph unicode="O" horiz-adv-x="808" d="M53 336q0 77 33 148t91 120q92 78 226 78q155 0 255 -98t100 -249q0 -155 -100 -252t-259 -97q-152 0 -249 98t-97 252zM143 337q0 -124 73.5 -203.5t187.5 -79.5q115 0 190 79t75 201t-74 201t-188 79q-113 0 -188.5 -79.5t-75.5 -197.5z" />
<glyph unicode="P" horiz-adv-x="531" d="M83 0l3 669q122 2 150 2q67 0 103.5 -6.5t68.5 -24.5q42 -23 66.5 -67t24.5 -98q0 -60 -29.5 -106t-82.5 -68q-60 -24 -170 -24h-50l-2 -277h-82zM167 340h53q59 0 85.5 4.5t50.5 17.5q27 15 43 44.5t16 65.5q0 78 -61 116q-23 14 -45.5 17.5t-91.5 3.5h-49z" />
<glyph unicode="Q" horiz-adv-x="807" d="M731 -85l-184 98q-58 -27 -146 -27q-152 0 -250 96t-98 245q0 155 98.5 255t252.5 100t254 -98t100 -250q0 -176 -140 -282l157 -72zM143 337q0 -124 73 -203.5t187 -79.5q116 0 191 79t75 202q0 122 -73.5 201t-188.5 79q-114 0 -189 -79t-75 -199z" />
<glyph unicode="R" horiz-adv-x="581" d="M83 0l3 667q103 4 155 4q125 0 175 -34q38 -25 60 -65.5t22 -88.5q0 -81 -60 -132q-39 -34 -109 -45q27 -10 41 -20t46 -48t87 -117l68 -97l-68 -44l-66 94q-72 102 -123 162q-29 34 -50 43t-69 9h-28l-1 -288h-83zM168 350h61q85 0 124 20q61 34 61 109q0 78 -64 110 q-37 19 -122 19h-59z" />
<glyph unicode="S" horiz-adv-x="488" d="M46 40l36 60q78 -47 141 -47q59 0 96 32.5t37 85.5q0 44 -25 72.5t-89 56.5l-45 20q-137 62 -137 181q0 78 55.5 129t140.5 51q90 0 182 -51l-34 -58q-72 44 -137 44q-55 0 -90 -31t-35 -80q0 -74 89 -113l45 -20q64 -28 82 -39.5t40 -34.5q46 -47 46 -120 q0 -88 -59 -140t-158 -52q-51 0 -87 11t-94 43z" />
<glyph unicode="T" horiz-adv-x="533" d="M227 0l2 598h-214v69h510l-1 -69h-210l-3 -598h-84z" />
<glyph unicode="U" horiz-adv-x="705" d="M625 667l-2 -361q-1 -94 -7.5 -134.5t-27.5 -74.5q-32 -53 -94.5 -82t-141.5 -29q-99 0 -166 44.5t-91 125.5q-11 40 -10 150l2 361h85l-2 -361q-1 -73 1 -95.5t9 -46.5q17 -51 62.5 -80t109.5 -29q116 0 161 79q15 26 19.5 59.5t5.5 112.5l2 361h85z" />
<glyph unicode="V" horiz-adv-x="632" d="M276 0l-266 648l81 30l140 -358q48 -122 84 -236q51 148 88 236l149 358l77 -30l-277 -648h-76z" />
<glyph unicode="W" horiz-adv-x="969" d="M223 0l-207 652l83 23l110 -363q44 -144 55 -231q19 88 66 231l115 355h83l111 -359q11 -36 37 -137l9 -36q3 -10 11 -54q19 102 62 231l121 363l80 -23l-224 -652h-78l-120 380q-42 134 -52 204q-19 -81 -59 -204l-125 -380h-78z" />
<glyph unicode="X" horiz-adv-x="594" d="M17 30l230 315l-214 294l74 42l115 -160q49 -68 74 -119q35 60 79 119l118 160l70 -42l-217 -294l232 -315l-71 -46l-145 201q-36 50 -67 100q-37 -59 -66 -100l-144 -201z" />
<glyph unicode="Y" horiz-adv-x="581" d="M246 0l1 281l-238 358l74 42l136 -210q41 -65 72 -124q30 55 76 124l141 210l69 -42l-245 -353l-2 -286h-84z" />
<glyph unicode="Z" horiz-adv-x="538" d="M51 0l-19 45l366 552h-345l1 70h428l26 -45l-363 -552h353v-70h-447z" />
<glyph unicode="[" horiz-adv-x="353" d="M150 -117h129v-59h-203l4 900h203v-60h-129z" />
<glyph unicode="\" horiz-adv-x="464" d="M394 -158l-357 828l50 21l358 -824z" />
<glyph unicode="]" horiz-adv-x="353" d="M73 -116h129l4 781h-129v59h203l-4 -900h-203v60z" />
<glyph unicode="^" d="M29 371l171 298h100l171 -298h-83l-139 237l-138 -237h-82z" />
<glyph unicode="_" d="M0 -69h500v-57h-500v57z" />
<glyph unicode="`" d="M287 563l-131 138h108l86 -138h-63z" />
<glyph unicode="a" horiz-adv-x="483" d="M328 62v7q-64 -83 -150 -83q-58 0 -96.5 39t-38.5 98q0 77 71 121.5t209 54.5v29q0 52 -12 73q-17 30 -57 30q-53 0 -142 -64l-30 48q74 49 111.5 64.5t79.5 15.5q79 0 107 -57q19 -37 18 -94l-6 -218q-3 -82 30 -82q15 0 41 18l21 -41q-55 -32 -85 -32q-33 0 -52 19.5 t-19 53.5zM322 114v138q-95 -16 -129 -30q-71 -27 -71 -94q0 -35 23 -58t57 -23q30 0 56 14.5t64 52.5z" />
<glyph unicode="b" horiz-adv-x="534" d="M73 0l3 724h77l-1 -311q52 82 144 82q85 0 141 -69t56 -173q0 -113 -60.5 -190t-149.5 -77q-75 0 -137 68l4 -54h-77zM150 130q51 -82 120 -82q59 0 100 58.5t41 143.5q0 78 -36.5 128.5t-94.5 50.5q-73 0 -129 -91z" />
<glyph unicode="c" horiz-adv-x="433" d="M376 110l42 -43q-47 -47 -82 -64.5t-85 -17.5q-88 0 -147.5 72t-59.5 178q0 110 64 185t158 75q44 0 76.5 -17t76.5 -63l-47 -41q-51 58 -105 58q-61 0 -101.5 -55.5t-40.5 -138.5q0 -85 39 -138.5t100 -53.5q55 0 112 64z" />
<glyph unicode="d" horiz-adv-x="538" d="M386 0l9 78q-26 -49 -62 -71t-88 -22q-88 0 -144.5 69.5t-56.5 177.5q0 110 62.5 186.5t152.5 76.5q80 0 129 -70l2 299h79l-3 -724h-80zM387 142l1 206q-26 44 -52.5 62.5t-63.5 18.5q-63 0 -104.5 -56t-41.5 -141q0 -80 37.5 -133t94.5 -53q39 0 69.5 23t59.5 73z" />
<glyph unicode="e" horiz-adv-x="482" d="M397 116l39 -42q-52 -49 -92.5 -68.5t-89.5 -19.5q-94 0 -152 67.5t-58 176.5q0 115 62 190t157 75q110 0 156 -102q26 -55 26 -145h-320q-1 -6 -1 -14q0 -80 38 -133t96 -53q68 0 139 68zM132 302h235q-15 135 -102 135q-64 0 -104 -59q-17 -23 -29 -76z" />
<glyph unicode="f" horiz-adv-x="306" d="M103 0l2 424h-92v56h92v39q0 94 35 143q45 64 138 64q9 0 33 -2v-54h-22q-54 0 -80 -34q-25 -34 -25 -117v-39h127v-56h-127l-2 -424h-79z" />
<glyph unicode="g" horiz-adv-x="511" d="M218 91l92 -16q170 -29 170 -130q0 -58 -45 -106q-69 -72 -201 -72q-94 0 -153 37.5t-59 96.5q0 81 133 139l-37 7q-38 8 -60.5 22.5t-22.5 33.5t23.5 41t89.5 64q-64 45 -64 125q0 70 48.5 116t122.5 46q45 0 88 -23l160 4v-55l-115 5q37 -41 37 -95q0 -69 -47.5 -115 t-120.5 -46q-41 0 -80 20q-58 -42 -58 -60q0 -12 22 -20.5t77 -18.5zM254 220q42 0 69 31.5t27 80.5q0 48 -25.5 78t-66.5 30q-43 0 -70.5 -31t-27.5 -81q0 -48 26.5 -78t67.5 -30zM298 10l-96 19q-57 -33 -80.5 -60t-23.5 -60q0 -41 38.5 -66.5t100.5 -25.5 q69 0 116.5 32.5t47.5 79.5q0 61 -103 81z" />
<glyph unicode="h" horiz-adv-x="527" d="M73 0l3 724h79l-2 -320q75 91 169 91q53 0 88.5 -29.5t45.5 -81.5q3 -18 3 -85l-1 -299h-80l1 315q0 53 -13 76q-8 15 -28 25.5t-41 10.5q-34 0 -67 -19.5t-77 -65.5l-2 -342h-78z" />
<glyph unicode="i" horiz-adv-x="229" d="M75 586v88h84v-88h-84zM74 0l2 480h82l-2 -480h-82z" />
<glyph unicode="j" horiz-adv-x="238" d="M84 586v88h84l-1 -88h-83zM84 -52l3 532h80l-2 -532q0 -94 -41.5 -138t-128.5 -42v57h17q38 0 55 28.5t17 94.5z" />
<glyph unicode="k" horiz-adv-x="474" d="M73 0l3 724h78l-3 -476l248 255l52 -49l-202 -202l207 -228l-60 -48l-245 271l-1 -247h-77z" />
<glyph unicode="l" horiz-adv-x="224" d="M73 0l3 724h78l-3 -724h-78z" />
<glyph unicode="m" horiz-adv-x="806" d="M73 0l2 480h78l-7 -79q74 93 170 93t115 -93q46 51 85.5 72t89.5 21q134 0 133 -165l-2 -329h-80l2 329q0 46 -20 71.5t-55 25.5q-68 0 -139 -80l-2 -346h-79l2 323q0 49 -20 76.5t-55 27.5q-64 0 -139 -81l-1 -346h-78z" />
<glyph unicode="n" horiz-adv-x="528" d="M73 0l2 480h77l-4 -80q47 51 87.5 72.5t89.5 21.5q50 0 84 -26t45 -72q6 -12 6 -77l-1 -319h-81l1 307q0 59 -11 81q-8 17 -27.5 28t-42.5 11q-35 0 -67 -18.5t-80 -65.5l-1 -343h-77z" />
<glyph unicode="o" horiz-adv-x="543" d="M44 241q0 112 65.5 183t167.5 71q100 0 162.5 -68.5t62.5 -178.5q0 -116 -66 -191q-62 -71 -169 -71q-101 0 -162 69.5t-61 185.5zM126 240q0 -86 39.5 -139t104.5 -53q67 0 108.5 55t41.5 143q0 83 -40 136t-104 53q-65 0 -107.5 -55t-42.5 -140z" />
<glyph unicode="p" horiz-adv-x="532" d="M150 48l-2 -274h-76l3 706h76l-3 -74q32 47 67 67.5t82 20.5q82 0 138 -69.5t56 -172.5q0 -111 -61 -186.5t-152 -75.5q-74 0 -128 58zM150 126q50 -75 116 -75q62 0 103 56.5t41 141.5q0 78 -37 128.5t-95 50.5q-36 0 -63.5 -19t-63.5 -69z" />
<glyph unicode="q" horiz-adv-x="535" d="M387 -226l1 292q-28 -43 -61 -61.5t-80 -18.5q-90 0 -146.5 68t-56.5 176q0 112 61.5 188t153.5 76q76 0 134 -75l-3 61h75l-3 -706h-75zM388 142l1 204q-49 81 -120 81q-61 0 -102.5 -56t-41.5 -139q0 -80 38 -132t97 -52q38 0 67.5 21t60.5 73z" />
<glyph unicode="r" horiz-adv-x="323" d="M73 0l2 480h79l-5 -103q56 111 133 111q16 0 44 -8l-22 -68q-19 4 -28 4q-36 0 -64 -24t-59 -80l-2 -312h-78z" />
<glyph unicode="s" horiz-adv-x="377" d="M40 34l31 49q44 -22 64 -28.5t44 -6.5q39 0 64.5 22t25.5 55q0 49 -82 82l-15 6q-63 25 -93 58.5t-30 81.5q0 63 44.5 102.5t115.5 39.5q66 0 137 -41l-35 -49q-51 31 -99 31q-37 0 -62 -21.5t-25 -53.5q0 -50 67 -77l41 -16q113 -44 113 -134q0 -62 -45.5 -102.5 t-115.5 -40.5q-74 0 -145 43z" />
<glyph unicode="t" horiz-adv-x="328" d="M299 84l24 -48q-67 -43 -120 -43q-36 0 -63.5 20t-37.5 54l-1 9q-1 9 -2.5 27t-1.5 39l1 282h-85v56h85l1 181h79l-1 -181h130v-56h-130l-1 -282q0 -47 10.5 -67.5t35.5 -20.5q24 0 77 30z" />
<glyph unicode="u" horiz-adv-x="519" d="M369 0l4 80q-49 -52 -86 -73t-81 -21q-47 0 -81 23t-47 63q-8 27 -8 90l1 318h81l-1 -326q0 -52 13 -71q21 -32 61 -32q35 0 65 18.5t80 70.5l1 340h77l-2 -480h-77z" />
<glyph unicode="v" horiz-adv-x="474" d="M194 0l-176 471l80 23l97 -280q23 -66 40 -146q17 70 45 146l105 280l75 -23l-190 -471h-76z" />
<glyph unicode="w" horiz-adv-x="741" d="M167 0l-142 471l78 21l78 -296q18 -68 26 -125h4q10 55 33 125l91 284h78l80 -284q20 -69 26 -125h3q13 74 30 125l97 296l72 -21l-166 -471h-76l-89 312q-11 40 -16 85h-4q-7 -43 -21 -85l-106 -312h-76z" />
<glyph unicode="x" horiz-adv-x="457" d="M23 23l161 223l-154 210l68 42l130 -198l139 198l62 -42l-157 -210l163 -223l-70 -42l-138 210l-143 -210z" />
<glyph unicode="y" horiz-adv-x="470" d="M29 -176q53 0 75 12.5t40 52.5l52 118l-178 466l81 22l112 -318q20 -57 30 -108q6 56 25 108l115 318l75 -22l-216 -547q-22 -55 -38 -84t-41 -47t-52.5 -22.5t-79.5 -5.5v57z" />
<glyph unicode="z" horiz-adv-x="432" d="M46 0l-17 38l266 376h-247v66h341l17 -36l-268 -380h256v-64h-348z" />
<glyph unicode="{" d="M188 -38v157q0 43 -12.5 64t-44.5 31v68q31 8 44 29t13 62v171q0 72 33 104q18 18 47.5 25t85.5 7q10 0 17 -1v-78q-57 -1 -76.5 -20t-19.5 -71v-150q0 -47 -12 -72t-43 -42q31 -17 43 -43t12 -73v-147q0 -56 19.5 -75t76.5 -20v-75h-15q-61 0 -90 7t-47 27 q-31 34 -31 115z" />
<glyph unicode="|" d="M206 -167v834h89v-834h-89z" />
<glyph unicode="}" d="M130 -108q56 1 75.5 20t19.5 71v150q0 47 12 72t43 42q-31 17 -43 43t-12 73v147q0 55 -19.5 74t-75.5 21v75h15q60 0 89 -7t47 -27q31 -34 31 -115v-157q0 -44 13 -65t45 -30v-68q-31 -8 -44.5 -29t-13.5 -62v-171q0 -72 -33 -104q-18 -18 -47.5 -25t-85.5 -7h-16v79z " />
<glyph unicode="~" horiz-adv-x="667" d="M140 576l-46 37q53 116 138 116q38 0 115 -38q65 -32 91 -32q49 0 89 72l47 -37q-52 -114 -146 -114q-20 0 -39.5 7t-79.5 36q-53 26 -81 26q-25 0 -45 -17t-43 -56z" />
<glyph unicode="&#xa1;" horiz-adv-x="272" d="M95 391l1 89h85l-1 -89h-85zM95 -190l2 509h81l-2 -509h-81z" />
<glyph unicode="&#xa2;" horiz-adv-x="560" d="M226 31l16 81q-134 67 -134 226q0 102 61.5 174.5t148.5 68.5l19 -1l13 65l36 -8l-13 -66q47 -17 91 -65l-44 -38q-29 31 -59 45l-72 -350q20 -5 28 -5q50 0 107 60l38 -40q-44 -45 -76.5 -61t-78.5 -16q-9 0 -29 2l-17 -79zM255 178l70 343q-62 0 -101 -51t-39 -131 q0 -112 70 -161z" />
<glyph unicode="&#xa3;" horiz-adv-x="560" d="M45 0v60q77 6 105 62t29 207h-126v54h126q2 154 61.5 224.5t187.5 70.5q13 0 72 -3l-1 -62q-42 2 -52 2q-121 0 -159 -79q-24 -51 -24 -153h222l-1 -54h-222q-2 -124 -24 -184t-74 -85q58 6 84 6h252v-66h-456z" />
<glyph unicode="&#xa4;" horiz-adv-x="691" d="M65 109l92 94q-46 66 -46 139q0 36 10.5 66t37.5 72l-96 95l47 47l96 -95q44 28 73.5 38t66.5 10t66 -10t72 -38l96 95l47 -47l-94 -94q48 -71 48 -141q0 -36 -10 -65t-36 -72l94 -94l-47 -48l-94 94q-67 -48 -137 -48q-68 0 -146 48l-93 -93zM190 342q0 -65 46 -111.5 t110 -46.5q65 0 111 46.5t46 111.5t-45.5 111.5t-108.5 46.5q-67 0 -113 -46t-46 -112z" />
<glyph unicode="&#xa5;" horiz-adv-x="560" d="M239 0l1 260h-184v54h163l-52 79h-138v55h101l-129 193l73 40l136 -212q38 -59 71 -124q28 51 76 124l140 212l68 -40l-133 -193h101l-1 -55h-138l-55 -79h165l-1 -54h-183l-1 -260h-80z" />
<glyph unicode="&#xa6;" d="M206 330v337h89v-337h-89zM206 153h89v-320h-89v320z" />
<glyph unicode="&#xa7;" horiz-adv-x="515" d="M71 -43l33 53q73 -48 142 -48q57 0 91.5 22.5t34.5 60.5q0 34 -22.5 53.5t-79.5 36.5l-94 28q-63 19 -92 46.5t-29 68.5q0 56 49 94q15 12 58 28q-46 22 -66 49.5t-20 68.5q0 69 53.5 113.5t137.5 44.5q47 0 85.5 -12.5t94.5 -44.5l-34 -53q-73 47 -139 47 q-50 0 -82.5 -25t-32.5 -63q0 -31 22 -50.5t74 -35.5l94 -28q62 -19 88 -44t26 -66q0 -42 -23 -71.5t-75 -53.5q44 -17 64 -42q26 -35 26 -77q0 -68 -58.5 -114t-145.5 -46q-91 0 -180 60zM197 385l-24 -18q-44 -32 -44 -70q0 -30 29 -51q11 -9 65 -26l88 -28l31 20 q44 28 44 67q0 50 -83 74z" />
<glyph unicode="&#xa8;" d="M296 583l1 87h83v-87h-84zM125 583v87h85l-1 -87h-84z" />
<glyph unicode="&#xa9;" horiz-adv-x="780" d="M43 334q0 143 101.5 245t245.5 102q143 0 245 -102t102 -245q0 -144 -102 -245.5t-245 -101.5q-144 0 -245.5 101.5t-101.5 245.5zM100 335q0 -126 83.5 -211t206.5 -85q122 0 205.5 85t83.5 211q0 124 -83.5 209t-205.5 85q-123 0 -206.5 -85t-83.5 -209zM515 267h60 q-15 -68 -62.5 -108t-111.5 -40q-93 0 -150.5 61.5t-57.5 154.5q0 94 55.5 154t149.5 60q69 0 117.5 -38t58.5 -105h-59q-8 38 -39 62t-77 24q-67 0 -104.5 -44t-37.5 -112q0 -67 39.5 -113.5t104.5 -46.5q46 0 76.5 25t37.5 66z" />
<glyph unicode="&#xaa;" horiz-adv-x="317" d="M297 312l16 -31q-37 -21 -57 -21t-33.5 11.5t-14.5 28.5q-37 -42 -89 -42q-37 0 -62.5 24.5t-25.5 59.5q0 95 173 107v14l1 8q3 22 -8 36t-31 14q-33 0 -89 -40l-23 35q49 30 72.5 39.5t50.5 9.5q86 0 82 -93l-4 -135q0 -38 15 -38q8 0 27 13zM204 338v77q-52 -9 -75 -18 q-41 -15 -41 -52q0 -20 13 -32.5t33 -12.5q31 0 70 38z" />
<glyph unicode="&#xab;" horiz-adv-x="440" d="M203 247l154 184l35 -23l-110 -161l109 -157l-36 -26zM190 64l-152 183l154 184l36 -23l-111 -161l109 -157z" />
<glyph unicode="&#xac;" d="M33 201v78h433v-279h-86v201h-347z" />
<glyph unicode="&#xad;" horiz-adv-x="222" d="M1 217v72h222v-72h-222z" />
<glyph unicode="&#xae;" horiz-adv-x="780" d="M43 334q0 143 101.5 245t245.5 102q143 0 245 -102t102 -245q0 -144 -102 -245.5t-245 -101.5q-144 0 -245.5 101.5t-101.5 245.5zM100 335q0 -126 83.5 -211t206.5 -85q122 0 205.5 85t83.5 211q0 124 -83.5 209t-205.5 85q-123 0 -206.5 -85t-83.5 -209zM252 131v405 h168q128 0 128 -115q0 -98 -105 -110l117 -180h-65l-110 178h-75v-178h-58zM310 356h72q54 0 81 12.5t27 55.5q0 38 -23.5 52t-69.5 14h-87v-134z" />
<glyph unicode="&#xaf;" horiz-adv-x="409" d="M67 594v54h276v-54h-276z" />
<glyph unicode="&#xb0;" d="M250 377q-60 0 -102 42t-42 102t42 102t102 42t101.5 -42.5t41.5 -102.5q0 -58 -42.5 -100.5t-100.5 -42.5zM250 417q41 0 72 30.5t31 71.5q0 44 -30.5 75t-74.5 31q-41 0 -71.5 -30.5t-30.5 -73.5t30.5 -73.5t73.5 -30.5z" />
<glyph unicode="&#xb1;" d="M226 141v190h-205v46h205v194h48v-194h205v-46h-205v-190h-48zM21 51v46h458v-46h-458z" />
<glyph unicode="&#xb2;" horiz-adv-x="372" d="M46 267l-13 37q116 87 164 142t48 101q0 32 -23 52t-60 20q-41 0 -92 -38l-32 39q40 28 68 38.5t66 10.5q61 0 99 -32t38 -83q0 -40 -19.5 -75.5t-68.5 -82.5q-55 -53 -94 -81l188 2v-50h-269z" />
<glyph unicode="&#xb3;" horiz-adv-x="372" d="M41 296l26 44q58 -29 97 -29q40 0 65.5 20t25.5 51q0 68 -108 68q-12 0 -46 -2v49h31q119 0 119 66q0 26 -23 43.5t-58 17.5q-43 0 -94 -28l-27 40q68 36 128 36q61 0 98.5 -29t37.5 -75q0 -31 -18 -55.5t-49 -35.5q32 -8 52 -34.5t20 -60.5q0 -52 -43 -86t-110 -34 q-51 0 -124 34z" />
<glyph unicode="&#xb4;" d="M156 563l86 138h108l-131 -138h-63z" />
<glyph unicode="&#xb5;" d="M124 60v-227h-76v647h76v-269q0 -48 6.5 -72.5t24.5 -44.5q37 -42 90 -42q58 0 94.5 46.5t36.5 121.5v260h76v-480h-76v89q-41 -102 -132 -102q-41 0 -69 17t-51 56z" />
<glyph unicode="&#xb6;" horiz-adv-x="563" d="M231 -113v427h-16q-81 0 -132.5 49t-51.5 126q0 49 22.5 89.5t61.5 62.5q46 26 135 26h239v-38h-58v-742h-47v742h-106v-742h-47z" />
<glyph unicode="&#xb7;" horiz-adv-x="272" d="M91 206v93h89l-1 -93h-88z" />
<glyph unicode="&#xb8;" d="M183 -78l59 84l52 2l-49 -71q16 4 31 4q32 0 53.5 -20t21.5 -49q0 -37 -30 -60.5t-77 -23.5q-48 0 -95 23l23 41q29 -16 62 -16q23 0 37 9.5t14 25.5q0 14 -13 23t-32 9q-25 0 -34 -4z" />
<glyph unicode="&#xb9;" horiz-adv-x="372" d="M196 267l2 327l-93 -79l-34 36l140 116h47l-1 -400h-61z" />
<glyph unicode="&#xba;" horiz-adv-x="354" d="M174 258q-64 0 -103 42t-39 112q0 67 41.5 110t106.5 43q64 0 104 -41.5t40 -107.5q0 -71 -41.5 -114.5t-108.5 -43.5zM176 301q39 0 64 31.5t25 81.5q0 49 -24 79t-62 30t-63 -31.5t-25 -80.5t23.5 -79.5t61.5 -30.5z" />
<glyph unicode="&#xbb;" horiz-adv-x="440" d="M215 88l110 160l-109 157l36 26l152 -183l-153 -184zM50 88l110 160l-109 157l36 26l153 -183l-154 -184z" />
<glyph unicode="&#xbc;" horiz-adv-x="840" d="M247 1l306 693l44 -25l-306 -691zM196 267l2 327l-93 -79l-34 36l140 116h47l-1 -400h-61zM496 139l199 261h60l-1 -252h63v-47h-63v-101h-59v101h-186zM562 147h7q10 1 20 1h107l2 182q-16 -25 -20 -29l-91 -122z" />
<glyph unicode="&#xbd;" horiz-adv-x="840" d="M247 1l306 693l44 -25l-306 -691zM196 267l2 327l-93 -79l-34 36l140 116h47l-1 -400h-61zM500 37q116 87 164 142t48 101q0 32 -23 52t-60 20q-41 0 -92 -38l-32 39q41 29 69 39t65 10q61 0 99 -32t38 -83q0 -40 -19.5 -75.5t-68.5 -82.5q-55 -53 -94 -81l188 2v-50 h-269z" />
<glyph unicode="&#xbe;" horiz-adv-x="840" d="M247 1l306 693l43 -25l-306 -691zM41 296l26 44q58 -29 97 -29q40 0 65.5 20t25.5 51q0 68 -108 68q-12 0 -46 -2v49h31q119 0 119 66q0 26 -23 43.5t-58 17.5q-43 0 -94 -28l-27 40q68 36 128 36q61 0 98.5 -29t37.5 -75q0 -31 -18 -55.5t-49 -35.5q32 -8 52 -34.5 t20 -60.5q0 -52 -43 -86t-110 -34q-51 0 -124 34zM495 139l199 261h61l-1 -252h63v-47h-64v-101h-59l1 101h-186zM561 147h7q11 1 20 1h107l2 182q-18 -28 -19 -29l-108 -144q-1 0 -9 -10z" />
<glyph unicode="&#xbf;" horiz-adv-x="470" d="M222 390v90h87v-90h-87zM409 -72l41 -45q-48 -45 -91 -63.5t-100 -18.5q-92 0 -152 52.5t-60 134.5q0 62 46 117q17 19 88 75q34 28 40.5 47.5t6.5 89.5h81v-15q0 -65 -11 -91q-9 -23 -22.5 -36.5t-85.5 -74.5q-61 -51 -61 -113q0 -52 39 -87t97 -35q70 0 144 63z" />
<glyph unicode="&#xc0;" horiz-adv-x="635" d="M296 724l-131 138h108l86 -138h-63zM7 12l280 655h76l266 -655l-81 -25l-92 235h-274l-100 -235zM210 292h218l-58 150q-39 102 -49 155q-13 -59 -51 -155z" />
<glyph unicode="&#xc1;" horiz-adv-x="635" d="M299 724l86 138h108l-131 -138h-63zM7 12l280 655h76l266 -655l-81 -25l-92 235h-274l-100 -235zM210 292h218l-58 150q-39 102 -49 155q-13 -59 -51 -155z" />
<glyph unicode="&#xc2;" horiz-adv-x="635" d="M197 724l94 136h79l94 -136h-73l-63 92l-60 -92h-71zM7 12l280 655h76l266 -655l-81 -25l-92 235h-274l-100 -235zM210 292h218l-58 150q-39 102 -49 155q-13 -59 -51 -155z" />
<glyph unicode="&#xc3;" horiz-adv-x="635" d="M196 741q9 99 86 99q23 0 52 -11l19 -7q26 -9 40 -9q26 0 33 39h41q-2 -47 -24 -73t-59 -26q-18 0 -47 9l-20 6q-39 11 -46 11q-27 0 -35 -38h-40zM7 12l280 655h76l266 -655l-81 -25l-92 235h-274l-100 -235zM210 292h218l-58 150q-39 102 -49 155q-13 -59 -51 -155z " />
<glyph unicode="&#xc4;" horiz-adv-x="635" d="M376 753v90h87l-1 -90h-86zM194 753v90h87v-90h-87zM7 12l280 655h76l266 -655l-81 -25l-92 235h-274l-100 -235zM210 292h218l-58 150q-39 102 -49 155q-13 -59 -51 -155z" />
<glyph unicode="&#xc5;" horiz-adv-x="635" d="M329 714q-40 0 -68 27t-28 66q0 38 29 64.5t69 26.5q39 0 67 -27t28 -65t-28.5 -65t-68.5 -27zM329 748q24 0 41 17t17 41q0 23 -17 40.5t-40 17.5q-25 0 -42 -17t-17 -40q0 -25 17 -42t41 -17zM7 12l280 655h76l266 -655l-81 -25l-92 235h-274l-100 -235zM210 292h218 l-58 150q-39 102 -49 155q-13 -59 -51 -155z" />
<glyph unicode="&#xc6;" horiz-adv-x="851" d="M0 25l425 642h372v-67h-263l-1 -226h263l-1 -68h-263l-1 -237h275l-1 -69h-356l1 225h-226l-155 -239zM266 291h184l1 193q0 60 6 116q-46 -87 -103 -174z" />
<glyph unicode="&#xc7;" horiz-adv-x="636" d="M309 -78l45 63q-134 14 -217.5 109t-83.5 234q0 156 99.5 255t255.5 99q57 0 102 -11.5t106 -42.5l-33 -63q-55 28 -92 38.5t-81 10.5q-119 0 -194 -78.5t-75 -203.5q0 -122 72.5 -201.5t184.5 -79.5q82 0 183 53l32 -58q-63 -33 -107.5 -46.5t-102.5 -15.5l-33 -47 q17 4 32 4q31 0 52.5 -20t21.5 -49q0 -37 -30 -60.5t-77 -23.5t-94 23l23 41q29 -16 61 -16q23 0 37 9.5t14 25.5q0 14 -13 23t-32 9q-23 0 -34 -4z" />
<glyph unicode="&#xc8;" horiz-adv-x="486" d="M257 724l-131 138h108l86 -138h-63zM83 0l3 667h347v-70h-266l-1 -223h259v-68h-259l-1 -237h275v-69h-357z" />
<glyph unicode="&#xc9;" horiz-adv-x="486" d="M244 724l86 138h108l-131 -138h-63zM83 0l3 667h347v-70h-266l-1 -223h259v-68h-259l-1 -237h275v-69h-357z" />
<glyph unicode="&#xca;" horiz-adv-x="486" d="M140 724l94 136h79l94 -136h-73l-63 92l-60 -92h-71zM83 0l3 667h347v-70h-266l-1 -223h259v-68h-259l-1 -237h275v-69h-357z" />
<glyph unicode="&#xcb;" horiz-adv-x="486" d="M310 753v90h87l-1 -90h-86zM128 753v90h87v-90h-87zM83 0l3 667h347v-70h-266l-1 -223h259v-68h-259l-1 -237h275v-69h-357z" />
<glyph unicode="&#xcc;" horiz-adv-x="253" d="M102 724l-131 138h108l86 -138h-63zM83 0l3 667h86l-3 -667h-86z" />
<glyph unicode="&#xcd;" horiz-adv-x="253" d="M105 724l86 138h108l-131 -138h-63zM83 0l3 667h86l-3 -667h-86z" />
<glyph unicode="&#xce;" horiz-adv-x="253" d="M3 724l94 136h79l94 -136h-73l-63 92l-60 -92h-71zM84 0l3 667h86l-3 -667h-86z" />
<glyph unicode="&#xcf;" horiz-adv-x="253" d="M159 743l1 88h71v-88h-72zM42 743v88h72l-1 -88h-71zM83 0l3 667h86l-2 -667h-87z" />
<glyph unicode="&#xd0;" horiz-adv-x="696" d="M83 0l2 318h-72v60h72l1 291l150 2l18 1q123 7 229 -45q74 -38 118.5 -116.5t44.5 -173.5q0 -83 -34.5 -154t-97.5 -115q-56 -39 -115 -53.5t-164 -14.5h-152zM168 63h67q128 0 207 46q56 34 87 93t31 135q0 147 -106 218q-77 52 -210 52h-74l-1 -229h144v-60h-144z" />
<glyph unicode="&#xd1;" horiz-adv-x="697" d="M242 741q9 99 86 99q23 0 52 -11l19 -7q26 -9 40 -9q26 0 33 39h41q-2 -47 -24 -73t-59 -26q-18 0 -47 9l-20 6q-39 11 -46 11q-27 0 -35 -38h-40zM83 0l3 649l70 29l277 -391q52 -74 69.5 -101.5t41.5 -75.5q-11 119 -11 221l1 336h82l-3 -650l-70 -29l-276 390 q-74 104 -111 180q10 -82 10 -196l-2 -362h-81z" />
<glyph unicode="&#xd2;" horiz-adv-x="808" d="M377 724l-131 138h108l86 -138h-63zM53 336q0 77 33 148t91 120q92 78 226 78q155 0 255 -98t100 -249q0 -155 -100 -252t-259 -97q-152 0 -249 98t-97 252zM143 337q0 -124 73.5 -203.5t187.5 -79.5q115 0 190 79t75 201t-74 201t-188 79q-113 0 -188.5 -79.5 t-75.5 -197.5z" />
<glyph unicode="&#xd3;" horiz-adv-x="808" d="M372 724l86 138h108l-131 -138h-63zM53 336q0 77 33 148t91 120q92 78 226 78q155 0 255 -98t100 -249q0 -155 -100 -252t-259 -97q-152 0 -249 98t-97 252zM143 337q0 -124 73.5 -203.5t187.5 -79.5q115 0 190 79t75 201t-74 201t-188 79q-113 0 -188.5 -79.5 t-75.5 -197.5z" />
<glyph unicode="&#xd4;" horiz-adv-x="808" d="M277 724l94 136h79l94 -136h-73l-63 92l-60 -92h-71zM53 336q0 77 33 148t91 120q92 78 226 78q155 0 255 -98t100 -249q0 -155 -100 -252t-259 -97q-152 0 -249 98t-97 252zM143 337q0 -124 73.5 -203.5t187.5 -79.5q115 0 190 79t75 201t-74 201t-188 79 q-113 0 -188.5 -79.5t-75.5 -197.5z" />
<glyph unicode="&#xd5;" horiz-adv-x="808" d="M282 741q9 99 86 99q23 0 52 -11l19 -7q26 -9 40 -9q26 0 33 39h41q-2 -47 -24 -73t-59 -26q-18 0 -47 9l-20 6q-39 11 -46 11q-27 0 -35 -38h-40zM53 336q0 77 33 148t91 120q92 78 226 78q155 0 255 -98t100 -249q0 -155 -100 -252t-259 -97q-152 0 -249 98t-97 252z M143 337q0 -124 73.5 -203.5t187.5 -79.5q115 0 190 79t75 201t-74 201t-188 79q-113 0 -188.5 -79.5t-75.5 -197.5z" />
<glyph unicode="&#xd6;" horiz-adv-x="808" d="M458 753v90h87l-1 -90h-86zM276 753v90h87v-90h-87zM53 336q0 77 33 148t91 120q92 78 226 78q155 0 255 -98t100 -249q0 -155 -100 -252t-259 -97q-152 0 -249 98t-97 252zM143 337q0 -124 73.5 -203.5t187.5 -79.5q115 0 190 79t75 201t-74 201t-188 79 q-113 0 -188.5 -79.5t-75.5 -197.5z" />
<glyph unicode="&#xd7;" d="M93 153l-34 33l158 158l-157 156l33 33l156 -157l158 158l33 -34l-158 -157l158 -157l-33 -33l-157 158z" />
<glyph unicode="&#xd8;" horiz-adv-x="809" d="M87 0l70 80q-104 97 -104 250q0 155 100.5 253t258.5 98q61 0 107 -14.5t104 -52.5l66 76l33 -28l-66 -74q55 -58 79.5 -117t24.5 -132q0 -156 -100.5 -254.5t-259.5 -98.5q-117 0 -213 67l-68 -78zM209 142l364 414q-72 57 -162 57q-119 0 -193.5 -79t-74.5 -204 q0 -108 66 -188zM240 113q77 -59 165 -59q116 0 190.5 79t74.5 202q0 105 -67 191z" />
<glyph unicode="&#xd9;" horiz-adv-x="705" d="M352 724l-131 138h108l86 -138h-63zM625 667l-2 -361q-1 -94 -7.5 -134.5t-27.5 -74.5q-32 -53 -94.5 -82t-141.5 -29q-99 0 -166 44.5t-91 125.5q-11 40 -10 150l2 361h85l-2 -361q-1 -73 1 -95.5t9 -46.5q17 -51 62.5 -80t109.5 -29q116 0 161 79q15 26 19.5 59.5 t5.5 112.5l2 361h85z" />
<glyph unicode="&#xda;" horiz-adv-x="705" d="M338 724l86 138h108l-131 -138h-63zM625 667l-2 -361q-1 -94 -7.5 -134.5t-27.5 -74.5q-32 -53 -94.5 -82t-141.5 -29q-99 0 -166 44.5t-91 125.5q-11 40 -10 150l2 361h85l-2 -361q-1 -73 1 -95.5t9 -46.5q17 -51 62.5 -80t109.5 -29q116 0 161 79q15 26 19.5 59.5 t5.5 112.5l2 361h85z" />
<glyph unicode="&#xdb;" horiz-adv-x="705" d="M240 724l94 136h79l94 -136h-73l-63 92l-60 -92h-71zM625 667l-2 -361q-1 -94 -7.5 -134.5t-27.5 -74.5q-32 -53 -94.5 -82t-141.5 -29q-99 0 -166 44.5t-91 125.5q-11 40 -10 150l2 361h85l-2 -361q-1 -73 1 -95.5t9 -46.5q17 -51 62.5 -80t109.5 -29q116 0 161 79 q15 26 19.5 59.5t5.5 112.5l2 361h85z" />
<glyph unicode="&#xdc;" horiz-adv-x="705" d="M421 753v90h87l-1 -90h-86zM239 753v90h87v-90h-87zM625 667l-2 -361q-1 -94 -7.5 -134.5t-27.5 -74.5q-32 -53 -94.5 -82t-141.5 -29q-99 0 -166 44.5t-91 125.5q-11 40 -10 150l2 361h85l-2 -361q-1 -73 1 -95.5t9 -46.5q17 -51 62.5 -80t109.5 -29q116 0 161 79 q15 26 19.5 59.5t5.5 112.5l2 361h85z" />
<glyph unicode="&#xdd;" horiz-adv-x="581" d="M268 724l86 138h108l-131 -138h-63zM246 0l1 281l-238 358l74 42l136 -210q41 -65 72 -124q30 55 76 124l141 210l69 -42l-245 -353l-2 -286h-84z" />
<glyph unicode="&#xde;" horiz-adv-x="561" d="M64 0v667h88v-80h159q106 0 166.5 -54t60.5 -148q0 -89 -59.5 -143.5t-156.5 -54.5h-170v-187h-88zM152 257h140q64 0 99 21q59 36 59 108q0 70 -47 104q-33 24 -105 24h-146v-257z" />
<glyph unicode="&#xdf;" horiz-adv-x="533" d="M73 0l2 501q0 86 30 137q23 41 69 64.5t101 23.5q63 0 103 -32t40 -84q0 -56 -47 -109l-18 -20q-30 -34 -30 -50q0 -12 46 -57l35 -34q53 -52 73.5 -88.5t20.5 -80.5q0 -77 -59 -127.5t-149 -50.5q-16 0 -49 3l5 59q5 -1 11 -1q15 -1 30 -1q55 0 91.5 31.5t36.5 78.5 q0 30 -14 55.5t-51 65.5l-65 68q-38 41 -38 67q0 23 29 64l31 43q32 43 32 79q0 29 -20 47t-51 18q-47 0 -78 -36q-33 -38 -34 -115l-5 -519h-78z" />
<glyph unicode="&#xe0;" horiz-adv-x="483" d="M245 563l-131 138h108l86 -138h-63zM328 62v7q-64 -83 -150 -83q-58 0 -96.5 39t-38.5 98q0 77 71 121.5t209 54.5v29q0 52 -12 73q-17 30 -57 30q-53 0 -142 -64l-30 48q74 49 111.5 64.5t79.5 15.5q79 0 107 -57q17 -33 17 -94v-40l-5 -178q-3 -82 30 -82q15 0 41 18 l21 -41q-55 -32 -85 -32q-33 0 -52 19.5t-19 53.5zM322 114v138q-95 -16 -129 -30q-71 -27 -71 -94q0 -35 23 -58t57 -23q30 0 56 14.5t64 52.5z" />
<glyph unicode="&#xe1;" horiz-adv-x="483" d="M226 563l86 138h108l-131 -138h-63zM328 62v7q-64 -83 -150 -83q-58 0 -96.5 39t-38.5 98q0 77 71 121.5t209 54.5v29q0 52 -12 73q-17 30 -57 30q-53 0 -142 -64l-30 48q74 49 111.5 64.5t79.5 15.5q79 0 107 -57q17 -33 17 -94v-40l-5 -178q-3 -82 30 -82q15 0 41 18 l21 -41q-55 -32 -85 -32q-33 0 -52 19.5t-19 53.5zM322 114v138q-95 -16 -129 -30q-71 -27 -71 -94q0 -35 23 -58t57 -23q30 0 56 14.5t64 52.5z" />
<glyph unicode="&#xe2;" horiz-adv-x="483" d="M148 562l94 137h79l94 -137h-73l-63 93l-60 -93h-71zM328 62v7q-64 -83 -150 -83q-58 0 -96.5 39t-38.5 98q0 77 71 121.5t209 54.5v29q0 52 -12 73q-17 30 -57 30q-53 0 -142 -64l-30 48q74 49 111.5 64.5t79.5 15.5q79 0 107 -57q17 -33 17 -94v-40l-5 -178 q-3 -82 30 -82q15 0 41 18l21 -41q-55 -32 -85 -32q-33 0 -52 19.5t-19 53.5zM322 114v138q-95 -16 -129 -30q-71 -27 -71 -94q0 -35 23 -58t57 -23q30 0 56 14.5t64 52.5z" />
<glyph unicode="&#xe3;" horiz-adv-x="483" d="M142 593q9 100 86 100q20 0 52 -11l19 -7q25 -9 39 -9q27 0 34 39h41q-2 -47 -24 -73.5t-59 -26.5q-18 0 -47 9l-20 6q-38 11 -46 11q-27 0 -35 -38h-40zM328 62v7q-64 -83 -150 -83q-58 0 -96.5 39t-38.5 98q0 77 71 121.5t209 54.5v29q0 52 -12 73q-17 30 -57 30 q-53 0 -142 -64l-30 48q74 49 111.5 64.5t79.5 15.5q79 0 107 -57q17 -33 17 -94v-40l-5 -178q-3 -82 30 -82q15 0 41 18l21 -41q-55 -32 -85 -32q-33 0 -52 19.5t-19 53.5zM322 114v138q-95 -16 -129 -30q-71 -27 -71 -94q0 -35 23 -58t57 -23q30 0 56 14.5t64 52.5z" />
<glyph unicode="&#xe4;" horiz-adv-x="483" d="M308 583l1 87h83v-87h-84zM137 583v87h85l-1 -87h-84zM328 62v7q-64 -83 -150 -83q-58 0 -96.5 39t-38.5 98q0 77 71 121.5t209 54.5v29q0 52 -12 73q-17 30 -57 30q-53 0 -142 -64l-30 48q74 49 111.5 64.5t79.5 15.5q79 0 107 -57q17 -33 17 -94v-40l-5 -178 q-3 -82 30 -82q15 0 41 18l21 -41q-55 -32 -85 -32q-33 0 -52 19.5t-19 53.5zM322 114v138q-95 -16 -129 -30q-71 -27 -71 -94q0 -35 23 -58t57 -23q30 0 56 14.5t64 52.5z" />
<glyph unicode="&#xe5;" horiz-adv-x="483" d="M262 545q-40 0 -68 28.5t-28 68.5t28.5 68t69.5 28q39 0 67 -28.5t28 -67.5q0 -40 -28.5 -68.5t-68.5 -28.5zM262 584q24 0 41 17t17 41q0 23 -17 40t-40 17q-24 0 -41 -16.5t-17 -40.5t17 -41t40 -17zM328 62v7q-64 -83 -150 -83q-58 0 -96.5 39t-38.5 98q0 77 71 121.5 t209 54.5v29q0 52 -12 73q-17 30 -57 30q-53 0 -142 -64l-30 48q74 49 111.5 64.5t79.5 15.5q79 0 107 -57q17 -33 17 -94v-40l-5 -178q-3 -82 30 -82q15 0 41 18l21 -41q-55 -32 -85 -32q-33 0 -52 19.5t-19 53.5zM322 114v138q-95 -16 -129 -30q-71 -27 -71 -94 q0 -35 23 -58t57 -23q30 0 56 14.5t64 52.5z" />
<glyph unicode="&#xe6;" horiz-adv-x="761" d="M666 113l38 -41q-49 -48 -90 -67.5t-93 -19.5q-78 0 -130 47q-20 18 -39 50q-60 -57 -92.5 -75t-76.5 -18q-60 0 -100 39t-40 97q0 86 88 129q41 20 80.5 29t107.5 14q-1 18 -1 39q-2 50 -15.5 72.5t-44.5 22.5q-50 0 -141 -65l-35 45q65 47 107 65.5t86 18.5 q92 0 104 -92q35 50 72 71t88 21q59 0 103 -31.5t63 -87.5q22 -67 19 -123q0 -2 -1 -5h-333q0 -80 23 -122q41 -76 122 -76q36 0 64.5 14t66.5 49zM393 300h256q-8 56 -24 84q-13 24 -37.5 38t-52.5 14q-69 0 -113 -62q-17 -25 -29 -74zM121 129q0 -33 23 -55.5t57 -22.5 q63 0 128 76q-14 47 -14 89q0 14 4 38q-104 -22 -133 -36q-65 -32 -65 -89z" />
<glyph unicode="&#xe7;" horiz-adv-x="433" d="M186 -78l44 64q-78 7 -132 79t-54 170q0 110 64 185t158 75q44 0 76.5 -17t76.5 -63l-47 -41q-51 58 -105 58q-61 0 -101.5 -55.5t-40.5 -138.5q0 -85 39 -138.5t100 -53.5q55 0 112 64l42 -43q-38 -40 -67 -57t-70 -23l-34 -50q16 4 31 4q32 0 53.5 -20t21.5 -49 q0 -37 -30 -60.5t-77 -23.5q-48 0 -95 23l23 41q29 -16 62 -16q23 0 37 9.5t14 25.5q0 14 -13 23t-32 9q-25 0 -34 -4z" />
<glyph unicode="&#xe8;" horiz-adv-x="482" d="M236 563l-131 138h108l86 -138h-63zM397 116l39 -42q-52 -49 -92.5 -68.5t-89.5 -19.5q-94 0 -152 67.5t-58 176.5q0 115 62 190t157 75q110 0 156 -102q26 -55 26 -145h-320q-1 -6 -1 -14q0 -80 38 -133t96 -53q68 0 139 68zM132 302h235q-15 135 -102 135 q-64 0 -104 -59q-17 -23 -29 -76z" />
<glyph unicode="&#xe9;" horiz-adv-x="482" d="M237 563l86 138h108l-131 -138h-63zM397 116l39 -42q-52 -49 -92.5 -68.5t-89.5 -19.5q-94 0 -152 67.5t-58 176.5q0 115 62 190t157 75q110 0 156 -102q26 -55 26 -145h-320q-1 -6 -1 -14q0 -80 38 -133t96 -53q68 0 139 68zM132 302h235q-15 135 -102 135 q-64 0 -104 -59q-17 -23 -29 -76z" />
<glyph unicode="&#xea;" horiz-adv-x="482" d="M136 562l94 137h79l94 -137h-73l-63 93l-60 -93h-71zM397 116l39 -42q-52 -49 -92.5 -68.5t-89.5 -19.5q-94 0 -152 67.5t-58 176.5q0 115 62 190t157 75q110 0 156 -102q26 -55 26 -145h-320q-1 -6 -1 -14q0 -80 38 -133t96 -53q68 0 139 68zM132 302h235 q-15 135 -102 135q-64 0 -104 -59q-17 -23 -29 -76z" />
<glyph unicode="&#xeb;" horiz-adv-x="482" d="M313 583l1 87h83v-87h-84zM142 583v87h85l-1 -87h-84zM397 116l39 -42q-52 -49 -92.5 -68.5t-89.5 -19.5q-94 0 -152 67.5t-58 176.5q0 115 62 190t157 75q110 0 156 -102q26 -55 26 -145h-320q-1 -6 -1 -14q0 -80 38 -133t96 -53q68 0 139 68zM132 302h235 q-15 135 -102 135q-64 0 -104 -59q-17 -23 -29 -76z" />
<glyph unicode="&#xec;" horiz-adv-x="229" d="M89 563l-131 138h108l86 -138h-63zM75 0l2 480h82l-2 -480h-82z" />
<glyph unicode="&#xed;" horiz-adv-x="229" d="M90 563l86 138h108l-131 -138h-63zM75 0l2 480h82l-2 -480h-82z" />
<glyph unicode="&#xee;" horiz-adv-x="229" d="M-10 562l94 137h79l94 -137h-73l-63 93l-60 -93h-71zM74 0l2 480h83l-3 -480h-82z" />
<glyph unicode="&#xef;" horiz-adv-x="229" d="M147 582v88h72v-88h-72zM30 582v88h71v-88h-71zM75 0l2 480h82l-2 -480h-82z" />
<glyph unicode="&#xf0;" horiz-adv-x="530" d="M361 668l-79 -56q51 -32 75.5 -52.5t48.5 -50.5q89 -111 89 -257q0 -101 -48 -171q-66 -96 -183 -96q-103 0 -166 68t-63 180q0 109 59 174.5t156 65.5q12 0 67 -18q25 -8 46 -25q-29 55 -56 86.5t-72 63.5l-94 -69l-21 31l82 58q-45 28 -94 43l15 33q3 -1 5.5 -2 t4.5 -1.5t3 -0.5l2 -1l76 -28l14 -5l16 -8l96 68zM117 233q0 -86 40.5 -137.5t108.5 -51.5t107.5 54t39.5 145q0 90 -37 138.5t-105 48.5q-71 0 -112.5 -53t-41.5 -144z" />
<glyph unicode="&#xf1;" horiz-adv-x="528" d="M152 593q9 100 86 100q20 0 52 -11l19 -7q25 -9 39 -9q27 0 34 39h41q-2 -47 -24 -73.5t-59 -26.5q-18 0 -47 9l-20 6q-38 11 -46 11q-27 0 -35 -38h-40zM73 0l2 480h77l-4 -80q47 51 87.5 72.5t89.5 21.5q50 0 84 -26t45 -72q6 -12 6 -77l-1 -319h-81l1 307q0 59 -11 81 q-8 17 -27.5 28t-42.5 11q-35 0 -67 -18.5t-80 -65.5l-1 -343h-77z" />
<glyph unicode="&#xf2;" horiz-adv-x="543" d="M249 563l-131 138h108l86 -138h-63zM44 241q0 112 65.5 183t167.5 71q100 0 162.5 -68.5t62.5 -178.5q0 -116 -66 -191q-62 -71 -169 -71q-101 0 -162 69.5t-61 185.5zM126 240q0 -86 39.5 -139t104.5 -53q67 0 108.5 55t41.5 143q0 83 -40 136t-104 53q-65 0 -107.5 -55 t-42.5 -140z" />
<glyph unicode="&#xf3;" horiz-adv-x="543" d="M249 563l86 138h108l-131 -138h-63zM44 241q0 112 65.5 183t167.5 71q100 0 162.5 -68.5t62.5 -178.5q0 -116 -66 -191q-62 -71 -169 -71q-101 0 -162 69.5t-61 185.5zM126 240q0 -86 39.5 -139t104.5 -53q67 0 108.5 55t41.5 143q0 83 -40 136t-104 53q-65 0 -107.5 -55 t-42.5 -140z" />
<glyph unicode="&#xf4;" horiz-adv-x="543" d="M147 562l94 137h79l94 -137h-73l-63 93l-60 -93h-71zM44 241q0 112 65.5 183t167.5 71q100 0 162.5 -68.5t62.5 -178.5q0 -116 -66 -191q-62 -71 -169 -71q-101 0 -162 69.5t-61 185.5zM126 240q0 -86 39.5 -139t104.5 -53q67 0 108.5 55t41.5 143q0 83 -40 136t-104 53 q-65 0 -107.5 -55t-42.5 -140z" />
<glyph unicode="&#xf5;" horiz-adv-x="543" d="M160 593q9 100 86 100q20 0 52 -11l19 -7q25 -9 39 -9q27 0 34 39h41q-2 -47 -24 -73.5t-59 -26.5q-18 0 -47 9l-20 6q-38 11 -46 11q-27 0 -35 -38h-40zM44 241q0 112 65.5 183t167.5 71q100 0 162.5 -68.5t62.5 -178.5q0 -116 -66 -191q-62 -71 -169 -71 q-101 0 -162 69.5t-61 185.5zM126 240q0 -86 39.5 -139t104.5 -53q67 0 108.5 55t41.5 143q0 83 -40 136t-104 53q-65 0 -107.5 -55t-42.5 -140z" />
<glyph unicode="&#xf6;" horiz-adv-x="543" d="M326 583l1 87h83v-87h-84zM155 583v87h85l-1 -87h-84zM44 241q0 112 65.5 183t167.5 71q100 0 162.5 -68.5t62.5 -178.5q0 -116 -66 -191q-62 -71 -169 -71q-101 0 -162 69.5t-61 185.5zM126 240q0 -86 39.5 -139t104.5 -53q67 0 108.5 55t41.5 143q0 83 -40 136t-104 53 q-65 0 -107.5 -55t-42.5 -140z" />
<glyph unicode="&#xf7;" d="M250 484q-17 0 -29.5 12.5t-12.5 29.5t12.5 29t29.5 12q16 0 28.5 -12.5t12.5 -28.5q0 -17 -12 -29.5t-29 -12.5zM21 320v46h458v-46h-458zM208 161q0 17 12.5 29t29.5 12q16 0 28.5 -12t12.5 -29t-12 -29.5t-29 -12.5t-29.5 12.5t-12.5 29.5z" />
<glyph unicode="&#xf8;" horiz-adv-x="542" d="M28 -8l69 77q-54 71 -54 169q0 115 65 186t171 71q78 0 141 -52l65 76l30 -26l-68 -78q53 -72 53 -166q0 -116 -68 -193q-61 -67 -168 -67q-81 0 -141 52l-65 -75zM147 126l227 264q-46 45 -96 45q-68 0 -111 -54t-43 -140q0 -60 23 -115zM169 95q47 -47 99 -47 q67 0 109 55t42 142q0 57 -23 112z" />
<glyph unicode="&#xf9;" horiz-adv-x="519" d="M253 563l-131 138h108l86 -138h-63zM369 0l4 80q-49 -52 -86 -73t-81 -21q-47 0 -81 23t-47 63q-8 27 -8 90l1 318h81l-1 -326q0 -52 13 -71q21 -32 61 -32q35 0 65 18.5t80 70.5l1 340h77l-2 -480h-77z" />
<glyph unicode="&#xfa;" horiz-adv-x="519" d="M240 563l86 138h108l-131 -138h-63zM369 0l4 80q-49 -52 -86 -73t-81 -21q-47 0 -81 23t-47 63q-8 27 -8 90l1 318h81l-1 -326q0 -52 13 -71q21 -32 61 -32q35 0 65 18.5t80 70.5l1 340h77l-2 -480h-77z" />
<glyph unicode="&#xfb;" horiz-adv-x="519" d="M138 562l94 137h79l94 -137h-73l-63 93l-60 -93h-71zM369 0l4 80q-49 -52 -86 -73t-81 -21q-47 0 -81 23t-47 63q-8 27 -8 90l1 318h81l-1 -326q0 -52 13 -71q21 -32 61 -32q35 0 65 18.5t80 70.5l1 340h77l-2 -480h-77z" />
<glyph unicode="&#xfc;" horiz-adv-x="519" d="M325 583l1 87h83v-87h-84zM154 583v87h85l-1 -87h-84zM369 0l4 80q-49 -52 -86 -73t-81 -21q-47 0 -81 23t-47 63q-8 27 -8 90l1 318h81l-1 -326q0 -52 13 -71q21 -32 61 -32q35 0 65 18.5t80 70.5l1 340h77l-2 -480h-77z" />
<glyph unicode="&#xfd;" horiz-adv-x="470" d="M215 563l86 138h108l-131 -138h-63zM29 -176q53 0 75 12.5t40 52.5l52 118l-178 466l81 22l112 -318q20 -57 30 -108q6 56 25 108l115 318l75 -22l-216 -547q-22 -55 -38 -84t-41 -47t-52.5 -22.5t-79.5 -5.5v57z" />
<glyph unicode="&#xfe;" horiz-adv-x="534" d="M146 54l4 -280h-77l3 950h77l-1 -311q52 82 144 82q85 0 141 -69t56 -173q0 -113 -60.5 -190t-149.5 -77q-75 0 -137 68zM150 130q51 -82 120 -82q59 0 100 58.5t41 143.5q0 78 -36.5 128.5t-94.5 50.5q-73 0 -129 -91z" />
<glyph unicode="&#xff;" horiz-adv-x="470" d="M295 583l1 87h83v-87h-84zM124 583v87h85l-1 -87h-84zM29 -176q53 0 75 12.5t40 52.5l52 118l-178 466l81 22l112 -318q20 -57 30 -108q6 56 25 108l115 318l75 -22l-216 -547q-22 -55 -38 -84t-41 -47t-52.5 -22.5t-79.5 -5.5v57z" />
<glyph unicode="&#x152;" horiz-adv-x="977" d="M591 0l8 120q-29 -52 -62 -78q-70 -56 -175 -56q-137 0 -223 97t-86 252q0 154 85 250.5t222 96.5q78 0 133 -30t104 -100l-3 115h333l-1 -70h-250l-1 -223h244l-1 -69h-243l-1 -236h259l-1 -69h-341zM365 53q104 0 167.5 78.5t63.5 207.5q0 123 -62.5 197.5t-166.5 74.5 q-101 0 -163 -74.5t-62 -195.5q0 -132 60.5 -210t162.5 -78z" />
<glyph unicode="&#x153;" horiz-adv-x="866" d="M770 115l40 -41q-56 -48 -94.5 -65.5t-90.5 -17.5q-62 0 -103 26t-71 84q-34 -59 -77 -85t-105 -26q-102 0 -163.5 68t-61.5 180q0 113 65.5 185t168.5 72q87 0 140 -55q19 -20 39 -62q72 117 183 117q66 0 114 -39.5t65 -108.5q10 -39 10 -97h-335v-21q0 -76 40.5 -126 t101.5 -50q78 0 134 62zM498 302h255q-8 71 -38 104q-29 31 -76 31q-70 0 -114 -63q-17 -26 -27 -72zM126 239q0 -86 39.5 -138t103.5 -52q66 0 108.5 55t42.5 140q0 86 -39.5 139t-104.5 53q-66 0 -108 -55.5t-42 -141.5z" />
<glyph unicode="&#x178;" horiz-adv-x="581" d="M351 753v90h87l-1 -90h-86zM169 753v90h87v-90h-87zM246 0l1 281l-238 358l74 42l136 -210q41 -65 72 -124q30 55 76 124l141 210l69 -42l-245 -353l-2 -286h-84z" />
<glyph unicode="&#x2c6;" d="M119 562l94 137h79l94 -137h-73l-63 93l-60 -93h-71z" />
<glyph unicode="&#x2dc;" d="M117 593q9 100 86 100q20 0 52 -11l19 -7q26 -9 39 -9q27 0 34 39h41q-2 -47 -24 -73.5t-59 -26.5q-19 0 -47 9l-20 6q-38 11 -46 11q-27 0 -35 -38h-40z" />
<glyph unicode="&#x2000;" horiz-adv-x="449" />
<glyph unicode="&#x2001;" horiz-adv-x="898" />
<glyph unicode="&#x2002;" horiz-adv-x="449" />
<glyph unicode="&#x2003;" horiz-adv-x="898" />
<glyph unicode="&#x2004;" horiz-adv-x="299" />
<glyph unicode="&#x2005;" horiz-adv-x="224" />
<glyph unicode="&#x2006;" horiz-adv-x="149" />
<glyph unicode="&#x2007;" horiz-adv-x="149" />
<glyph unicode="&#x2008;" horiz-adv-x="112" />
<glyph unicode="&#x2009;" horiz-adv-x="179" />
<glyph unicode="&#x200a;" horiz-adv-x="49" />
<glyph unicode="&#x2010;" horiz-adv-x="222" d="M1 217v72h222v-72h-222z" />
<glyph unicode="&#x2011;" horiz-adv-x="222" d="M1 217v72h222v-72h-222z" />
<glyph unicode="&#x2012;" horiz-adv-x="222" d="M1 217v72h222v-72h-222z" />
<glyph unicode="&#x2013;" horiz-adv-x="526" d="M71 217v72h386v-72h-386z" />
<glyph unicode="&#x2014;" horiz-adv-x="663" d="M1 217v72h664l-1 -72h-663z" />
<glyph unicode="&#x2018;" horiz-adv-x="241" d="M69 464l60 234h35l-1 -234h-94z" />
<glyph unicode="&#x2019;" horiz-adv-x="241" d="M82 464l1 234h94l-60 -234h-35z" />
<glyph unicode="&#x201a;" horiz-adv-x="266" d="M87 93h100l-69 -234h-32z" />
<glyph unicode="&#x201c;" horiz-adv-x="409" d="M237 477l60 235h36l-1 -235h-95zM69 477l60 235h35l-1 -235h-94z" />
<glyph unicode="&#x201d;" horiz-adv-x="409" d="M250 464l1 234h95l-60 -234h-36zM82 464l1 234h94l-60 -234h-35z" />
<glyph unicode="&#x201e;" horiz-adv-x="409" d="M249 93h94l-60 -235h-36zM80 93h94l-60 -235h-35z" />
<glyph unicode="&#x2022;" horiz-adv-x="667" d="M335 200q-57 0 -98 40.5t-41 97.5q0 58 41 98.5t100 40.5q55 0 95.5 -41t40.5 -97q0 -58 -40.5 -98.5t-97.5 -40.5z" />
<glyph unicode="&#x2026;" horiz-adv-x="799" d="M621 0l1 93h88v-93h-89zM355 0l1 93h88l-1 -93h-88zM89 0v93h89l-1 -93h-88z" />
<glyph unicode="&#x202f;" horiz-adv-x="179" />
<glyph unicode="&#x2039;" horiz-adv-x="276" d="M190 64l-152 183l154 184l36 -23l-111 -161l109 -157z" />
<glyph unicode="&#x203a;" horiz-adv-x="275" d="M50 88l110 160l-109 157l36 26l153 -183l-154 -184z" />
<glyph unicode="&#x205f;" horiz-adv-x="224" />
<glyph unicode="&#x20ac;" horiz-adv-x="757" d="M41 254l22 53h68v24q0 17 1 29h-91l22 53h77q27 122 120 195.5t220 73.5q139 0 239 -83l-34 -78q-73 93 -200 93q-92 0 -161.5 -55t-92.5 -146h408l-22 -53h-395v-53h373l-23 -53h-342q23 -91 92 -145.5t162 -54.5q61 0 114 25t88 69v-106q-87 -56 -207 -56 q-131 0 -223.5 73t-117.5 195h-97z" />
<glyph unicode="&#x2122;" horiz-adv-x="934" d="M383 272l74 395h60l78 -201l20 -52l17 -48q3 -7 10 -34q15 57 48 135l84 200h60l68 -395l-58 -10l-30 175q-16 90 -19 153q-15 -45 -31 -85l-95 -238h-55l-92 238q-15 41 -29 87q-5 -58 -22 -155l-31 -175zM146 267l2 353h-133v47h324v-47h-131l-2 -353h-60z" />
</font>
</defs>
</svg>
