<svg xmlns="http://www.w3.org/2000/svg" width="387" height="387" viewBox="36.5 0 387 387">
    <title>
        gulp
    </title>
    <g fill="#DA4648">
        <path d="M223.72 304.037c-22.574 0-40.017-3.393-48.405-5.412-5.736-1.382-10.342-2.812-13.841-4.281l11.187 19.113 4.376 59.719c0 6.695 21.268 12.122 47.503 12.122s47.503-5.427 47.503-12.122l3.465-60.369 10.585-18.519c-3.514 1.487-8.161 2.938-13.969 4.337-8.388 2.021-25.831 5.412-48.404 5.412zm62.736-194.328c-16.567 2.313-38.558 3.589-61.916 3.589-23.359 0-45.348-1.275-61.916-3.589-8.207-1.146-14.7-2.498-19.299-4.017-1.097-.362-2.956-.981-4.745-1.968l10.265 94.475a78.268 78.268 0 0 1 1.597-4.871 92.62 92.62 0 0 1 4.181-9.731 85.912 85.912 0 0 1 5.169-8.983 69.528 69.528 0 0 1 5.946-7.79c2.102-2.372 4.258-4.412 6.472-6.122 2.213-1.708 4.447-3.044 6.702-4.006 2.256-.962 4.49-1.444 6.703-1.444 2.549 0 5.015.697 7.397 2.091 2.381 1.394 4.607 3.65 6.681 6.77.476.696.778 1.401.903 2.114.127.714.189 1.387.189 2.017 0 1.493-.357 2.672-1.071 3.534-.714.862-1.562 1.294-2.542 1.294-.898 0-1.731-.474-2.501-1.419-.771-.945-1.632-2.298-2.585-4.057-.897-1.593-1.884-2.745-2.962-3.459-1.079-.713-2.248-1.07-3.509-1.07-1.961 0-4.055.813-6.282 2.439-2.228 1.625-4.434 3.774-6.618 6.445-2.186 2.672-4.28 5.724-6.283 9.158a95.561 95.561 0 0 0-5.317 10.552c-1.541 3.603-2.765 7.151-3.676 10.651s-1.366 6.646-1.366 9.434c0 .93.064 1.885.189 2.861.127.979.364 1.865.715 2.662.349.799.826 1.451 1.428 1.967.603.516 1.366.771 2.29.771 1.037 0 2.213-.348 3.531-1.045 1.316-.694 2.682-1.608 4.096-2.735a51.32 51.32 0 0 0 4.266-3.834 67.54 67.54 0 0 0 3.992-4.33 63.084 63.084 0 0 0 3.277-4.205c.953-1.344 1.667-2.515 2.144-3.51l3.908-11.697c.476-1.261 1.099-2.156 1.87-2.688.77-.531 1.562-.797 2.375-.797.391 0 .783.066 1.176.199.393.133.742.341 1.051.622.308.282.553.646.735 1.096.182.447.273.97.273 1.567 0 1.593-.14 3.085-.42 4.479a35.455 35.455 0 0 1-1.072 4.082 70.062 70.062 0 0 1-1.45 4.006 101.4 101.4 0 0 0-1.554 4.207c-.112.166-.315.688-.61 1.566-.294.881-.65 1.982-1.071 3.311-.42 1.328-.876 2.812-1.366 4.455-.491 1.643-.994 3.318-1.512 5.027a419.384 419.384 0 0 0-1.492 5.025 1259.144 1259.144 0 0 0-2.228 7.789c-.146.533-.3 1.064-.462 1.594-.14.528-.365 1.119-.672 1.768a11.665 11.665 0 0 1-1.093 1.842 6.64 6.64 0 0 1-1.387 1.443c-.504.381-1.022.57-1.555.57-.896 0-1.548-.299-1.953-.896-.407-.599-.609-1.692-.609-3.285v-.696c0-.23.013-.48.041-.746.027-.529.238-1.525.631-2.986.392-1.459.861-3.109 1.408-4.951.546-1.842 1.135-3.75 1.765-5.725.629-1.978 1.197-3.74 1.702-5.303a83.318 83.318 0 0 1-4.833 4.952 52.36 52.36 0 0 1-5.337 4.433c-1.822 1.311-3.657 2.381-5.505 3.211-1.849.826-3.628 1.242-5.337 1.242-1.961 0-3.649-.433-5.065-1.295-.255-.154-.496-.332-.736-.506l5.712 59.891c1.487 3.727 29.481 12.884 66.391 12.884 36.927 0 64.933-9.166 66.394-12.892l8.205-71.201c-.681.621-1.34 1.229-1.974 1.82-2.354 2.188-4.573 4.071-6.661 5.647-2.086 1.575-4.125 2.797-6.113 3.657-1.989.861-4.118 1.296-6.389 1.296-2.131 0-3.775-.466-4.938-1.396-1.162-.928-1.744-2.204-1.744-3.831v-.373c0-.113.016-.259.043-.425.109-.993.547-2.141 1.305-3.434a38.735 38.735 0 0 1 2.729-4.031c1.1-1.438 2.234-2.85 3.404-4.231a193.963 193.963 0 0 0 3.342-4.058c1.021-1.274 1.869-2.444 2.541-3.508.675-1.062 1.011-1.925 1.011-2.588 0-.398-.142-.714-.42-.947-.281-.229-.744-.349-1.388-.349-1.121 0-2.276.291-3.467.869-1.191.58-2.369 1.361-3.531 2.343a31.903 31.903 0 0 0-3.403 3.356 48.847 48.847 0 0 0-3.108 3.934 52.812 52.812 0 0 0-2.646 4.105 56.797 56.797 0 0 0-2.039 3.809c-.168.363-.406.882-.716 1.543-.309.664-.646 1.412-1.008 2.238-.365.83-.75 1.688-1.156 2.562a103 103 0 0 0-1.112 2.49l-.901 2.09c-.185.426-.373.85-.566 1.27-.143.301-.371.861-.693 1.691-.32.83-.691 1.801-1.111 2.912l-1.324 3.51c-.461 1.227-.896 2.389-1.303 3.484-.406 1.094-.766 2.057-1.07 2.887-.309.828-.506 1.393-.59 1.691a18.971 18.971 0 0 1-.985 2.438c-.353.723-.79 1.4-1.304 2.02a6.06 6.06 0 0 1-1.684 1.392c-.631.351-1.338.522-2.119.522-1.012 0-1.844-.242-2.502-.725-.656-.479-.986-1.4-.986-2.762 0-.664.084-1.346.252-2.04.168-.697.38-1.388.632-2.066.252-.682.512-1.344.776-1.987.256-.619.5-1.242.732-1.867a919.375 919.375 0 0 1 4.623-9.98 454.925 454.925 0 0 0 4.52-9.902c.301-.684.576-1.352.869-2.026-.09.086-.176.176-.262.26a55.294 55.294 0 0 1-5.439 4.654c-1.811 1.344-3.604 2.414-5.379 3.211-1.779.795-3.512 1.192-5.19 1.192-1.147 0-2.106-.184-2.877-.549-.771-.363-1.388-.861-1.851-1.49-.465-.631-.793-1.377-.988-2.239-.065-.296-.106-.604-.149-.91a37.22 37.22 0 0 1-1.487 1.108c-1.736 1.228-3.445 2.215-5.125 2.961s-3.194 1.119-4.537 1.119c-1.346 0-2.438-.446-3.28-1.346-.84-.895-1.259-2.422-1.259-4.576 0-1.527.224-3.305.671-5.326-.728 1.295-1.638 2.604-2.73 3.933a24.036 24.036 0 0 1-3.74 3.635 18.703 18.703 0 0 1-4.707 2.662c-1.738.683-3.629 1.021-5.673 1.021a9.986 9.986 0 0 1-2.669-.35 5.626 5.626 0 0 1-2.248-1.193c-.645-.562-1.162-1.317-1.555-2.266-.392-.943-.588-2.133-.588-3.559 0-.033.056-.539.168-1.521.112-.979.469-2.521 1.072-4.629.602-2.104 1.534-4.836 2.793-8.188 1.262-3.354 3.041-7.416 5.338-12.193.588-1.262 1.268-2.166 2.037-2.713.772-.548 1.604-.822 2.5-.822.393 0 .799.06 1.219.174.422.117.813.3 1.178.549.363.249.658.564.883.945.222.381.336.82.336 1.318 0 .332-.043.648-.127.945-.141.563-.442 1.303-.902 2.215-.463.914-1.003 1.959-1.62 3.137a273.383 273.383 0 0 0-1.953 3.811c-.687 1.357-1.324 2.771-1.912 4.229s-1.093 2.944-1.513 4.455c-.42 1.51-.659 2.979-.714 4.403 0 .599.139 1.146.42 1.644.28.498.743.746 1.387.746 1.82 0 3.557-.599 5.211-1.791 1.652-1.195 3.178-2.681 4.58-4.455a42.798 42.798 0 0 0 3.803-5.726c1.135-2.041 2.08-3.905 2.836-5.602a28.477 28.477 0 0 0 1.408-3.633c.378-1.217.82-2.413 1.324-3.584.477-1.096 1.022-2.008 1.639-2.738.615-.729 1.387-1.095 2.311-1.095 1.01 0 1.807.382 2.396 1.146.589.764.882 1.676.882 2.736 0 .6-.188 1.42-.566 2.466a68.724 68.724 0 0 1-1.43 3.584 482.226 482.226 0 0 1-1.869 4.306 75.623 75.623 0 0 0-1.869 4.653 46.02 46.02 0 0 0-1.43 4.63c-.379 1.51-.567 2.911-.567 4.204 0 1.194.616 1.793 1.848 1.793.869 0 1.947-.299 3.236-.896 1.289-.598 2.642-1.436 4.055-2.514.354-.271.709-.553 1.062-.848.396-1.63.855-3.136 1.396-4.505.979-2.59 1.977-5.159 2.983-7.715l2.772-7.021 12.731-32.104c.504-1.294 1.185-2.207 2.036-2.737.854-.53 1.718-.797 2.586-.797.867 0 1.658.282 2.373.847.716.565 1.072 1.477 1.072 2.737 0 .598-.119 1.229-.356 1.892a23.354 23.354 0 0 1-.904 2.14 372.44 372.44 0 0 0-2.5 5.725 858.432 858.432 0 0 0-6.513 15.653 7732.254 7732.254 0 0 1-3.404 8.387 960.458 960.458 0 0 0-3.107 7.74c-.967 2.438-1.799 4.555-2.5 6.346a27.806 27.806 0 0 0-.901 2.664c-.295 1.015-.44 1.916-.44 2.714 0 .495.084.896.252 1.192s.489.448.967.448c.588 0 1.322-.207 2.205-.622.883-.414 1.834-.964 2.856-1.646a45.362 45.362 0 0 0 3.193-2.34 106.458 106.458 0 0 0 3.299-2.734 91.39 91.39 0 0 0 3.131-2.84c.904-.854 1.795-1.727 2.67-2.611.185-.185.404-.331.646-.43a88.664 88.664 0 0 0 1.285-4.147 220 220 0 0 0 .926-2.539c.392-1.097.841-2.175 1.345-3.236s1.071-1.979 1.701-2.762c.631-.779 1.312-1.17 2.039-1.17 1.12 0 1.934.258 2.438.771.504.517.756 1.271.756 2.267 0 .197-.027.514-.084.943a30.357 30.357 0 0 1-.482 2.737c-.1.433-.188.746-.271.945a56.046 56.046 0 0 1 3.361-3.359 34.876 34.876 0 0 1 3.738-3.012 21.531 21.531 0 0 1 3.951-2.192c1.344-.562 2.688-.845 4.033-.845.924 0 1.842.133 2.752.399a7.93 7.93 0 0 1 2.438 1.169 6.063 6.063 0 0 1 1.742 1.94c.447.779.674 1.685.674 2.714 0 1.36-.344 2.812-1.028 4.354a31.568 31.568 0 0 1-2.584 4.651 59.287 59.287 0 0 1-3.358 4.556 173.36 173.36 0 0 1-3.385 4.03 288.544 288.544 0 0 0-2.646 3.086c-.713.849-1.086 1.42-1.113 1.72 0 .397.127.721.379.971.252.248.672.373 1.26.373.478 0 1.178-.267 2.103-.797.926-.53 2.224-1.451 3.889-2.763 1.666-1.312 3.783-3.069 6.349-5.276a600.307 600.307 0 0 0 6.135-5.364l11.113-102.931c-1.789.988-3.65 1.607-4.75 1.971-4.628 1.536-11.12 2.887-19.328 4.034zm-61.982-24.421c-48.049 0-87 5.372-87 12 0 6.627 38.951 12 87 12 48.047 0 87-5.373 87-12 .001-6.628-38.953-12-87-12zm34.738 15.507c0 1.555-4.629 2.815-10.34 2.815-5.71 0-10.339-1.261-10.339-2.815 0-1.556 4.629-2.817 10.339-2.817 5.711 0 10.34 1.261 10.34 2.817z"/>
        <path d="M240.627 99.55a.475.475 0 0 0-.078.25c0 1.007 3.727 1.822 8.323 1.822s8.323-.815 8.323-1.822l10.871-44.078 43.229-45.645.041-.043c.915-1.035-.938-4.238-4.021-6.985-3.08-2.747-6.407-3.677-7.441-2.631l-.021.022-46.129 48.539-13.097 50.571z"/>
    </g>
    <path fill="none" d="M36.5 0h387v387h-387z"/>
</svg>
