<?xml version="1.0" encoding="utf-8"?>
<!-- Generator: Adobe Illustrator 16.0.0, SVG Export Plug-In . SVG Version: 6.00 Build 0)  -->
<!DOCTYPE svg PUBLIC "-//W3C//DTD SVG 1.1//EN" "http://www.w3.org/Graphics/SVG/1.1/DTD/svg11.dtd">
<svg version="1.1" id="Layer_1" xmlns="http://www.w3.org/2000/svg" xmlns:xlink="http://www.w3.org/1999/xlink" x="0px" y="0px"
	 width="444px" height="274px" viewBox="0 0 444 274" enable-background="new 0 0 444 274" xml:space="preserve">
<g>
	<path fill="#699F63" d="M218.647,270.927c-1.46,0-2.912-0.381-4.19-1.12l-13.338-7.893c-1.991-1.114-1.019-1.51-0.362-1.738
		c2.657-0.922,3.195-1.135,6.031-2.742c0.295-0.168,0.687-0.104,0.992,0.075l10.247,6.083c0.371,0.206,0.895,0.206,1.237,0
		l39.95-23.058c0.372-0.212,0.609-0.642,0.609-1.081V193.35c0-0.451-0.237-0.873-0.62-1.102L219.27,169.21
		c-0.369-0.216-0.859-0.216-1.231,0l-39.923,23.045c-0.388,0.222-0.634,0.657-0.634,1.095v46.104c0,0.439,0.246,0.857,0.63,1.066
		l10.944,6.323c5.938,2.97,9.574-0.528,9.574-4.041v-45.519c0-0.645,0.517-1.151,1.161-1.151h5.065c0.634,0,1.158,0.507,1.158,1.151
		v45.519c0,7.925-4.316,12.47-11.829,12.47c-2.309,0-4.127,0-9.202-2.5l-10.476-6.03c-2.588-1.496-4.19-4.293-4.19-7.288V193.35
		c0-2.996,1.602-5.793,4.19-7.281l39.949-23.086c2.528-1.429,5.888-1.429,8.396,0l39.947,23.086
		c2.588,1.496,4.195,4.285,4.195,7.281v46.104c0,2.994-1.607,5.781-4.195,7.288l-39.947,23.063
		C221.577,270.546,220.127,270.927,218.647,270.927"/>
	<path fill="#699F63" d="M230.986,239.165c-17.48,0-21.144-8.024-21.144-14.755c0-0.641,0.514-1.151,1.154-1.151h5.165
		c0.577,0,1.058,0.415,1.148,0.979c0.78,5.258,3.105,7.912,13.676,7.912c8.416,0,12-1.904,12-6.369
		c0-2.574-1.016-4.485-14.096-5.768c-10.931-1.08-17.691-3.496-17.691-12.238c0-8.062,6.794-12.868,18.186-12.868
		c12.799,0,19.131,4.44,19.934,13.972c0.029,0.329-0.086,0.645-0.305,0.889c-0.22,0.229-0.525,0.369-0.847,0.369h-5.187
		c-0.537,0-1.012-0.382-1.121-0.902c-1.242-5.532-4.269-7.301-12.476-7.301c-9.189,0-10.257,3.2-10.257,5.601
		c0,2.905,1.26,3.751,13.667,5.393c12.276,1.623,18.108,3.921,18.108,12.55C250.904,234.178,243.646,239.165,230.986,239.165"/>
	<path fill="#699F63" d="M288.593,190.814c0,4.235-3.464,7.699-7.698,7.699c-4.196,0-7.699-3.423-7.699-7.699
		c0-4.359,3.586-7.701,7.699-7.701C285.05,183.113,288.593,186.455,288.593,190.814 M274.438,190.792
		c0,3.586,2.894,6.479,6.437,6.479c3.586,0,6.479-2.955,6.479-6.479c0-3.585-2.934-6.437-6.479-6.437
		C277.371,184.355,274.438,187.167,274.438,190.792 M278.001,186.494h2.976c1.02,0,3.017,0,3.017,2.283
		c0,1.589-1.019,1.914-1.632,2.117c1.184,0.082,1.264,0.856,1.426,1.955c0.083,0.692,0.206,1.875,0.447,2.281h-1.83
		c-0.043-0.406-0.329-2.607-0.329-2.729c-0.119-0.49-0.285-0.732-0.896-0.732h-1.507v3.461h-1.672V186.494z M279.633,190.283h1.344
		c1.099,0,1.305-0.772,1.305-1.221c0-1.184-0.816-1.184-1.264-1.184h-1.385V190.283L279.633,190.283z"/>
	<path fill="#333333" d="M94.937,90.55c0-1.841-0.969-3.533-2.558-4.445L50.024,61.73c-0.716-0.422-1.519-0.641-2.331-0.674h-0.438
		c-0.81,0.033-1.612,0.252-2.339,0.674L2.561,86.105C0.982,87.017,0,88.709,0,90.55l0.093,65.636c0,0.912,0.474,1.762,1.277,2.209
		c0.786,0.472,1.758,0.472,2.541,0l25.172-14.414c1.592-0.944,2.561-2.613,2.561-4.438v-30.665c0-1.828,0.968-3.52,2.554-4.429
		l10.718-6.173c0.799-0.461,1.672-0.687,2.564-0.687c0.873,0,1.768,0.226,2.544,0.687l10.715,6.173
		c1.586,0.909,2.558,2.601,2.558,4.429v30.665c0,1.824,0.982,3.504,2.564,4.438l25.165,14.414c0.789,0.472,1.775,0.472,2.557,0
		c0.78-0.447,1.271-1.297,1.271-2.209L94.937,90.55z"/>
	<path fill="#333333" d="M298.734,0.323c-0.793-0.44-1.76-0.431-2.543,0.029c-0.78,0.459-1.262,1.299-1.262,2.206v65
		c0,0.639-0.343,1.231-0.895,1.551c-0.555,0.32-1.237,0.32-1.791,0l-10.609-6.112c-1.582-0.913-3.529-0.911-5.111,0.001
		l-42.371,24.453c-1.584,0.914-2.56,2.603-2.56,4.431v48.917c0,1.828,0.976,3.516,2.558,4.432l42.369,24.472
		c1.584,0.914,3.535,0.914,5.119,0l42.377-24.472c1.582-0.916,2.558-2.604,2.558-4.432V18.862c0-1.854-1.005-3.564-2.624-4.468
		L298.734,0.323z M294.805,124.726c0,0.456-0.244,0.879-0.641,1.106l-14.549,8.386c-0.396,0.227-0.883,0.227-1.276,0l-14.548-8.386
		c-0.396-0.227-0.641-0.65-0.641-1.106v-16.799c0-0.456,0.242-0.879,0.64-1.108l14.547-8.402c0.396-0.229,0.884-0.229,1.28,0
		l14.548,8.402c0.396,0.229,0.64,0.652,0.64,1.108V124.726z"/>
	<path fill="#333333" d="M439.825,107.488c1.576-0.915,2.546-2.601,2.546-4.424V91.21c0-1.823-0.97-3.51-2.548-4.425l-42.1-24.443
		c-1.584-0.921-3.538-0.922-5.126-0.007l-42.356,24.453c-1.583,0.914-2.558,2.602-2.558,4.43v48.903
		c0,1.841,0.985,3.537,2.584,4.445l42.092,23.985c1.553,0.886,3.455,0.896,5.018,0.027l25.46-14.149
		c0.809-0.451,1.312-1.298,1.316-2.221c0.006-0.923-0.485-1.775-1.284-2.234l-42.625-24.466c-0.796-0.456-1.286-1.304-1.286-2.219
		v-15.326c0-0.914,0.487-1.76,1.28-2.216l13.267-7.648c0.789-0.456,1.765-0.456,2.555,0l13.271,7.648
		c0.793,0.456,1.28,1.302,1.28,2.216v12.058c0,0.916,0.489,1.762,1.282,2.218c0.793,0.458,1.771,0.454,2.562-0.005L439.825,107.488z
		"/>
	<path fill="#699F63" d="M394.536,105.197c0.305-0.176,0.679-0.176,0.981,0l8.131,4.69c0.304,0.176,0.49,0.5,0.49,0.851v9.388
		c0,0.352-0.188,0.675-0.49,0.851l-8.131,4.691c-0.304,0.176-0.678,0.176-0.981,0l-8.124-4.691c-0.305-0.176-0.49-0.499-0.49-0.851
		v-9.388c0-0.351,0.188-0.675,0.49-0.851L394.536,105.197z"/>
</g>
<g>
	<g>
		<defs>
			<path id="SVGID_1_" d="M160.727,62.59l-42.134,24.315c-1.576,0.909-2.545,2.588-2.545,4.407v48.667
				c0,1.816,0.969,3.496,2.544,4.407l42.133,24.335c1.576,0.908,3.516,0.908,5.091,0l42.124-24.335
				c1.574-0.911,2.543-2.591,2.543-4.407V91.31c0-1.817-0.969-3.496-2.545-4.405L165.814,62.59
				c-0.787-0.454-1.666-0.682-2.544-0.682C162.391,61.908,161.513,62.136,160.727,62.59"/>
		</defs>
		<clipPath id="SVGID_2_">
			<use xlink:href="#SVGID_1_"  overflow="visible"/>
		</clipPath>
		
			<linearGradient id="SVGID_3_" gradientUnits="userSpaceOnUse" x1="-97.938" y1="-223.5127" x2="-96.938" y2="-223.5127" gradientTransform="matrix(-38.0649 77.6524 -77.6524 -38.0649 -20903.7988 -822.1406)">
			<stop  offset="0" style="stop-color:#41873F"/>
			<stop  offset="0.3288" style="stop-color:#418B3D"/>
			<stop  offset="0.6352" style="stop-color:#419637"/>
			<stop  offset="0.9319" style="stop-color:#3FA92D"/>
			<stop  offset="1" style="stop-color:#3FAE2A"/>
		</linearGradient>
		<polygon clip-path="url(#SVGID_2_)" fill="url(#SVGID_3_)" points="253.057,82.778 192.187,206.952 73.473,148.759 
			134.343,24.584 		"/>
	</g>
</g>
<g>
	<g>
		<defs>
			<path id="SVGID_4_" d="M117.094,143.068c0.401,0.525,0.906,0.976,1.497,1.317l36.143,20.874l6.017,3.461
				c0.9,0.519,1.927,0.737,2.936,0.664c0.337-0.027,0.673-0.09,1.001-0.186l44.43-81.357c-0.34-0.365-0.736-0.682-1.181-0.938
				L180.349,70.98l-14.579-8.39c-0.417-0.24-0.864-0.413-1.323-0.526L117.094,143.068z"/>
		</defs>
		<clipPath id="SVGID_5_">
			<use xlink:href="#SVGID_4_"  overflow="visible"/>
		</clipPath>
		
			<linearGradient id="SVGID_6_" gradientUnits="userSpaceOnUse" x1="-96.9434" y1="-222.0522" x2="-95.9443" y2="-222.0522" gradientTransform="matrix(106.8073 -78.9149 78.9149 106.8073 28033.9609 16187.2617)">
			<stop  offset="0" style="stop-color:#41873F"/>
			<stop  offset="0.1376" style="stop-color:#41873F"/>
			<stop  offset="0.4032" style="stop-color:#54A044"/>
			<stop  offset="0.7136" style="stop-color:#66B848"/>
			<stop  offset="0.9081" style="stop-color:#6CC04A"/>
			<stop  offset="1" style="stop-color:#6CC04A"/>
		</linearGradient>
		<polygon clip-path="url(#SVGID_5_)" fill="url(#SVGID_6_)" points="65.766,99.988 176.622,18.082 260.447,131.535 
			149.591,213.441 		"/>
	</g>
</g>
<g>
	<g>
		<defs>
			<path id="SVGID_7_" d="M160.727,62.59l-42.134,24.315c-1.575,0.909-2.545,2.588-2.545,4.407v48.667
				c0,1.816,0.97,3.496,2.544,4.407l42.133,24.335c1.576,0.908,3.516,0.908,5.091,0l42.124-24.335
				c1.574-0.911,2.543-2.591,2.543-4.407V91.31c0-1.817-0.969-3.496-2.545-4.405L165.814,62.59
				c-0.787-0.454-1.666-0.682-2.544-0.682C162.391,61.908,161.513,62.136,160.727,62.59"/>
		</defs>
		<clipPath id="SVGID_8_">
			<use xlink:href="#SVGID_7_"  overflow="visible"/>
		</clipPath>
		<g clip-path="url(#SVGID_8_)">
			<g>
				<defs>
					<polygon id="SVGID_9_" points="159.321,53.652 158.741,53.983 159.515,53.983 					"/>
				</defs>
				<clipPath id="SVGID_10_">
					<use xlink:href="#SVGID_9_"  overflow="visible"/>
				</clipPath>
				
					<linearGradient id="SVGID_11_" gradientUnits="userSpaceOnUse" x1="-96.5229" y1="-222.4541" x2="-95.5229" y2="-222.4541" gradientTransform="matrix(97.417 0 0 97.417 9517.5322 21724.582)">
					<stop  offset="0" style="stop-color:#6CC04A"/>
					<stop  offset="0.0919" style="stop-color:#6CC04A"/>
					<stop  offset="0.2864" style="stop-color:#66B848"/>
					<stop  offset="0.5968" style="stop-color:#54A044"/>
					<stop  offset="0.8624" style="stop-color:#41873F"/>
					<stop  offset="1" style="stop-color:#41873F"/>
				</linearGradient>
				<rect x="158.741" y="53.652" clip-path="url(#SVGID_10_)" fill="url(#SVGID_11_)" width="0.774" height="0.331"/>
			</g>
		</g>
		<g clip-path="url(#SVGID_8_)">
			<g>
				<defs>
					<path id="SVGID_12_" d="M162.759,61.935c-0.705,0.07-1.398,0.289-2.033,0.655l-42.014,24.245l45.293,82.513
						c0.628-0.091,1.243-0.301,1.81-0.628l42.124-24.334c1.301-0.753,2.189-2.03,2.458-3.478l-46.178-78.89
						c-0.341-0.068-0.688-0.102-1.035-0.102C163.042,61.917,162.9,61.923,162.759,61.935"/>
				</defs>
				<clipPath id="SVGID_13_">
					<use xlink:href="#SVGID_12_"  overflow="visible"/>
				</clipPath>
				
					<linearGradient id="SVGID_14_" gradientUnits="userSpaceOnUse" x1="-96.5229" y1="-222.4541" x2="-95.523" y2="-222.4541" gradientTransform="matrix(97.417 0 0 97.417 9517.5322 21786.3945)">
					<stop  offset="0" style="stop-color:#6CC04A"/>
					<stop  offset="0.0919" style="stop-color:#6CC04A"/>
					<stop  offset="0.2864" style="stop-color:#66B848"/>
					<stop  offset="0.5968" style="stop-color:#54A044"/>
					<stop  offset="0.8624" style="stop-color:#41873F"/>
					<stop  offset="1" style="stop-color:#41873F"/>
				</linearGradient>
				<rect x="118.712" y="61.917" clip-path="url(#SVGID_13_)" fill="url(#SVGID_14_)" width="91.685" height="107.431"/>
			</g>
		</g>
		<g clip-path="url(#SVGID_8_)">
			<g>
				<defs>
					<path id="SVGID_15_" d="M160.727,62.59l-42.134,24.315c-1.575,0.909-2.545,2.588-2.545,4.407v48.667
						c0,1.816,0.97,3.496,2.544,4.407l42.133,24.335c1.576,0.908,3.516,0.908,5.091,0l42.124-24.335
						c1.574-0.911,2.543-2.591,2.543-4.407V91.31c0-1.817-0.969-3.496-2.545-4.405L165.814,62.59
						c-0.787-0.454-1.666-0.682-2.544-0.682C162.391,61.908,161.513,62.136,160.727,62.59"/>
				</defs>
				<clipPath id="SVGID_16_">
					<use xlink:href="#SVGID_15_"  overflow="visible"/>
				</clipPath>
				<g clip-path="url(#SVGID_16_)">
					<g>
						<defs>
							<polygon id="SVGID_17_" points="211.973,143.604 211.694,143.125 211.694,143.766 							"/>
						</defs>
						<clipPath id="SVGID_18_">
							<use xlink:href="#SVGID_17_"  overflow="visible"/>
						</clipPath>
						
							<linearGradient id="SVGID_19_" gradientUnits="userSpaceOnUse" x1="-96.5229" y1="-222.4541" x2="-95.5229" y2="-222.4541" gradientTransform="matrix(97.417 0 0 97.417 9517.5322 21814.207)">
							<stop  offset="0" style="stop-color:#6CC04A"/>
							<stop  offset="0.0919" style="stop-color:#6CC04A"/>
							<stop  offset="0.2864" style="stop-color:#66B848"/>
							<stop  offset="0.5968" style="stop-color:#54A044"/>
							<stop  offset="0.8624" style="stop-color:#41873F"/>
							<stop  offset="1" style="stop-color:#41873F"/>
						</linearGradient>
						<rect x="211.694" y="143.125" clip-path="url(#SVGID_18_)" fill="url(#SVGID_19_)" width="0.279" height="0.641"/>
					</g>
				</g>
				<g clip-path="url(#SVGID_16_)">
					<g>
						<defs>
							<path id="SVGID_20_" d="M160.727,62.59l-42.134,24.315c-1.575,0.909-2.545,2.588-2.545,4.407v48.667
								c0,1.816,0.97,3.496,2.544,4.407l42.133,24.335c1.576,0.908,3.516,0.908,5.091,0l42.124-24.335
								c1.574-0.911,2.543-2.591,2.543-4.407V91.31c0-1.817-0.969-3.496-2.545-4.405L165.814,62.59
								c-0.787-0.454-1.666-0.682-2.544-0.682C162.391,61.908,161.513,62.136,160.727,62.59"/>
						</defs>
						<clipPath id="SVGID_21_">
							<use xlink:href="#SVGID_20_"  overflow="visible"/>
						</clipPath>
						<g clip-path="url(#SVGID_21_)">
							<g>
								<defs>
									<path id="SVGID_22_" d="M208.045,144.386l-42.177,24.333c-0.58,0.336-1.213,0.545-1.861,0.633l0.84,1.53l46.847-27.116
										v-0.641l-1.158-1.979C210.189,142.495,209.273,143.675,208.045,144.386"/>
								</defs>
								<clipPath id="SVGID_23_">
									<use xlink:href="#SVGID_22_"  overflow="visible"/>
								</clipPath>
								
									<linearGradient id="SVGID_24_" gradientUnits="userSpaceOnUse" x1="-96.522" y1="-222.4551" x2="-95.523" y2="-222.4551" gradientTransform="matrix(97.417 0 0 97.417 9517.5322 21826.832)">
									<stop  offset="0" style="stop-color:#6CC04A"/>
									<stop  offset="0.0919" style="stop-color:#6CC04A"/>
									<stop  offset="0.2864" style="stop-color:#66B848"/>
									<stop  offset="0.5968" style="stop-color:#54A044"/>
									<stop  offset="0.8624" style="stop-color:#41873F"/>
									<stop  offset="1" style="stop-color:#41873F"/>
								</linearGradient>
								<rect x="164.007" y="141.146" clip-path="url(#SVGID_23_)" fill="url(#SVGID_24_)" width="47.687" height="29.735"/>
							</g>
						</g>
						<g clip-path="url(#SVGID_21_)">
							<g>
								<defs>
									<path id="SVGID_25_" d="M160.727,62.59l-42.134,24.315c-1.575,0.909-2.545,2.588-2.545,4.407v48.667
										c0,1.816,0.97,3.496,2.544,4.407l42.133,24.335c1.576,0.908,3.516,0.908,5.091,0l42.124-24.335
										c1.574-0.911,2.543-2.591,2.543-4.407V91.31c0-1.817-0.969-3.496-2.545-4.405L165.814,62.59
										c-0.787-0.454-1.666-0.682-2.544-0.682C162.391,61.908,161.513,62.136,160.727,62.59"/>
								</defs>
								<clipPath id="SVGID_26_">
									<use xlink:href="#SVGID_25_"  overflow="visible"/>
								</clipPath>
								<g clip-path="url(#SVGID_26_)">
									<g>
										<defs>
											<path id="SVGID_27_" d="M208.045,144.386l-42.177,24.333c-0.58,0.336-1.213,0.545-1.861,0.633l0.84,1.53l46.847-27.116
												v-0.641l-1.158-1.979C210.189,142.495,209.273,143.675,208.045,144.386"/>
										</defs>
										<clipPath id="SVGID_28_">
											<use xlink:href="#SVGID_27_"  overflow="visible"/>
										</clipPath>
										
											<linearGradient id="SVGID_29_" gradientUnits="userSpaceOnUse" x1="-97.7773" y1="-223.1392" x2="-96.7773" y2="-223.1392" gradientTransform="matrix(-60.0806 122.5644 -122.5644 -60.0806 -32997.4219 -1344.043)">
											<stop  offset="0" style="stop-color:#41873F"/>
											<stop  offset="0.3288" style="stop-color:#418B3D"/>
											<stop  offset="0.6352" style="stop-color:#419637"/>
											<stop  offset="0.9319" style="stop-color:#3FA92D"/>
											<stop  offset="1" style="stop-color:#3FAE2A"/>
										</linearGradient>
										<polygon clip-path="url(#SVGID_28_)" fill="url(#SVGID_29_)" points="223.445,146.908 202.456,189.729 152.255,165.122 
											173.246,122.3 										"/>
									</g>
								</g>
							</g>
						</g>
					</g>
				</g>
			</g>
		</g>
	</g>
</g>
</svg>
